solid OpenSCAD_Model
  facet normal -1 0 0
    outer loop
      vertex -34 0 0
      vertex -34 0 4
      vertex -34 16 0
    endloop
  endfacet
  facet normal -1 0 0
    outer loop
      vertex -34 16 0
      vertex -34 0 4
      vertex -34 16 4
    endloop
  endfacet
  facet normal 0 -1 0
    outer loop
      vertex -34 0 4
      vertex -34 0 0
      vertex -3.88377 0 0
    endloop
  endfacet
  facet normal 0 -1 0
    outer loop
      vertex -2.99404 0 2.65249
      vertex -34 0 4
      vertex -3.88377 0 0.957263
    endloop
  endfacet
  facet normal 0 -1 0
    outer loop
      vertex -3.88377 0 0.957263
      vertex -34 0 4
      vertex -3.88377 0 0
    endloop
  endfacet
  facet normal 0 -1 0
    outer loop
      vertex -1.41842 0 3.74007
      vertex -34 0 4
      vertex -2.99404 0 2.65249
    endloop
  endfacet
  facet normal 0 -1 0
    outer loop
      vertex 0.482147 0 3.97084
      vertex -34 0 4
      vertex -1.41842 0 3.74007
    endloop
  endfacet
  facet normal 0 -1 0
    outer loop
      vertex 26 0 4
      vertex -26 0 4
      vertex 0.482147 0 3.97084
    endloop
  endfacet
  facet normal 0 -1 0
    outer loop
      vertex 34 0 0
      vertex 0.482147 0 3.97084
      vertex 2.27226 0 3.29194
    endloop
  endfacet
  facet normal 0 -1 0
    outer loop
      vertex 34 0 0
      vertex 2.27226 0 3.29194
      vertex 3.54182 0 1.85889
    endloop
  endfacet
  facet normal 0 -1 0
    outer loop
      vertex 34 0 0
      vertex 3.54182 0 1.85889
      vertex 4 0 1.11022e-15
    endloop
  endfacet
  facet normal 0 -1 0
    outer loop
      vertex 34 0 0
      vertex 4 0 1.11022e-15
      vertex 4 0 0
    endloop
  endfacet
  facet normal 0 -1 0
    outer loop
      vertex 34 0 4
      vertex 0.482147 0 3.97084
      vertex 34 0 0
    endloop
  endfacet
  facet normal 0 -1 0
    outer loop
      vertex -26 0 4
      vertex -34 0 4
      vertex 0.482147 0 3.97084
    endloop
  endfacet
  facet normal 0 -1 0
    outer loop
      vertex 34 0 4
      vertex 26 0 4
      vertex 0.482147 0 3.97084
    endloop
  endfacet
  facet normal 0 -1 0
    outer loop
      vertex -26 0 52
      vertex -15.875 0 11.0155
      vertex -10.0058 0 20.3225
    endloop
  endfacet
  facet normal 0 -1 0
    outer loop
      vertex -15.875 0 38.9845
      vertex -11 0 25
      vertex -14.125 0 38.9845
    endloop
  endfacet
  facet normal 0 -1 0
    outer loop
      vertex 26 0 52
      vertex 12 0 25
      vertex 26 0 4
    endloop
  endfacet
  facet normal 0 -1 0
    outer loop
      vertex 12 0 25
      vertex 11.7487 0 22.609
      vertex 26 0 4
    endloop
  endfacet
  facet normal 0 -1 0
    outer loop
      vertex 11.7487 0 22.609
      vertex 11.0058 0 20.3225
      vertex 26 0 4
    endloop
  endfacet
  facet normal 0 -1 0
    outer loop
      vertex 11.0058 0 20.3225
      vertex 9.80369 0 18.2405
      vertex 26 0 4
    endloop
  endfacet
  facet normal 0 -1 0
    outer loop
      vertex -5.25 0 15.0407
      vertex -7.195 0 16.4538
      vertex -15.875 0 11.0155
    endloop
  endfacet
  facet normal 0 -1 0
    outer loop
      vertex 16.875 0 11.0155
      vertex 17.75 0 9.5
      vertex 26 0 4
    endloop
  endfacet
  facet normal 0 -1 0
    outer loop
      vertex 15.125 0 42.0155
      vertex 16.875 0 42.0155
      vertex 26 0 52
    endloop
  endfacet
  facet normal 0 -1 0
    outer loop
      vertex -14.125 0 11.0155
      vertex 1.70208 0 13.563
      vertex -0.702077 0 13.563
    endloop
  endfacet
  facet normal 0 -1 0
    outer loop
      vertex -13.25 0 40.5
      vertex -11 0 52
      vertex -14.125 0 42.0155
    endloop
  endfacet
  facet normal 0 -1 0
    outer loop
      vertex 15.125 0 7.98446
      vertex 14.25 0 9.5
      vertex 4.05369 0 14.0629
    endloop
  endfacet
  facet normal 0 -1 0
    outer loop
      vertex -26 0 52
      vertex -10.0058 0 20.3225
      vertex -10.7487 0 22.609
    endloop
  endfacet
  facet normal 0 -1 0
    outer loop
      vertex -10.0058 0 20.3225
      vertex -15.875 0 11.0155
      vertex -8.80369 0 18.2405
    endloop
  endfacet
  facet normal 0 -1 0
    outer loop
      vertex -15.875 0 11.0155
      vertex -14.125 0 11.0155
      vertex -5.25 0 15.0407
    endloop
  endfacet
  facet normal 0 -1 0
    outer loop
      vertex -26 0 52
      vertex -11 0 25
      vertex -15.875 0 38.9845
    endloop
  endfacet
  facet normal 0 -1 0
    outer loop
      vertex 15.125 0 7.98446
      vertex -26 0 4
      vertex 26 0 4
    endloop
  endfacet
  facet normal 0 -1 0
    outer loop
      vertex -14.125 0 7.98446
      vertex -15.875 0 7.98446
      vertex -26 0 4
    endloop
  endfacet
  facet normal 0 -1 0
    outer loop
      vertex -14.125 0 11.0155
      vertex -0.702077 0 13.563
      vertex -3.05369 0 14.0629
    endloop
  endfacet
  facet normal 0 -1 0
    outer loop
      vertex -3.05369 0 14.0629
      vertex -5.25 0 15.0407
      vertex -14.125 0 11.0155
    endloop
  endfacet
  facet normal 0 -1 0
    outer loop
      vertex -11 0 25
      vertex -13.25 0 40.5
      vertex -14.125 0 38.9845
    endloop
  endfacet
  facet normal 0 -1 0
    outer loop
      vertex 1.70208 0 13.563
      vertex -13.25 0 9.5
      vertex 4.05369 0 14.0629
    endloop
  endfacet
  facet normal 0 -1 0
    outer loop
      vertex -14.125 0 11.0155
      vertex -13.25 0 9.5
      vertex 1.70208 0 13.563
    endloop
  endfacet
  facet normal 0 -1 0
    outer loop
      vertex 4.05369 0 14.0629
      vertex -14.125 0 7.98446
      vertex -26 0 4
    endloop
  endfacet
  facet normal 0 -1 0
    outer loop
      vertex -26 0 52
      vertex -16.75 0 40.5
      vertex -11 0 52
    endloop
  endfacet
  facet normal 0 -1 0
    outer loop
      vertex -16.75 0 40.5
      vertex -15.875 0 42.0155
      vertex -11 0 52
    endloop
  endfacet
  facet normal 0 -1 0
    outer loop
      vertex -26 0 52
      vertex -15.875 0 38.9845
      vertex -16.75 0 40.5
    endloop
  endfacet
  facet normal 0 -1 0
    outer loop
      vertex 16.875 0 7.98446
      vertex 15.125 0 7.98446
      vertex 26 0 4
    endloop
  endfacet
  facet normal 0 -1 0
    outer loop
      vertex 4.05369 0 14.0629
      vertex -26 0 4
      vertex 15.125 0 7.98446
    endloop
  endfacet
  facet normal 0 -1 0
    outer loop
      vertex 6.25 0 15.0407
      vertex 4.05369 0 14.0629
      vertex 14.25 0 9.5
    endloop
  endfacet
  facet normal 0 -1 0
    outer loop
      vertex 8.195 0 16.4538
      vertex 6.25 0 15.0407
      vertex 15.125 0 11.0155
    endloop
  endfacet
  facet normal 0 -1 0
    outer loop
      vertex 9.80369 0 18.2405
      vertex 16.875 0 11.0155
      vertex 26 0 4
    endloop
  endfacet
  facet normal 0 -1 0
    outer loop
      vertex 9.80369 0 18.2405
      vertex 8.195 0 16.4538
      vertex 16.875 0 11.0155
    endloop
  endfacet
  facet normal 0 -1 0
    outer loop
      vertex 17.75 0 9.5
      vertex 16.875 0 7.98446
      vertex 26 0 4
    endloop
  endfacet
  facet normal 0 -1 0
    outer loop
      vertex 14.25 0 9.5
      vertex 15.125 0 11.0155
      vertex 6.25 0 15.0407
    endloop
  endfacet
  facet normal 0 -1 0
    outer loop
      vertex 15.125 0 11.0155
      vertex 16.875 0 11.0155
      vertex 8.195 0 16.4538
    endloop
  endfacet
  facet normal 0 -1 0
    outer loop
      vertex 16.875 0 38.9845
      vertex 15.125 0 38.9845
      vertex 12 0 25
    endloop
  endfacet
  facet normal 0 -1 0
    outer loop
      vertex -11 0 25
      vertex -11 0 52
      vertex -13.25 0 40.5
    endloop
  endfacet
  facet normal 0 -1 0
    outer loop
      vertex -26 0 52
      vertex -10.7487 0 22.609
      vertex -11 0 25
    endloop
  endfacet
  facet normal 0 -1 0
    outer loop
      vertex -8.80369 0 18.2405
      vertex -15.875 0 11.0155
      vertex -7.195 0 16.4538
    endloop
  endfacet
  facet normal 0 -1 0
    outer loop
      vertex 26 0 52
      vertex 17.75 0 40.5
      vertex 12 0 25
    endloop
  endfacet
  facet normal 0 -1 0
    outer loop
      vertex 17.75 0 40.5
      vertex 16.875 0 38.9845
      vertex 12 0 25
    endloop
  endfacet
  facet normal 0 -1 0
    outer loop
      vertex 12 0 52
      vertex 15.125 0 42.0155
      vertex 26 0 52
    endloop
  endfacet
  facet normal 0 -1 0
    outer loop
      vertex 16.875 0 42.0155
      vertex 17.75 0 40.5
      vertex 26 0 52
    endloop
  endfacet
  facet normal 0 -1 0
    outer loop
      vertex 12 0 52
      vertex 14.25 0 40.5
      vertex 15.125 0 42.0155
    endloop
  endfacet
  facet normal 0 -1 0
    outer loop
      vertex 14.25 0 40.5
      vertex 12 0 25
      vertex 15.125 0 38.9845
    endloop
  endfacet
  facet normal 0 -1 0
    outer loop
      vertex 12 0 52
      vertex 12 0 25
      vertex 14.25 0 40.5
    endloop
  endfacet
  facet normal 0 -1 0
    outer loop
      vertex -26 0 52
      vertex -16.75 0 9.5
      vertex -15.875 0 11.0155
    endloop
  endfacet
  facet normal 0 -1 0
    outer loop
      vertex -13.25 0 9.5
      vertex -14.125 0 7.98446
      vertex 4.05369 0 14.0629
    endloop
  endfacet
  facet normal 0 -1 0
    outer loop
      vertex -15.875 0 42.0155
      vertex -14.125 0 42.0155
      vertex -11 0 52
    endloop
  endfacet
  facet normal 0 -1 0
    outer loop
      vertex -16.75 0 9.5
      vertex -26 0 4
      vertex -15.875 0 7.98446
    endloop
  endfacet
  facet normal 0 -1 0
    outer loop
      vertex -26 0 52
      vertex -26 0 4
      vertex -16.75 0 9.5
    endloop
  endfacet
  facet normal 0 0 -1
    outer loop
      vertex -3.88377 3.9 0
      vertex -3.88377 0 0
      vertex -22 3.9 0
    endloop
  endfacet
  facet normal 0 0 -1
    outer loop
      vertex -27.8934 9.76767 0
      vertex -34 16 0
      vertex -22 3.9 0
    endloop
  endfacet
  facet normal 0 0 -1
    outer loop
      vertex -34 0 0
      vertex -22 3.9 0
      vertex -3.88377 0 0
    endloop
  endfacet
  facet normal 0 0 -1
    outer loop
      vertex -27.8934 6.23233 0
      vertex -22 3.9 0
      vertex -29.5225 5.29178 0
    endloop
  endfacet
  facet normal 0 0 -1
    outer loop
      vertex -34 0 0
      vertex -34 16 0
      vertex -32.5842 8.94055 0
    endloop
  endfacet
  facet normal 0 0 -1
    outer loop
      vertex -34 0 0
      vertex -32.5842 8.94055 0
      vertex -32.5842 7.05944 0
    endloop
  endfacet
  facet normal 0 0 -1
    outer loop
      vertex -34 0 0
      vertex -32.5842 7.05944 0
      vertex -31.375 5.61843 0
    endloop
  endfacet
  facet normal 0 0 -1
    outer loop
      vertex -34 0 0
      vertex -31.375 5.61843 0
      vertex -22 3.9 0
    endloop
  endfacet
  facet normal 0 0 -1
    outer loop
      vertex -31.375 5.61843 0
      vertex -29.5225 5.29178 0
      vertex -22 3.9 0
    endloop
  endfacet
  facet normal 0 0 -1
    outer loop
      vertex -27.25 8 0
      vertex -22 3.9 0
      vertex -27.8934 6.23233 0
    endloop
  endfacet
  facet normal 0 0 -1
    outer loop
      vertex -31.375 10.3816 0
      vertex -34 16 0
      vertex -29.5225 10.7082 0
    endloop
  endfacet
  facet normal 0 0 -1
    outer loop
      vertex -29.5225 10.7082 0
      vertex -34 16 0
      vertex -27.8934 9.76767 0
    endloop
  endfacet
  facet normal 0 0 -1
    outer loop
      vertex -27.25 8 0
      vertex -27.8934 9.76767 0
      vertex -22 3.9 0
    endloop
  endfacet
  facet normal 0 0 -1
    outer loop
      vertex -32.5842 8.94055 0
      vertex -34 16 0
      vertex -31.375 10.3816 0
    endloop
  endfacet
  facet normal 0 0 -1
    outer loop
      vertex -22 3.9 0
      vertex -34 16 0
      vertex -26 16 0
    endloop
  endfacet
  facet normal 0 0 -1
    outer loop
      vertex -22 3.9 0
      vertex -26 16 0
      vertex -26 21.0877 0
    endloop
  endfacet
  facet normal 0 0 -1
    outer loop
      vertex -22 3.9 0
      vertex -26 21.0877 0
      vertex -22 21.0877 0
    endloop
  endfacet
  facet normal 0 1 0
    outer loop
      vertex -34 16 0
      vertex -34 16 4
      vertex -26 16 0
    endloop
  endfacet
  facet normal 0 1 0
    outer loop
      vertex -26 16 0
      vertex -34 16 4
      vertex -26 16 4
    endloop
  endfacet
  facet normal 0 0 1
    outer loop
      vertex -31.375 5.61843 4
      vertex -34 0 4
      vertex -26 0 4
    endloop
  endfacet
  facet normal 0 0 1
    outer loop
      vertex -34 16 4
      vertex -34 0 4
      vertex -32.5842 7.05944 4
    endloop
  endfacet
  facet normal 0 0 1
    outer loop
      vertex -34 16 4
      vertex -32.5842 7.05944 4
      vertex -32.5842 8.94055 4
    endloop
  endfacet
  facet normal 0 0 1
    outer loop
      vertex -27.25 8 4
      vertex -27.8934 6.23233 4
      vertex -26 0 4
    endloop
  endfacet
  facet normal 0 0 1
    outer loop
      vertex -34 16 4
      vertex -32.5842 8.94055 4
      vertex -31.375 10.3816 4
    endloop
  endfacet
  facet normal 0 0 1
    outer loop
      vertex -29.5225 5.29178 4
      vertex -31.375 5.61843 4
      vertex -26 0 4
    endloop
  endfacet
  facet normal 0 0 1
    outer loop
      vertex -26 16 4
      vertex -34 16 4
      vertex -29.5225 10.7082 4
    endloop
  endfacet
  facet normal 0 0 1
    outer loop
      vertex -26 16 4
      vertex -29.5225 10.7082 4
      vertex -27.8934 9.76767 4
    endloop
  endfacet
  facet normal 0 0 1
    outer loop
      vertex -26 16 4
      vertex -27.25 8 4
      vertex -26 0 4
    endloop
  endfacet
  facet normal 0 0 1
    outer loop
      vertex -26 16 4
      vertex -27.8934 9.76767 4
      vertex -27.25 8 4
    endloop
  endfacet
  facet normal 0 0 1
    outer loop
      vertex -32.5842 7.05944 4
      vertex -34 0 4
      vertex -31.375 5.61843 4
    endloop
  endfacet
  facet normal 0 0 1
    outer loop
      vertex -31.375 10.3816 4
      vertex -29.5225 10.7082 4
      vertex -34 16 4
    endloop
  endfacet
  facet normal 0 0 1
    outer loop
      vertex -27.8934 6.23233 4
      vertex -29.5225 5.29178 4
      vertex -26 0 4
    endloop
  endfacet
  facet normal -1 0 0
    outer loop
      vertex -26 0 4
      vertex -26 0 52
      vertex -26 16 4
    endloop
  endfacet
  facet normal -1 0 0
    outer loop
      vertex -26 16 4
      vertex -26 0 52
      vertex -26 4 52
    endloop
  endfacet
  facet normal -1 0 0
    outer loop
      vertex -26 16 4
      vertex -26 4 52
      vertex -26 52 4
    endloop
  endfacet
  facet normal -1 0 0
    outer loop
      vertex -26 16 4
      vertex -26 52 4
      vertex -26 36 4
    endloop
  endfacet
  facet normal -1 0 0
    outer loop
      vertex -26 28.7401 1.41842
      vertex -26 36 0
      vertex -26 28.9123 0
    endloop
  endfacet
  facet normal -1 0 0
    outer loop
      vertex -26 36 4
      vertex -26 36 0
      vertex -26 27.6525 2.99404
    endloop
  endfacet
  facet normal -1 0 0
    outer loop
      vertex -26 36 4
      vertex -26 27.6525 2.99404
      vertex -26 25.9573 3.88377
    endloop
  endfacet
  facet normal -1 0 0
    outer loop
      vertex -26 36 4
      vertex -26 25.9573 3.88377
      vertex -26 16 4
    endloop
  endfacet
  facet normal -1 0 0
    outer loop
      vertex -26 25.9573 3.88377
      vertex -26 24.0427 3.88377
      vertex -26 16 4
    endloop
  endfacet
  facet normal -1 0 0
    outer loop
      vertex -26 22.3475 2.99404
      vertex -26 16 4
      vertex -26 24.0427 3.88377
    endloop
  endfacet
  facet normal -1 0 0
    outer loop
      vertex -26 21.2599 1.41842
      vertex -26 16 4
      vertex -26 22.3475 2.99404
    endloop
  endfacet
  facet normal -1 0 0
    outer loop
      vertex -26 27.6525 2.99404
      vertex -26 36 0
      vertex -26 28.7401 1.41842
    endloop
  endfacet
  facet normal -1 0 0
    outer loop
      vertex -26 16 4
      vertex -26 21.2599 1.41842
      vertex -26 21.0877 0
    endloop
  endfacet
  facet normal -1 0 0
    outer loop
      vertex -26 16 4
      vertex -26 21.0877 0
      vertex -26 16 0
    endloop
  endfacet
  facet normal 0 0 1
    outer loop
      vertex -26 4 52
      vertex -26 0 52
      vertex -11 0 52
    endloop
  endfacet
  facet normal 0 0 1
    outer loop
      vertex -22 3.9 52
      vertex -26 4 52
      vertex -11 0 52
    endloop
  endfacet
  facet normal 0 0 1
    outer loop
      vertex -11 3.9 52
      vertex -22 3.9 52
      vertex -11 0 52
    endloop
  endfacet
  facet normal 0 0 1
    outer loop
      vertex -22 3.9 52
      vertex -22 4 52
      vertex -26 4 52
    endloop
  endfacet
  facet normal 1 0 0
    outer loop
      vertex -11 3.9 25
      vertex -11 3.9 52
      vertex -11 0 52
    endloop
  endfacet
  facet normal 1 0 0
    outer loop
      vertex -11 0 25
      vertex -11 3.9 25
      vertex -11 0 52
    endloop
  endfacet
  facet normal 0.994522 2.321e-17 0.104529
    outer loop
      vertex -10.7487 0 22.609
      vertex -10.7487 3.9 22.609
      vertex -11 3.9 25
    endloop
  endfacet
  facet normal 0.994522 2.321e-17 0.104529
    outer loop
      vertex -11 0 25
      vertex -10.7487 0 22.609
      vertex -11 3.9 25
    endloop
  endfacet
  facet normal 0.951057 6.86155e-17 0.309017
    outer loop
      vertex -10.0058 0 20.3225
      vertex -10.0058 3.9 20.3225
      vertex -10.7487 3.9 22.609
    endloop
  endfacet
  facet normal 0.951057 6.86155e-17 0.309017
    outer loop
      vertex -10.7487 0 22.609
      vertex -10.0058 0 20.3225
      vertex -10.7487 3.9 22.609
    endloop
  endfacet
  facet normal 0.866025 1.11022e-16 0.5
    outer loop
      vertex -8.80369 0 18.2405
      vertex -8.80369 3.9 18.2405
      vertex -10.0058 3.9 20.3225
    endloop
  endfacet
  facet normal 0.866025 1.11022e-16 0.5
    outer loop
      vertex -10.0058 0 20.3225
      vertex -8.80369 0 18.2405
      vertex -10.0058 3.9 20.3225
    endloop
  endfacet
  facet normal 0.743145 1.48577e-16 0.669131
    outer loop
      vertex -7.195 0 16.4538
      vertex -7.195 3.9 16.4538
      vertex -8.80369 3.9 18.2405
    endloop
  endfacet
  facet normal 0.743145 1.48577e-16 0.669131
    outer loop
      vertex -8.80369 0 18.2405
      vertex -7.195 0 16.4538
      vertex -8.80369 3.9 18.2405
    endloop
  endfacet
  facet normal 0.587785 1.79638e-16 0.809017
    outer loop
      vertex -5.25 0 15.0407
      vertex -5.25 3.9 15.0407
      vertex -7.195 3.9 16.4538
    endloop
  endfacet
  facet normal 0.587785 1.79638e-16 0.809017
    outer loop
      vertex -7.195 0 16.4538
      vertex -5.25 0 15.0407
      vertex -7.195 3.9 16.4538
    endloop
  endfacet
  facet normal 0.406737 2.02848e-16 0.913545
    outer loop
      vertex -3.05369 0 14.0629
      vertex -3.05369 3.9 14.0628
      vertex -5.25 3.9 15.0407
    endloop
  endfacet
  facet normal 0.406737 2.02848e-16 0.913545
    outer loop
      vertex -5.25 0 15.0407
      vertex -3.05369 0 14.0629
      vertex -5.25 3.9 15.0407
    endloop
  endfacet
  facet normal 0.207912 2.17192e-16 0.978148
    outer loop
      vertex -0.702077 0 13.563
      vertex -0.702077 3.9 13.563
      vertex -3.05369 3.9 14.0628
    endloop
  endfacet
  facet normal 0.207912 2.17192e-16 0.978148
    outer loop
      vertex -3.05369 0 14.0629
      vertex -0.702077 0 13.563
      vertex -3.05369 3.9 14.0628
    endloop
  endfacet
  facet normal 0 2.22045e-16 1
    outer loop
      vertex 1.70208 0 13.563
      vertex 1.70208 3.9 13.563
      vertex -0.702077 3.9 13.563
    endloop
  endfacet
  facet normal 0 2.22045e-16 1
    outer loop
      vertex -0.702077 0 13.563
      vertex 1.70208 0 13.563
      vertex -0.702077 3.9 13.563
    endloop
  endfacet
  facet normal -0.207912 2.17192e-16 0.978148
    outer loop
      vertex 4.05369 0 14.0629
      vertex 4.05369 3.9 14.0628
      vertex 1.70208 3.9 13.563
    endloop
  endfacet
  facet normal -0.207912 2.17192e-16 0.978148
    outer loop
      vertex 1.70208 0 13.563
      vertex 4.05369 0 14.0629
      vertex 1.70208 3.9 13.563
    endloop
  endfacet
  facet normal -0.406737 2.02848e-16 0.913545
    outer loop
      vertex 6.25 0 15.0407
      vertex 6.25 3.9 15.0407
      vertex 4.05369 3.9 14.0628
    endloop
  endfacet
  facet normal -0.406737 2.02848e-16 0.913545
    outer loop
      vertex 4.05369 0 14.0629
      vertex 6.25 0 15.0407
      vertex 4.05369 3.9 14.0628
    endloop
  endfacet
  facet normal -0.587785 1.79638e-16 0.809017
    outer loop
      vertex 8.195 0 16.4538
      vertex 8.195 3.9 16.4538
      vertex 6.25 3.9 15.0407
    endloop
  endfacet
  facet normal -0.587785 1.79638e-16 0.809017
    outer loop
      vertex 6.25 0 15.0407
      vertex 8.195 0 16.4538
      vertex 6.25 3.9 15.0407
    endloop
  endfacet
  facet normal -0.743145 1.48577e-16 0.669131
    outer loop
      vertex 9.80369 3.9 18.2405
      vertex 8.195 3.9 16.4538
      vertex 9.80369 0 18.2405
    endloop
  endfacet
  facet normal -0.743145 1.48577e-16 0.669131
    outer loop
      vertex 9.80369 0 18.2405
      vertex 8.195 3.9 16.4538
      vertex 8.195 0 16.4538
    endloop
  endfacet
  facet normal -0.866025 1.11022e-16 0.5
    outer loop
      vertex 11.0058 3.9 20.3225
      vertex 9.80369 3.9 18.2405
      vertex 11.0058 0 20.3225
    endloop
  endfacet
  facet normal -0.866025 1.11022e-16 0.5
    outer loop
      vertex 11.0058 0 20.3225
      vertex 9.80369 3.9 18.2405
      vertex 9.80369 0 18.2405
    endloop
  endfacet
  facet normal -0.951057 6.86155e-17 0.309017
    outer loop
      vertex 11.7487 3.9 22.609
      vertex 11.0058 3.9 20.3225
      vertex 11.7487 0 22.609
    endloop
  endfacet
  facet normal -0.951057 6.86155e-17 0.309017
    outer loop
      vertex 11.7487 0 22.609
      vertex 11.0058 3.9 20.3225
      vertex 11.0058 0 20.3225
    endloop
  endfacet
  facet normal -0.994522 2.321e-17 0.104529
    outer loop
      vertex 12 3.9 25
      vertex 11.7487 3.9 22.609
      vertex 12 0 25
    endloop
  endfacet
  facet normal -0.994522 2.321e-17 0.104529
    outer loop
      vertex 12 0 25
      vertex 11.7487 3.9 22.609
      vertex 11.7487 0 22.609
    endloop
  endfacet
  facet normal -1 0 0
    outer loop
      vertex 12 3.9 52
      vertex 12 3.9 25
      vertex 12 0 52
    endloop
  endfacet
  facet normal -1 0 0
    outer loop
      vertex 12 0 52
      vertex 12 3.9 25
      vertex 12 0 25
    endloop
  endfacet
  facet normal 0 0 1
    outer loop
      vertex 12 3.9 52
      vertex 12 0 52
      vertex 26 0 52
    endloop
  endfacet
  facet normal 0 0 1
    outer loop
      vertex 22 3.9 52
      vertex 12 3.9 52
      vertex 26 0 52
    endloop
  endfacet
  facet normal 0 0 1
    outer loop
      vertex 26 4 52
      vertex 22 3.9 52
      vertex 26 0 52
    endloop
  endfacet
  facet normal 0 0 1
    outer loop
      vertex 22 4 52
      vertex 22 3.9 52
      vertex 26 4 52
    endloop
  endfacet
  facet normal 1 0 0
    outer loop
      vertex 26 21.2599 1.41842
      vertex 26 22.3475 2.99404
      vertex 26 0 52
    endloop
  endfacet
  facet normal 1 0 0
    outer loop
      vertex 26 0 52
      vertex 26 0 4
      vertex 26 16 4
    endloop
  endfacet
  facet normal 1 0 0
    outer loop
      vertex 26 21.0877 0
      vertex 26 0 52
      vertex 26 16 4
    endloop
  endfacet
  facet normal 1 0 0
    outer loop
      vertex 26 16 0
      vertex 26 21.0877 0
      vertex 26 16 4
    endloop
  endfacet
  facet normal 1 0 0
    outer loop
      vertex 26 21.0877 0
      vertex 26 21.2599 1.41842
      vertex 26 0 52
    endloop
  endfacet
  facet normal 1 0 0
    outer loop
      vertex 26 22.3475 2.99404
      vertex 26 24.0427 3.88377
      vertex 26 0 52
    endloop
  endfacet
  facet normal 1 0 0
    outer loop
      vertex 26 24.0427 3.88377
      vertex 26 25.9573 3.88377
      vertex 26 0 52
    endloop
  endfacet
  facet normal 1 0 0
    outer loop
      vertex 26 25.9573 3.88377
      vertex 26 27.6525 2.99404
      vertex 26 0 52
    endloop
  endfacet
  facet normal 1 0 0
    outer loop
      vertex 26 27.6525 2.99404
      vertex 26 28.7401 1.41842
      vertex 26 0 52
    endloop
  endfacet
  facet normal 1 0 0
    outer loop
      vertex 26 28.7401 1.41842
      vertex 26 36 0
      vertex 26 0 52
    endloop
  endfacet
  facet normal 1 0 0
    outer loop
      vertex 26 36 4
      vertex 26 52 4
      vertex 26 0 52
    endloop
  endfacet
  facet normal 1 0 0
    outer loop
      vertex 26 28.9123 0
      vertex 26 36 0
      vertex 26 28.7401 1.41842
    endloop
  endfacet
  facet normal 1 0 0
    outer loop
      vertex 26 36 0
      vertex 26 36 4
      vertex 26 0 52
    endloop
  endfacet
  facet normal 1 0 0
    outer loop
      vertex 26 52 4
      vertex 26 4 52
      vertex 26 0 52
    endloop
  endfacet
  facet normal 0 0 1
    outer loop
      vertex 28.625 5.61843 4
      vertex 26 0 4
      vertex 34 0 4
    endloop
  endfacet
  facet normal 0 0 1
    outer loop
      vertex 26 16 4
      vertex 26 0 4
      vertex 27.4158 7.05944 4
    endloop
  endfacet
  facet normal 0 0 1
    outer loop
      vertex 26 16 4
      vertex 27.4158 7.05944 4
      vertex 27.4158 8.94055 4
    endloop
  endfacet
  facet normal 0 0 1
    outer loop
      vertex 32.75 8 4
      vertex 32.1066 6.23233 4
      vertex 34 0 4
    endloop
  endfacet
  facet normal 0 0 1
    outer loop
      vertex 26 16 4
      vertex 27.4158 8.94055 4
      vertex 28.625 10.3816 4
    endloop
  endfacet
  facet normal 0 0 1
    outer loop
      vertex 30.4775 5.29178 4
      vertex 28.625 5.61843 4
      vertex 34 0 4
    endloop
  endfacet
  facet normal 0 0 1
    outer loop
      vertex 34 16 4
      vertex 26 16 4
      vertex 30.4775 10.7082 4
    endloop
  endfacet
  facet normal 0 0 1
    outer loop
      vertex 34 16 4
      vertex 30.4775 10.7082 4
      vertex 32.1066 9.76767 4
    endloop
  endfacet
  facet normal 0 0 1
    outer loop
      vertex 34 16 4
      vertex 32.75 8 4
      vertex 34 0 4
    endloop
  endfacet
  facet normal 0 0 1
    outer loop
      vertex 34 16 4
      vertex 32.1066 9.76767 4
      vertex 32.75 8 4
    endloop
  endfacet
  facet normal 0 0 1
    outer loop
      vertex 27.4158 7.05944 4
      vertex 26 0 4
      vertex 28.625 5.61843 4
    endloop
  endfacet
  facet normal 0 0 1
    outer loop
      vertex 28.625 10.3816 4
      vertex 30.4775 10.7082 4
      vertex 26 16 4
    endloop
  endfacet
  facet normal 0 0 1
    outer loop
      vertex 32.1066 6.23233 4
      vertex 30.4775 5.29178 4
      vertex 34 0 4
    endloop
  endfacet
  facet normal 1 0 0
    outer loop
      vertex 34 0 4
      vertex 34 0 0
      vertex 34 16 0
    endloop
  endfacet
  facet normal 1 0 0
    outer loop
      vertex 34 16 4
      vertex 34 0 4
      vertex 34 16 0
    endloop
  endfacet
  facet normal 0 0 -1
    outer loop
      vertex 4 0 0
      vertex 4 3.9 0
      vertex 34 0 0
    endloop
  endfacet
  facet normal 0 0 -1
    outer loop
      vertex 34 0 0
      vertex 4 3.9 0
      vertex 22 3.9 0
    endloop
  endfacet
  facet normal 0 0 -1
    outer loop
      vertex 27.4158 8.94055 0
      vertex 22 3.9 0
      vertex 22 21.0877 0
    endloop
  endfacet
  facet normal 0 0 -1
    outer loop
      vertex 26 16 0
      vertex 22 21.0877 0
      vertex 26 21.0877 0
    endloop
  endfacet
  facet normal 0 0 -1
    outer loop
      vertex 28.625 10.3816 0
      vertex 22 21.0877 0
      vertex 26 16 0
    endloop
  endfacet
  facet normal 0 0 -1
    outer loop
      vertex 27.4158 8.94055 0
      vertex 22 21.0877 0
      vertex 28.625 10.3816 0
    endloop
  endfacet
  facet normal 0 0 -1
    outer loop
      vertex 27.4158 7.05944 0
      vertex 22 3.9 0
      vertex 27.4158 8.94055 0
    endloop
  endfacet
  facet normal 0 0 -1
    outer loop
      vertex 30.4775 5.29178 0
      vertex 34 0 0
      vertex 28.625 5.61843 0
    endloop
  endfacet
  facet normal 0 0 -1
    outer loop
      vertex 28.625 5.61843 0
      vertex 22 3.9 0
      vertex 27.4158 7.05944 0
    endloop
  endfacet
  facet normal 0 0 -1
    outer loop
      vertex 28.625 10.3816 0
      vertex 26 16 0
      vertex 30.4775 10.7082 0
    endloop
  endfacet
  facet normal 0 0 -1
    outer loop
      vertex 34 0 0
      vertex 22 3.9 0
      vertex 28.625 5.61843 0
    endloop
  endfacet
  facet normal 0 0 -1
    outer loop
      vertex 32.1066 6.23233 0
      vertex 34 0 0
      vertex 30.4775 5.29178 0
    endloop
  endfacet
  facet normal 0 0 -1
    outer loop
      vertex 34 0 0
      vertex 32.1066 6.23233 0
      vertex 32.75 8 0
    endloop
  endfacet
  facet normal 0 0 -1
    outer loop
      vertex 34 0 0
      vertex 32.75 8 0
      vertex 34 16 0
    endloop
  endfacet
  facet normal 0 0 -1
    outer loop
      vertex 34 16 0
      vertex 32.1066 9.76767 0
      vertex 30.4775 10.7082 0
    endloop
  endfacet
  facet normal 0 0 -1
    outer loop
      vertex 32.1066 9.76767 0
      vertex 34 16 0
      vertex 32.75 8 0
    endloop
  endfacet
  facet normal 0 0 -1
    outer loop
      vertex 34 16 0
      vertex 30.4775 10.7082 0
      vertex 26 16 0
    endloop
  endfacet
  facet normal -0.970942 5.31388e-17 0.239316
    outer loop
      vertex 4 3.9 2.44249e-16
      vertex 4 3.9 0
      vertex 4 0 1.11022e-15
    endloop
  endfacet
  facet normal -0.970942 5.31388e-17 0.239316
    outer loop
      vertex 4 0 1.11022e-15
      vertex 4 3.9 0
      vertex 4 0 0
    endloop
  endfacet
  facet normal -0.970942 -5.31388e-17 -0.239316
    outer loop
      vertex 4 3.9 2.44249e-16
      vertex 4 0 1.11022e-15
      vertex 3.54182 3.9 1.85889
    endloop
  endfacet
  facet normal -0.970942 -5.31388e-17 -0.239316
    outer loop
      vertex 3.54182 3.9 1.85889
      vertex 4 0 1.11022e-15
      vertex 3.54182 0 1.85889
    endloop
  endfacet
  facet normal -0.748511 -1.47243e-16 -0.663123
    outer loop
      vertex 3.54182 3.9 1.85889
      vertex 3.54182 0 1.85889
      vertex 2.27226 3.9 3.29194
    endloop
  endfacet
  facet normal -0.748511 -1.47243e-16 -0.663123
    outer loop
      vertex 2.27226 3.9 3.29194
      vertex 3.54182 0 1.85889
      vertex 2.27226 0 3.29194
    endloop
  endfacet
  facet normal -0.354605 -2.07615e-16 -0.935016
    outer loop
      vertex 2.27226 3.9 3.29194
      vertex 2.27226 0 3.29194
      vertex 0.482147 3.9 3.97083
    endloop
  endfacet
  facet normal -0.354605 -2.07615e-16 -0.935016
    outer loop
      vertex 0.482147 3.9 3.97083
      vertex 2.27226 0 3.29194
      vertex 0.482147 0 3.97084
    endloop
  endfacet
  facet normal 0.120536 -2.20426e-16 -0.992709
    outer loop
      vertex 0.482147 3.9 3.97083
      vertex 0.482147 0 3.97084
      vertex -1.41842 3.9 3.74006
    endloop
  endfacet
  facet normal 0.120536 -2.20426e-16 -0.992709
    outer loop
      vertex -1.41842 3.9 3.74006
      vertex 0.482147 0 3.97084
      vertex -1.41842 0 3.74007
    endloop
  endfacet
  facet normal 0.568065 -1.82739e-16 -0.822984
    outer loop
      vertex -1.41842 3.9 3.74006
      vertex -1.41842 0 3.74007
      vertex -2.99404 3.9 2.65249
    endloop
  endfacet
  facet normal 0.568065 -1.82739e-16 -0.822984
    outer loop
      vertex -2.99404 3.9 2.65249
      vertex -1.41842 0 3.74007
      vertex -2.99404 0 2.65249
    endloop
  endfacet
  facet normal 0.885456 -1.03189e-16 -0.464723
    outer loop
      vertex -3.88377 3.9 0.957263
      vertex -2.99404 3.9 2.65249
      vertex -2.99404 0 2.65249
    endloop
  endfacet
  facet normal 0.885456 -1.03189e-16 -0.464723
    outer loop
      vertex -3.88377 0 0.957263
      vertex -3.88377 3.9 0.957263
      vertex -2.99404 0 2.65249
    endloop
  endfacet
  facet normal 1 0 0
    outer loop
      vertex -3.88377 3.9 0
      vertex -3.88377 3.9 0.957263
      vertex -3.88377 0 0.957263
    endloop
  endfacet
  facet normal 1 0 0
    outer loop
      vertex -3.88377 0 0
      vertex -3.88377 3.9 0
      vertex -3.88377 0 0.957263
    endloop
  endfacet
  facet normal 0.866025 1.11022e-16 0.5
    outer loop
      vertex -15.875 0 7.98446
      vertex -15.875 3.9 7.98446
      vertex -16.75 3.9 9.5
    endloop
  endfacet
  facet normal 0.866025 1.11022e-16 0.5
    outer loop
      vertex -16.75 0 9.5
      vertex -15.875 0 7.98446
      vertex -16.75 3.9 9.5
    endloop
  endfacet
  facet normal 0 2.22045e-16 1
    outer loop
      vertex -14.125 0 7.98446
      vertex -14.125 3.9 7.98446
      vertex -15.875 3.9 7.98446
    endloop
  endfacet
  facet normal 0 2.22045e-16 1
    outer loop
      vertex -15.875 0 7.98446
      vertex -14.125 0 7.98446
      vertex -15.875 3.9 7.98446
    endloop
  endfacet
  facet normal -0.866025 1.11022e-16 0.5
    outer loop
      vertex -13.25 3.9 9.5
      vertex -14.125 3.9 7.98446
      vertex -13.25 0 9.5
    endloop
  endfacet
  facet normal -0.866025 1.11022e-16 0.5
    outer loop
      vertex -13.25 0 9.5
      vertex -14.125 3.9 7.98446
      vertex -14.125 0 7.98446
    endloop
  endfacet
  facet normal -0.866025 -1.11022e-16 -0.5
    outer loop
      vertex -13.25 3.9 9.5
      vertex -13.25 0 9.5
      vertex -14.125 3.9 11.0155
    endloop
  endfacet
  facet normal -0.866025 -1.11022e-16 -0.5
    outer loop
      vertex -14.125 3.9 11.0155
      vertex -13.25 0 9.5
      vertex -14.125 0 11.0155
    endloop
  endfacet
  facet normal 0 -2.22045e-16 -1
    outer loop
      vertex -14.125 3.9 11.0155
      vertex -14.125 0 11.0155
      vertex -15.875 3.9 11.0155
    endloop
  endfacet
  facet normal 0 -2.22045e-16 -1
    outer loop
      vertex -15.875 3.9 11.0155
      vertex -14.125 0 11.0155
      vertex -15.875 0 11.0155
    endloop
  endfacet
  facet normal 0.866025 -1.11022e-16 -0.5
    outer loop
      vertex -16.75 3.9 9.5
      vertex -15.875 3.9 11.0155
      vertex -15.875 0 11.0155
    endloop
  endfacet
  facet normal 0.866025 -1.11022e-16 -0.5
    outer loop
      vertex -16.75 0 9.5
      vertex -16.75 3.9 9.5
      vertex -15.875 0 11.0155
    endloop
  endfacet
  facet normal 0.866025 1.11022e-16 0.5
    outer loop
      vertex -15.875 0 38.9845
      vertex -15.875 3.9 38.9845
      vertex -16.75 3.9 40.5
    endloop
  endfacet
  facet normal 0.866025 1.11022e-16 0.5
    outer loop
      vertex -16.75 0 40.5
      vertex -15.875 0 38.9845
      vertex -16.75 3.9 40.5
    endloop
  endfacet
  facet normal 0 2.22045e-16 1
    outer loop
      vertex -14.125 0 38.9845
      vertex -14.125 3.9 38.9845
      vertex -15.875 3.9 38.9845
    endloop
  endfacet
  facet normal 0 2.22045e-16 1
    outer loop
      vertex -15.875 0 38.9845
      vertex -14.125 0 38.9845
      vertex -15.875 3.9 38.9845
    endloop
  endfacet
  facet normal -0.866025 1.11022e-16 0.5
    outer loop
      vertex -13.25 3.9 40.5
      vertex -14.125 3.9 38.9845
      vertex -13.25 0 40.5
    endloop
  endfacet
  facet normal -0.866025 1.11022e-16 0.5
    outer loop
      vertex -13.25 0 40.5
      vertex -14.125 3.9 38.9845
      vertex -14.125 0 38.9845
    endloop
  endfacet
  facet normal -0.866025 -1.11022e-16 -0.5
    outer loop
      vertex -13.25 3.9 40.5
      vertex -13.25 0 40.5
      vertex -14.125 3.9 42.0155
    endloop
  endfacet
  facet normal -0.866025 -1.11022e-16 -0.5
    outer loop
      vertex -14.125 3.9 42.0155
      vertex -13.25 0 40.5
      vertex -14.125 0 42.0155
    endloop
  endfacet
  facet normal 0 -2.22045e-16 -1
    outer loop
      vertex -14.125 3.9 42.0155
      vertex -14.125 0 42.0155
      vertex -15.875 3.9 42.0155
    endloop
  endfacet
  facet normal 0 -2.22045e-16 -1
    outer loop
      vertex -15.875 3.9 42.0155
      vertex -14.125 0 42.0155
      vertex -15.875 0 42.0155
    endloop
  endfacet
  facet normal 0.866025 -1.11022e-16 -0.5
    outer loop
      vertex -16.75 3.9 40.5
      vertex -15.875 3.9 42.0155
      vertex -15.875 0 42.0155
    endloop
  endfacet
  facet normal 0.866025 -1.11022e-16 -0.5
    outer loop
      vertex -16.75 0 40.5
      vertex -16.75 3.9 40.5
      vertex -15.875 0 42.0155
    endloop
  endfacet
  facet normal 0.866025 1.11022e-16 0.5
    outer loop
      vertex 15.125 0 7.98446
      vertex 15.125 3.9 7.98446
      vertex 14.25 3.9 9.5
    endloop
  endfacet
  facet normal 0.866025 1.11022e-16 0.5
    outer loop
      vertex 14.25 0 9.5
      vertex 15.125 0 7.98446
      vertex 14.25 3.9 9.5
    endloop
  endfacet
  facet normal 0 2.22045e-16 1
    outer loop
      vertex 16.875 0 7.98446
      vertex 16.875 3.9 7.98446
      vertex 15.125 3.9 7.98446
    endloop
  endfacet
  facet normal 0 2.22045e-16 1
    outer loop
      vertex 15.125 0 7.98446
      vertex 16.875 0 7.98446
      vertex 15.125 3.9 7.98446
    endloop
  endfacet
  facet normal -0.866025 1.11022e-16 0.5
    outer loop
      vertex 17.75 3.9 9.5
      vertex 16.875 3.9 7.98446
      vertex 17.75 0 9.5
    endloop
  endfacet
  facet normal -0.866025 1.11022e-16 0.5
    outer loop
      vertex 17.75 0 9.5
      vertex 16.875 3.9 7.98446
      vertex 16.875 0 7.98446
    endloop
  endfacet
  facet normal -0.866025 -1.11022e-16 -0.5
    outer loop
      vertex 17.75 3.9 9.5
      vertex 17.75 0 9.5
      vertex 16.875 3.9 11.0155
    endloop
  endfacet
  facet normal -0.866025 -1.11022e-16 -0.5
    outer loop
      vertex 16.875 3.9 11.0155
      vertex 17.75 0 9.5
      vertex 16.875 0 11.0155
    endloop
  endfacet
  facet normal 0 -2.22045e-16 -1
    outer loop
      vertex 16.875 3.9 11.0155
      vertex 16.875 0 11.0155
      vertex 15.125 3.9 11.0155
    endloop
  endfacet
  facet normal 0 -2.22045e-16 -1
    outer loop
      vertex 15.125 3.9 11.0155
      vertex 16.875 0 11.0155
      vertex 15.125 0 11.0155
    endloop
  endfacet
  facet normal 0.866025 -1.11022e-16 -0.5
    outer loop
      vertex 14.25 3.9 9.5
      vertex 15.125 3.9 11.0155
      vertex 15.125 0 11.0155
    endloop
  endfacet
  facet normal 0.866025 -1.11022e-16 -0.5
    outer loop
      vertex 14.25 0 9.5
      vertex 14.25 3.9 9.5
      vertex 15.125 0 11.0155
    endloop
  endfacet
  facet normal 0.866025 1.11022e-16 0.5
    outer loop
      vertex 15.125 0 38.9845
      vertex 15.125 3.9 38.9845
      vertex 14.25 3.9 40.5
    endloop
  endfacet
  facet normal 0.866025 1.11022e-16 0.5
    outer loop
      vertex 14.25 0 40.5
      vertex 15.125 0 38.9845
      vertex 14.25 3.9 40.5
    endloop
  endfacet
  facet normal 0 2.22045e-16 1
    outer loop
      vertex 16.875 0 38.9845
      vertex 16.875 3.9 38.9845
      vertex 15.125 3.9 38.9845
    endloop
  endfacet
  facet normal 0 2.22045e-16 1
    outer loop
      vertex 15.125 0 38.9845
      vertex 16.875 0 38.9845
      vertex 15.125 3.9 38.9845
    endloop
  endfacet
  facet normal -0.866025 1.11022e-16 0.5
    outer loop
      vertex 17.75 3.9 40.5
      vertex 16.875 3.9 38.9845
      vertex 17.75 0 40.5
    endloop
  endfacet
  facet normal -0.866025 1.11022e-16 0.5
    outer loop
      vertex 17.75 0 40.5
      vertex 16.875 3.9 38.9845
      vertex 16.875 0 38.9845
    endloop
  endfacet
  facet normal -0.866025 -1.11022e-16 -0.5
    outer loop
      vertex 17.75 3.9 40.5
      vertex 17.75 0 40.5
      vertex 16.875 3.9 42.0155
    endloop
  endfacet
  facet normal -0.866025 -1.11022e-16 -0.5
    outer loop
      vertex 16.875 3.9 42.0155
      vertex 17.75 0 40.5
      vertex 16.875 0 42.0155
    endloop
  endfacet
  facet normal 0 -2.22045e-16 -1
    outer loop
      vertex 16.875 3.9 42.0155
      vertex 16.875 0 42.0155
      vertex 15.125 3.9 42.0155
    endloop
  endfacet
  facet normal 0 -2.22045e-16 -1
    outer loop
      vertex 15.125 3.9 42.0155
      vertex 16.875 0 42.0155
      vertex 15.125 0 42.0155
    endloop
  endfacet
  facet normal 0.866025 -1.11022e-16 -0.5
    outer loop
      vertex 14.25 3.9 40.5
      vertex 15.125 3.9 42.0155
      vertex 15.125 0 42.0155
    endloop
  endfacet
  facet normal 0.866025 -1.11022e-16 -0.5
    outer loop
      vertex 14.25 0 40.5
      vertex 14.25 3.9 40.5
      vertex 15.125 0 42.0155
    endloop
  endfacet
  facet normal 0 1 0
    outer loop
      vertex -16.75 3.9 40.5
      vertex -11 3.9 25
      vertex -22 3.9 52
    endloop
  endfacet
  facet normal 0 1 0
    outer loop
      vertex -22 3.9 52
      vertex -11 3.9 25
      vertex -10.7487 3.9 22.609
    endloop
  endfacet
  facet normal 0 1 0
    outer loop
      vertex -10.7487 3.9 22.609
      vertex -10.0058 3.9 20.3225
      vertex -22 3.9 52
    endloop
  endfacet
  facet normal 0 1 0
    outer loop
      vertex -10.0058 3.9 20.3225
      vertex -3.88377 3.9 0.957263
      vertex -22 3.9 52
    endloop
  endfacet
  facet normal 0 1 0
    outer loop
      vertex -3.05369 3.9 14.0628
      vertex 22 3.9 0
      vertex -5.25 3.9 15.0407
    endloop
  endfacet
  facet normal 0 1 0
    outer loop
      vertex -0.702077 3.9 13.563
      vertex 22 3.9 0
      vertex -3.05369 3.9 14.0628
    endloop
  endfacet
  facet normal 0 1 0
    outer loop
      vertex 1.70208 3.9 13.563
      vertex 22 3.9 0
      vertex -0.702077 3.9 13.563
    endloop
  endfacet
  facet normal 0 1 0
    outer loop
      vertex 4.05369 3.9 14.0628
      vertex 22 3.9 0
      vertex 1.70208 3.9 13.563
    endloop
  endfacet
  facet normal 0 1 0
    outer loop
      vertex 6.25 3.9 15.0407
      vertex 22 3.9 0
      vertex 4.05369 3.9 14.0628
    endloop
  endfacet
  facet normal 0 1 0
    outer loop
      vertex 15.125 3.9 7.98446
      vertex 22 3.9 0
      vertex 6.25 3.9 15.0407
    endloop
  endfacet
  facet normal 0 1 0
    outer loop
      vertex 17.75 3.9 40.5
      vertex 12 3.9 25
      vertex 16.875 3.9 38.9845
    endloop
  endfacet
  facet normal 0 1 0
    outer loop
      vertex 11.7487 3.9 22.609
      vertex 22 3.9 52
      vertex 11.0058 3.9 20.3225
    endloop
  endfacet
  facet normal 0 1 0
    outer loop
      vertex 15.125 3.9 42.0155
      vertex 12 3.9 52
      vertex 22 3.9 52
    endloop
  endfacet
  facet normal 0 1 0
    outer loop
      vertex 17.75 3.9 40.5
      vertex 22 3.9 52
      vertex 11.7487 3.9 22.609
    endloop
  endfacet
  facet normal 0 1 0
    outer loop
      vertex 17.75 3.9 9.5
      vertex 22 3.9 52
      vertex 22 3.9 0
    endloop
  endfacet
  facet normal 0 1 0
    outer loop
      vertex 17.75 3.9 9.5
      vertex 22 3.9 0
      vertex 16.875 3.9 7.98446
    endloop
  endfacet
  facet normal 0 1 0
    outer loop
      vertex 4 3.9 2.44249e-16
      vertex 22 3.9 0
      vertex 4 3.9 0
    endloop
  endfacet
  facet normal 0 1 0
    outer loop
      vertex 3.54182 3.9 1.85889
      vertex 22 3.9 0
      vertex 4 3.9 2.44249e-16
    endloop
  endfacet
  facet normal 0 1 0
    outer loop
      vertex -5.25 3.9 15.0407
      vertex 22 3.9 0
      vertex 3.54182 3.9 1.85889
    endloop
  endfacet
  facet normal 0 1 0
    outer loop
      vertex -5.25 3.9 15.0407
      vertex 3.54182 3.9 1.85889
      vertex 2.27226 3.9 3.29194
    endloop
  endfacet
  facet normal 0 1 0
    outer loop
      vertex -15.875 3.9 11.0155
      vertex -22 3.9 52
      vertex -14.125 3.9 11.0155
    endloop
  endfacet
  facet normal 0 1 0
    outer loop
      vertex -8.80369 3.9 18.2405
      vertex 0.482147 3.9 3.97083
      vertex -1.41842 3.9 3.74006
    endloop
  endfacet
  facet normal 0 1 0
    outer loop
      vertex -8.80369 3.9 18.2405
      vertex -1.41842 3.9 3.74006
      vertex -10.0058 3.9 20.3225
    endloop
  endfacet
  facet normal 0 1 0
    outer loop
      vertex -1.41842 3.9 3.74006
      vertex -2.99404 3.9 2.65249
      vertex -10.0058 3.9 20.3225
    endloop
  endfacet
  facet normal 0 1 0
    outer loop
      vertex -2.99404 3.9 2.65249
      vertex -3.88377 3.9 0.957263
      vertex -10.0058 3.9 20.3225
    endloop
  endfacet
  facet normal 0 1 0
    outer loop
      vertex -3.88377 3.9 0.957263
      vertex -3.88377 3.9 0
      vertex -22 3.9 52
    endloop
  endfacet
  facet normal 0 1 0
    outer loop
      vertex -15.875 3.9 7.98446
      vertex -3.88377 3.9 0
      vertex -22 3.9 0
    endloop
  endfacet
  facet normal 0 1 0
    outer loop
      vertex -14.125 3.9 7.98446
      vertex -3.88377 3.9 0
      vertex -15.875 3.9 7.98446
    endloop
  endfacet
  facet normal 0 1 0
    outer loop
      vertex -16.75 3.9 9.5
      vertex -15.875 3.9 7.98446
      vertex -22 3.9 0
    endloop
  endfacet
  facet normal 0 1 0
    outer loop
      vertex -13.25 3.9 9.5
      vertex -3.88377 3.9 0
      vertex -14.125 3.9 7.98446
    endloop
  endfacet
  facet normal 0 1 0
    outer loop
      vertex -22 3.9 52
      vertex -3.88377 3.9 0
      vertex -13.25 3.9 9.5
    endloop
  endfacet
  facet normal 0 1 0
    outer loop
      vertex -22 3.9 52
      vertex -13.25 3.9 9.5
      vertex -14.125 3.9 11.0155
    endloop
  endfacet
  facet normal 0 1 0
    outer loop
      vertex -16.75 3.9 9.5
      vertex -22 3.9 52
      vertex -15.875 3.9 11.0155
    endloop
  endfacet
  facet normal 0 1 0
    outer loop
      vertex -14.125 3.9 42.0155
      vertex -11 3.9 52
      vertex -13.25 3.9 40.5
    endloop
  endfacet
  facet normal 0 1 0
    outer loop
      vertex -22 3.9 52
      vertex -16.75 3.9 9.5
      vertex -22 3.9 0
    endloop
  endfacet
  facet normal 0 1 0
    outer loop
      vertex -14.125 3.9 38.9845
      vertex -11 3.9 25
      vertex -15.875 3.9 38.9845
    endloop
  endfacet
  facet normal 0 1 0
    outer loop
      vertex -13.25 3.9 40.5
      vertex -11 3.9 25
      vertex -14.125 3.9 38.9845
    endloop
  endfacet
  facet normal 0 1 0
    outer loop
      vertex -11 3.9 52
      vertex -11 3.9 25
      vertex -13.25 3.9 40.5
    endloop
  endfacet
  facet normal 0 1 0
    outer loop
      vertex -15.875 3.9 42.0155
      vertex -11 3.9 52
      vertex -14.125 3.9 42.0155
    endloop
  endfacet
  facet normal 0 1 0
    outer loop
      vertex -16.75 3.9 40.5
      vertex -22 3.9 52
      vertex -15.875 3.9 42.0155
    endloop
  endfacet
  facet normal 0 1 0
    outer loop
      vertex -11 3.9 52
      vertex -15.875 3.9 42.0155
      vertex -22 3.9 52
    endloop
  endfacet
  facet normal 0 1 0
    outer loop
      vertex -15.875 3.9 38.9845
      vertex -11 3.9 25
      vertex -16.75 3.9 40.5
    endloop
  endfacet
  facet normal 0 1 0
    outer loop
      vertex 15.125 3.9 7.98446
      vertex 8.195 3.9 16.4538
      vertex 14.25 3.9 9.5
    endloop
  endfacet
  facet normal 0 1 0
    outer loop
      vertex 16.875 3.9 7.98446
      vertex 22 3.9 0
      vertex 15.125 3.9 7.98446
    endloop
  endfacet
  facet normal 0 1 0
    outer loop
      vertex 8.195 3.9 16.4538
      vertex 15.125 3.9 7.98446
      vertex 6.25 3.9 15.0407
    endloop
  endfacet
  facet normal 0 1 0
    outer loop
      vertex 16.875 3.9 11.0155
      vertex 22 3.9 52
      vertex 17.75 3.9 9.5
    endloop
  endfacet
  facet normal 0 1 0
    outer loop
      vertex 15.125 3.9 11.0155
      vertex 11.0058 3.9 20.3225
      vertex 16.875 3.9 11.0155
    endloop
  endfacet
  facet normal 0 1 0
    outer loop
      vertex 11.0058 3.9 20.3225
      vertex 22 3.9 52
      vertex 16.875 3.9 11.0155
    endloop
  endfacet
  facet normal 0 1 0
    outer loop
      vertex 14.25 3.9 9.5
      vertex 9.80369 3.9 18.2405
      vertex 15.125 3.9 11.0155
    endloop
  endfacet
  facet normal 0 1 0
    outer loop
      vertex 11.0058 3.9 20.3225
      vertex 15.125 3.9 11.0155
      vertex 9.80369 3.9 18.2405
    endloop
  endfacet
  facet normal 0 1 0
    outer loop
      vertex 9.80369 3.9 18.2405
      vertex 14.25 3.9 9.5
      vertex 8.195 3.9 16.4538
    endloop
  endfacet
  facet normal 0 1 0
    outer loop
      vertex 12 3.9 25
      vertex 15.125 3.9 38.9845
      vertex 16.875 3.9 38.9845
    endloop
  endfacet
  facet normal 0 1 0
    outer loop
      vertex 16.875 3.9 42.0155
      vertex 22 3.9 52
      vertex 17.75 3.9 40.5
    endloop
  endfacet
  facet normal 0 1 0
    outer loop
      vertex 12 3.9 25
      vertex 17.75 3.9 40.5
      vertex 11.7487 3.9 22.609
    endloop
  endfacet
  facet normal 0 1 0
    outer loop
      vertex 15.125 3.9 42.0155
      vertex 22 3.9 52
      vertex 16.875 3.9 42.0155
    endloop
  endfacet
  facet normal 0 1 0
    outer loop
      vertex 14.25 3.9 40.5
      vertex 12 3.9 52
      vertex 15.125 3.9 42.0155
    endloop
  endfacet
  facet normal 0 1 0
    outer loop
      vertex 12 3.9 25
      vertex 12 3.9 52
      vertex 14.25 3.9 40.5
    endloop
  endfacet
  facet normal 0 1 0
    outer loop
      vertex 12 3.9 25
      vertex 14.25 3.9 40.5
      vertex 15.125 3.9 38.9845
    endloop
  endfacet
  facet normal 0 1 0
    outer loop
      vertex 0.482147 3.9 3.97083
      vertex -8.80369 3.9 18.2405
      vertex -7.195 3.9 16.4538
    endloop
  endfacet
  facet normal 0 1 0
    outer loop
      vertex 0.482147 3.9 3.97083
      vertex -7.195 3.9 16.4538
      vertex -5.25 3.9 15.0407
    endloop
  endfacet
  facet normal 0 1 0
    outer loop
      vertex 0.482147 3.9 3.97083
      vertex -5.25 3.9 15.0407
      vertex 2.27226 3.9 3.29194
    endloop
  endfacet
  facet normal 1 0 0
    outer loop
      vertex -22 3.9 52
      vertex -22 3.9 0
      vertex -22 21.0877 0
    endloop
  endfacet
  facet normal 1 0 0
    outer loop
      vertex -22 22.3475 2.99404
      vertex -22 3.9 52
      vertex -22 21.2599 1.41842
    endloop
  endfacet
  facet normal 1 0 0
    outer loop
      vertex -22 21.2599 1.41842
      vertex -22 3.9 52
      vertex -22 21.0877 0
    endloop
  endfacet
  facet normal 1 0 0
    outer loop
      vertex -22 24.0427 3.88377
      vertex -22 3.9 52
      vertex -22 22.3475 2.99404
    endloop
  endfacet
  facet normal 1 0 0
    outer loop
      vertex -22 25.9573 3.88377
      vertex -22 3.9 52
      vertex -22 24.0427 3.88377
    endloop
  endfacet
  facet normal 1 0 0
    outer loop
      vertex -22 27.6525 2.99404
      vertex -22 3.9 52
      vertex -22 25.9573 3.88377
    endloop
  endfacet
  facet normal 1 0 0
    outer loop
      vertex -22 28.7401 1.41842
      vertex -22 3.9 52
      vertex -22 27.6525 2.99404
    endloop
  endfacet
  facet normal 1 0 0
    outer loop
      vertex -22 51.9 0
      vertex -22 3.9 52
      vertex -22 28.7401 1.41842
    endloop
  endfacet
  facet normal 1 0 0
    outer loop
      vertex -22 51.9 0
      vertex -22 28.7401 1.41842
      vertex -22 28.9123 0
    endloop
  endfacet
  facet normal 1 0 0
    outer loop
      vertex -22 51.9 4.1
      vertex -22 3.9 52
      vertex -22 51.9 0
    endloop
  endfacet
  facet normal 1 0 0
    outer loop
      vertex -22 4 52
      vertex -22 3.9 52
      vertex -22 51.9 4.1
    endloop
  endfacet
  facet normal 2.67644e-17 0.992709 -0.120536
    outer loop
      vertex -22 21.2599 1.41842
      vertex -22 21.0877 0
      vertex -26 21.2599 1.41842
    endloop
  endfacet
  facet normal 2.67644e-17 0.992709 -0.120536
    outer loop
      vertex -26 21.2599 1.41842
      vertex -22 21.0877 0
      vertex -26 21.0877 0
    endloop
  endfacet
  facet normal 1 0 0
    outer loop
      vertex -32.5842 8.94055 0
      vertex -32.5842 8.94055 4
      vertex -32.5842 7.05944 4
    endloop
  endfacet
  facet normal 1 0 0
    outer loop
      vertex -32.5842 7.05944 0
      vertex -32.5842 8.94055 0
      vertex -32.5842 7.05944 4
    endloop
  endfacet
  facet normal 0.766044 -0.642788 0
    outer loop
      vertex -31.375 10.3816 0
      vertex -31.375 10.3816 4
      vertex -32.5842 8.94055 4
    endloop
  endfacet
  facet normal 0.766044 -0.642788 0
    outer loop
      vertex -32.5842 8.94055 0
      vertex -31.375 10.3816 0
      vertex -32.5842 8.94055 4
    endloop
  endfacet
  facet normal 0.173648 -0.984808 0
    outer loop
      vertex -29.5225 10.7082 0
      vertex -29.5225 10.7082 4
      vertex -31.375 10.3816 4
    endloop
  endfacet
  facet normal 0.173648 -0.984808 0
    outer loop
      vertex -31.375 10.3816 0
      vertex -29.5225 10.7082 0
      vertex -31.375 10.3816 4
    endloop
  endfacet
  facet normal -0.5 -0.866026 0
    outer loop
      vertex -27.8934 9.76767 0
      vertex -27.8934 9.76767 4
      vertex -29.5225 10.7082 4
    endloop
  endfacet
  facet normal -0.5 -0.866026 0
    outer loop
      vertex -29.5225 10.7082 0
      vertex -27.8934 9.76767 0
      vertex -29.5225 10.7082 4
    endloop
  endfacet
  facet normal -0.939693 -0.34202 0
    outer loop
      vertex -27.25 8 4
      vertex -27.8934 9.76767 4
      vertex -27.25 8 0
    endloop
  endfacet
  facet normal -0.939693 -0.34202 0
    outer loop
      vertex -27.25 8 0
      vertex -27.8934 9.76767 4
      vertex -27.8934 9.76767 0
    endloop
  endfacet
  facet normal -0.939693 0.34202 0
    outer loop
      vertex -27.25 8 4
      vertex -27.25 8 0
      vertex -27.8934 6.23233 4
    endloop
  endfacet
  facet normal -0.939693 0.34202 0
    outer loop
      vertex -27.8934 6.23233 4
      vertex -27.25 8 0
      vertex -27.8934 6.23233 0
    endloop
  endfacet
  facet normal -0.5 0.866026 0
    outer loop
      vertex -27.8934 6.23233 4
      vertex -27.8934 6.23233 0
      vertex -29.5225 5.29178 4
    endloop
  endfacet
  facet normal -0.5 0.866026 0
    outer loop
      vertex -29.5225 5.29178 4
      vertex -27.8934 6.23233 0
      vertex -29.5225 5.29178 0
    endloop
  endfacet
  facet normal 0.173648 0.984808 0
    outer loop
      vertex -29.5225 5.29178 4
      vertex -29.5225 5.29178 0
      vertex -31.375 5.61843 4
    endloop
  endfacet
  facet normal 0.173648 0.984808 0
    outer loop
      vertex -31.375 5.61843 4
      vertex -29.5225 5.29178 0
      vertex -31.375 5.61843 0
    endloop
  endfacet
  facet normal 0.766044 0.642788 0
    outer loop
      vertex -32.5842 7.05944 4
      vertex -31.375 5.61843 4
      vertex -31.375 5.61843 0
    endloop
  endfacet
  facet normal 0.766044 0.642788 0
    outer loop
      vertex -32.5842 7.05944 0
      vertex -32.5842 7.05944 4
      vertex -31.375 5.61843 0
    endloop
  endfacet
  facet normal 1.26136e-16 0.822984 -0.568065
    outer loop
      vertex -22 22.3475 2.99404
      vertex -22 21.2599 1.41842
      vertex -26 22.3475 2.99404
    endloop
  endfacet
  facet normal 1.26136e-16 0.822984 -0.568065
    outer loop
      vertex -26 22.3475 2.99404
      vertex -22 21.2599 1.41842
      vertex -26 21.2599 1.41842
    endloop
  endfacet
  facet normal 1.96611e-16 0.464723 -0.885456
    outer loop
      vertex -22 24.0427 3.88377
      vertex -22 22.3475 2.99404
      vertex -26 24.0427 3.88377
    endloop
  endfacet
  facet normal 1.96611e-16 0.464723 -0.885456
    outer loop
      vertex -26 24.0427 3.88377
      vertex -22 22.3475 2.99404
      vertex -26 22.3475 2.99404
    endloop
  endfacet
  facet normal 2.22045e-16 0 -1
    outer loop
      vertex -22 25.9573 3.88377
      vertex -22 24.0427 3.88377
      vertex -26 25.9573 3.88377
    endloop
  endfacet
  facet normal 2.22045e-16 0 -1
    outer loop
      vertex -26 25.9573 3.88377
      vertex -22 24.0427 3.88377
      vertex -26 24.0427 3.88377
    endloop
  endfacet
  facet normal 1.96611e-16 -0.464723 -0.885456
    outer loop
      vertex -22 27.6525 2.99404
      vertex -22 25.9573 3.88377
      vertex -26 27.6525 2.99404
    endloop
  endfacet
  facet normal 1.96611e-16 -0.464723 -0.885456
    outer loop
      vertex -26 27.6525 2.99404
      vertex -22 25.9573 3.88377
      vertex -26 25.9573 3.88377
    endloop
  endfacet
  facet normal 1.26136e-16 -0.822984 -0.568065
    outer loop
      vertex -26 28.7401 1.41842
      vertex -22 28.7401 1.41842
      vertex -22 27.6525 2.99404
    endloop
  endfacet
  facet normal 1.26136e-16 -0.822984 -0.568065
    outer loop
      vertex -26 27.6525 2.99404
      vertex -26 28.7401 1.41842
      vertex -22 27.6525 2.99404
    endloop
  endfacet
  facet normal 2.67644e-17 -0.992709 -0.120536
    outer loop
      vertex -26 28.9123 0
      vertex -22 28.9123 0
      vertex -22 28.7401 1.41842
    endloop
  endfacet
  facet normal 2.67644e-17 -0.992709 -0.120536
    outer loop
      vertex -26 28.7401 1.41842
      vertex -26 28.9123 0
      vertex -22 28.7401 1.41842
    endloop
  endfacet
  facet normal 0 0 -1
    outer loop
      vertex -27.8934 45.7677 0
      vertex -34 52 0
      vertex -22 52 0
    endloop
  endfacet
  facet normal 0 0 -1
    outer loop
      vertex -26 36 0
      vertex -22 52 0
      vertex -22 51.9 0
    endloop
  endfacet
  facet normal 0 0 -1
    outer loop
      vertex -26 36 0
      vertex -22 51.9 0
      vertex -22 28.9123 0
    endloop
  endfacet
  facet normal 0 0 -1
    outer loop
      vertex -32.5842 44.9406 0
      vertex -34 52 0
      vertex -31.375 46.3816 0
    endloop
  endfacet
  facet normal 0 0 -1
    outer loop
      vertex -34 36 0
      vertex -34 52 0
      vertex -32.5842 44.9406 0
    endloop
  endfacet
  facet normal 0 0 -1
    outer loop
      vertex -34 36 0
      vertex -32.5842 44.9406 0
      vertex -32.5842 43.0594 0
    endloop
  endfacet
  facet normal 0 0 -1
    outer loop
      vertex -34 36 0
      vertex -32.5842 43.0594 0
      vertex -31.375 41.6184 0
    endloop
  endfacet
  facet normal 0 0 -1
    outer loop
      vertex -34 36 0
      vertex -31.375 41.6184 0
      vertex -26 36 0
    endloop
  endfacet
  facet normal 0 0 -1
    outer loop
      vertex -29.5225 41.2918 0
      vertex -26 36 0
      vertex -31.375 41.6184 0
    endloop
  endfacet
  facet normal 0 0 -1
    outer loop
      vertex -27.8934 42.2323 0
      vertex -26 36 0
      vertex -29.5225 41.2918 0
    endloop
  endfacet
  facet normal 0 0 -1
    outer loop
      vertex -31.375 46.3816 0
      vertex -34 52 0
      vertex -29.5225 46.7082 0
    endloop
  endfacet
  facet normal 0 0 -1
    outer loop
      vertex -26 36 0
      vertex -27.8934 42.2323 0
      vertex -22 52 0
    endloop
  endfacet
  facet normal 0 0 -1
    outer loop
      vertex -27.8934 42.2323 0
      vertex -27.25 44 0
      vertex -22 52 0
    endloop
  endfacet
  facet normal 0 0 -1
    outer loop
      vertex -29.5225 46.7082 0
      vertex -34 52 0
      vertex -27.8934 45.7677 0
    endloop
  endfacet
  facet normal 0 0 -1
    outer loop
      vertex -27.25 44 0
      vertex -27.8934 45.7677 0
      vertex -22 52 0
    endloop
  endfacet
  facet normal 0 0 -1
    outer loop
      vertex -26 36 0
      vertex -22 28.9123 0
      vertex -26 28.9123 0
    endloop
  endfacet
  facet normal 0 -1 0
    outer loop
      vertex -34 36 4
      vertex -34 36 0
      vertex -26 36 0
    endloop
  endfacet
  facet normal 0 -1 0
    outer loop
      vertex -26 36 4
      vertex -34 36 4
      vertex -26 36 0
    endloop
  endfacet
  facet normal 0 0 1
    outer loop
      vertex -31.375 41.6184 4
      vertex -34 36 4
      vertex -26 36 4
    endloop
  endfacet
  facet normal 0 0 1
    outer loop
      vertex -34 52 4
      vertex -34 36 4
      vertex -32.5842 43.0594 4
    endloop
  endfacet
  facet normal 0 0 1
    outer loop
      vertex -34 52 4
      vertex -32.5842 43.0594 4
      vertex -32.5842 44.9406 4
    endloop
  endfacet
  facet normal 0 0 1
    outer loop
      vertex -27.25 44 4
      vertex -27.8934 42.2323 4
      vertex -26 36 4
    endloop
  endfacet
  facet normal 0 0 1
    outer loop
      vertex -34 52 4
      vertex -32.5842 44.9406 4
      vertex -31.375 46.3816 4
    endloop
  endfacet
  facet normal 0 0 1
    outer loop
      vertex -29.5225 41.2918 4
      vertex -31.375 41.6184 4
      vertex -26 36 4
    endloop
  endfacet
  facet normal 0 0 1
    outer loop
      vertex -26 52 4
      vertex -34 52 4
      vertex -29.5225 46.7082 4
    endloop
  endfacet
  facet normal 0 0 1
    outer loop
      vertex -26 52 4
      vertex -29.5225 46.7082 4
      vertex -27.8934 45.7677 4
    endloop
  endfacet
  facet normal 0 0 1
    outer loop
      vertex -26 52 4
      vertex -27.25 44 4
      vertex -26 36 4
    endloop
  endfacet
  facet normal 0 0 1
    outer loop
      vertex -26 52 4
      vertex -27.8934 45.7677 4
      vertex -27.25 44 4
    endloop
  endfacet
  facet normal 0 0 1
    outer loop
      vertex -32.5842 43.0594 4
      vertex -34 36 4
      vertex -31.375 41.6184 4
    endloop
  endfacet
  facet normal 0 0 1
    outer loop
      vertex -31.375 46.3816 4
      vertex -29.5225 46.7082 4
      vertex -34 52 4
    endloop
  endfacet
  facet normal 0 0 1
    outer loop
      vertex -27.8934 42.2323 4
      vertex -29.5225 41.2918 4
      vertex -26 36 4
    endloop
  endfacet
  facet normal 0 1 0
    outer loop
      vertex -34 52 0
      vertex -34 52 4
      vertex -22 52 0
    endloop
  endfacet
  facet normal 0 1 0
    outer loop
      vertex -22 52 0
      vertex -34 52 4
      vertex -26 52 4
    endloop
  endfacet
  facet normal 0 1 0
    outer loop
      vertex -22 52 0
      vertex -26 52 4
      vertex -22 52 4
    endloop
  endfacet
  facet normal 0 0.707107 0.707107
    outer loop
      vertex -22 51.9 4.1
      vertex -22 52 4
      vertex -26 52 4
    endloop
  endfacet
  facet normal 0 0.707107 0.707107
    outer loop
      vertex -22 4 52
      vertex -22 51.9 4.1
      vertex -26 52 4
    endloop
  endfacet
  facet normal 0 0.707107 0.707107
    outer loop
      vertex -26 4 52
      vertex -22 4 52
      vertex -26 52 4
    endloop
  endfacet
  facet normal -1 0 0
    outer loop
      vertex 22 3.9 0
      vertex 22 3.9 52
      vertex 22 21.0877 0
    endloop
  endfacet
  facet normal -1 0 0
    outer loop
      vertex 22 21.0877 0
      vertex 22 3.9 52
      vertex 22 4 52
    endloop
  endfacet
  facet normal -1 0 0
    outer loop
      vertex 22 28.7401 1.41842
      vertex 22 4 52
      vertex 22 51.9 4.1
    endloop
  endfacet
  facet normal -1 0 0
    outer loop
      vertex 22 28.9123 0
      vertex 22 51.9 4.1
      vertex 22 51.9 0
    endloop
  endfacet
  facet normal -1 0 0
    outer loop
      vertex 22 27.6525 2.99404
      vertex 22 4 52
      vertex 22 28.7401 1.41842
    endloop
  endfacet
  facet normal -1 0 0
    outer loop
      vertex 22 25.9573 3.88377
      vertex 22 4 52
      vertex 22 27.6525 2.99404
    endloop
  endfacet
  facet normal -1 0 0
    outer loop
      vertex 22 24.0427 3.88377
      vertex 22 4 52
      vertex 22 25.9573 3.88377
    endloop
  endfacet
  facet normal -1 0 0
    outer loop
      vertex 22 22.3475 2.99404
      vertex 22 4 52
      vertex 22 24.0427 3.88377
    endloop
  endfacet
  facet normal -1 0 0
    outer loop
      vertex 22 21.2599 1.41842
      vertex 22 4 52
      vertex 22 22.3475 2.99404
    endloop
  endfacet
  facet normal -1 0 0
    outer loop
      vertex 22 21.0877 0
      vertex 22 4 52
      vertex 22 21.2599 1.41842
    endloop
  endfacet
  facet normal -1 0 0
    outer loop
      vertex 22 28.7401 1.41842
      vertex 22 51.9 4.1
      vertex 22 28.9123 0
    endloop
  endfacet
  facet normal 0 0.707107 0.707107
    outer loop
      vertex 26 4 52
      vertex 26 52 4
      vertex 22 52 4
    endloop
  endfacet
  facet normal 0 0.707107 0.707107
    outer loop
      vertex 22 4 52
      vertex 26 4 52
      vertex 22 51.9 4.1
    endloop
  endfacet
  facet normal 0 0.707107 0.707107
    outer loop
      vertex 22 51.9 4.1
      vertex 26 4 52
      vertex 22 52 4
    endloop
  endfacet
  facet normal 0 1 0
    outer loop
      vertex 22 52 0
      vertex 22 52 4
      vertex 34 52 0
    endloop
  endfacet
  facet normal 0 1 0
    outer loop
      vertex 34 52 0
      vertex 22 52 4
      vertex 26 52 4
    endloop
  endfacet
  facet normal 0 1 0
    outer loop
      vertex 34 52 4
      vertex 34 52 0
      vertex 26 52 4
    endloop
  endfacet
  facet normal 0 0 1
    outer loop
      vertex 28.625 41.6184 4
      vertex 26 36 4
      vertex 34 36 4
    endloop
  endfacet
  facet normal 0 0 1
    outer loop
      vertex 26 52 4
      vertex 26 36 4
      vertex 27.4158 43.0594 4
    endloop
  endfacet
  facet normal 0 0 1
    outer loop
      vertex 26 52 4
      vertex 27.4158 43.0594 4
      vertex 27.4158 44.9406 4
    endloop
  endfacet
  facet normal 0 0 1
    outer loop
      vertex 32.75 44 4
      vertex 32.1066 42.2323 4
      vertex 34 36 4
    endloop
  endfacet
  facet normal 0 0 1
    outer loop
      vertex 26 52 4
      vertex 27.4158 44.9406 4
      vertex 28.625 46.3816 4
    endloop
  endfacet
  facet normal 0 0 1
    outer loop
      vertex 30.4775 41.2918 4
      vertex 28.625 41.6184 4
      vertex 34 36 4
    endloop
  endfacet
  facet normal 0 0 1
    outer loop
      vertex 34 52 4
      vertex 26 52 4
      vertex 30.4775 46.7082 4
    endloop
  endfacet
  facet normal 0 0 1
    outer loop
      vertex 34 52 4
      vertex 30.4775 46.7082 4
      vertex 32.1066 45.7677 4
    endloop
  endfacet
  facet normal 0 0 1
    outer loop
      vertex 34 52 4
      vertex 32.75 44 4
      vertex 34 36 4
    endloop
  endfacet
  facet normal 0 0 1
    outer loop
      vertex 34 52 4
      vertex 32.1066 45.7677 4
      vertex 32.75 44 4
    endloop
  endfacet
  facet normal 0 0 1
    outer loop
      vertex 27.4158 43.0594 4
      vertex 26 36 4
      vertex 28.625 41.6184 4
    endloop
  endfacet
  facet normal 0 0 1
    outer loop
      vertex 28.625 46.3816 4
      vertex 30.4775 46.7082 4
      vertex 26 52 4
    endloop
  endfacet
  facet normal 0 0 1
    outer loop
      vertex 32.1066 42.2323 4
      vertex 30.4775 41.2918 4
      vertex 34 36 4
    endloop
  endfacet
  facet normal 0 -1 0
    outer loop
      vertex 26 36 4
      vertex 26 36 0
      vertex 34 36 0
    endloop
  endfacet
  facet normal 0 -1 0
    outer loop
      vertex 34 36 4
      vertex 26 36 4
      vertex 34 36 0
    endloop
  endfacet
  facet normal 0 0 -1
    outer loop
      vertex 22 28.9123 0
      vertex 22 51.9 0
      vertex 26 28.9123 0
    endloop
  endfacet
  facet normal 0 0 -1
    outer loop
      vertex 26 28.9123 0
      vertex 22 51.9 0
      vertex 22 52 0
    endloop
  endfacet
  facet normal 0 0 -1
    outer loop
      vertex 28.625 46.3816 0
      vertex 22 52 0
      vertex 34 52 0
    endloop
  endfacet
  facet normal 0 0 -1
    outer loop
      vertex 32.75 44 0
      vertex 34 52 0
      vertex 34 36 0
    endloop
  endfacet
  facet normal 0 0 -1
    outer loop
      vertex 26 28.9123 0
      vertex 22 52 0
      vertex 26 36 0
    endloop
  endfacet
  facet normal 0 0 -1
    outer loop
      vertex 30.4775 41.2918 0
      vertex 26 36 0
      vertex 28.625 41.6184 0
    endloop
  endfacet
  facet normal 0 0 -1
    outer loop
      vertex 26 36 0
      vertex 22 52 0
      vertex 27.4158 44.9406 0
    endloop
  endfacet
  facet normal 0 0 -1
    outer loop
      vertex 26 36 0
      vertex 27.4158 44.9406 0
      vertex 27.4158 43.0594 0
    endloop
  endfacet
  facet normal 0 0 -1
    outer loop
      vertex 26 36 0
      vertex 27.4158 43.0594 0
      vertex 28.625 41.6184 0
    endloop
  endfacet
  facet normal 0 0 -1
    outer loop
      vertex 30.4775 46.7082 0
      vertex 34 52 0
      vertex 32.1066 45.7677 0
    endloop
  endfacet
  facet normal 0 0 -1
    outer loop
      vertex 30.4775 41.2918 0
      vertex 32.1066 42.2323 0
      vertex 34 36 0
    endloop
  endfacet
  facet normal 0 0 -1
    outer loop
      vertex 32.1066 42.2323 0
      vertex 32.75 44 0
      vertex 34 36 0
    endloop
  endfacet
  facet normal 0 0 -1
    outer loop
      vertex 28.625 46.3816 0
      vertex 34 52 0
      vertex 30.4775 46.7082 0
    endloop
  endfacet
  facet normal 0 0 -1
    outer loop
      vertex 27.4158 44.9406 0
      vertex 22 52 0
      vertex 28.625 46.3816 0
    endloop
  endfacet
  facet normal 0 0 -1
    outer loop
      vertex 32.1066 45.7677 0
      vertex 34 52 0
      vertex 32.75 44 0
    endloop
  endfacet
  facet normal 0 0 -1
    outer loop
      vertex 26 36 0
      vertex 30.4775 41.2918 0
      vertex 34 36 0
    endloop
  endfacet
  facet normal 2.67644e-17 -0.992709 -0.120536
    outer loop
      vertex 22 28.9123 0
      vertex 26 28.9123 0
      vertex 26 28.7401 1.41842
    endloop
  endfacet
  facet normal 2.67644e-17 -0.992709 -0.120536
    outer loop
      vertex 22 28.7401 1.41842
      vertex 22 28.9123 0
      vertex 26 28.7401 1.41842
    endloop
  endfacet
  facet normal 1.26136e-16 -0.822984 -0.568065
    outer loop
      vertex 22 28.7401 1.41842
      vertex 26 28.7401 1.41842
      vertex 26 27.6525 2.99404
    endloop
  endfacet
  facet normal 1.26136e-16 -0.822984 -0.568065
    outer loop
      vertex 22 27.6525 2.99404
      vertex 22 28.7401 1.41842
      vertex 26 27.6525 2.99404
    endloop
  endfacet
  facet normal 1.96611e-16 -0.464723 -0.885456
    outer loop
      vertex 26 27.6525 2.99404
      vertex 26 25.9573 3.88377
      vertex 22 27.6525 2.99404
    endloop
  endfacet
  facet normal 1.96611e-16 -0.464723 -0.885456
    outer loop
      vertex 22 27.6525 2.99404
      vertex 26 25.9573 3.88377
      vertex 22 25.9573 3.88377
    endloop
  endfacet
  facet normal 2.22045e-16 0 -1
    outer loop
      vertex 26 25.9573 3.88377
      vertex 26 24.0427 3.88377
      vertex 22 25.9573 3.88377
    endloop
  endfacet
  facet normal 2.22045e-16 0 -1
    outer loop
      vertex 22 25.9573 3.88377
      vertex 26 24.0427 3.88377
      vertex 22 24.0427 3.88377
    endloop
  endfacet
  facet normal 1.96611e-16 0.464723 -0.885456
    outer loop
      vertex 26 24.0427 3.88377
      vertex 26 22.3475 2.99404
      vertex 22 24.0427 3.88377
    endloop
  endfacet
  facet normal 1.96611e-16 0.464723 -0.885456
    outer loop
      vertex 22 24.0427 3.88377
      vertex 26 22.3475 2.99404
      vertex 22 22.3475 2.99404
    endloop
  endfacet
  facet normal 1.26136e-16 0.822984 -0.568065
    outer loop
      vertex 26 22.3475 2.99404
      vertex 26 21.2599 1.41842
      vertex 22 22.3475 2.99404
    endloop
  endfacet
  facet normal 1.26136e-16 0.822984 -0.568065
    outer loop
      vertex 22 22.3475 2.99404
      vertex 26 21.2599 1.41842
      vertex 22 21.2599 1.41842
    endloop
  endfacet
  facet normal 2.67644e-17 0.992709 -0.120536
    outer loop
      vertex 26 21.2599 1.41842
      vertex 26 21.0877 0
      vertex 22 21.2599 1.41842
    endloop
  endfacet
  facet normal 2.67644e-17 0.992709 -0.120536
    outer loop
      vertex 22 21.2599 1.41842
      vertex 26 21.0877 0
      vertex 22 21.0877 0
    endloop
  endfacet
  facet normal 0 1 0
    outer loop
      vertex 26 16 0
      vertex 26 16 4
      vertex 34 16 0
    endloop
  endfacet
  facet normal 0 1 0
    outer loop
      vertex 34 16 0
      vertex 26 16 4
      vertex 34 16 4
    endloop
  endfacet
  facet normal 1 0 0
    outer loop
      vertex 27.4158 8.94055 0
      vertex 27.4158 8.94055 4
      vertex 27.4158 7.05944 4
    endloop
  endfacet
  facet normal 1 0 0
    outer loop
      vertex 27.4158 7.05944 0
      vertex 27.4158 8.94055 0
      vertex 27.4158 7.05944 4
    endloop
  endfacet
  facet normal 0.766044 0.642788 0
    outer loop
      vertex 27.4158 7.05944 4
      vertex 28.625 5.61843 4
      vertex 28.625 5.61843 0
    endloop
  endfacet
  facet normal 0.766044 0.642788 0
    outer loop
      vertex 27.4158 7.05944 0
      vertex 27.4158 7.05944 4
      vertex 28.625 5.61843 0
    endloop
  endfacet
  facet normal 0.173648 0.984808 0
    outer loop
      vertex 30.4775 5.29178 4
      vertex 30.4775 5.29178 0
      vertex 28.625 5.61843 4
    endloop
  endfacet
  facet normal 0.173648 0.984808 0
    outer loop
      vertex 28.625 5.61843 4
      vertex 30.4775 5.29178 0
      vertex 28.625 5.61843 0
    endloop
  endfacet
  facet normal -0.5 0.866026 0
    outer loop
      vertex 32.1066 6.23233 4
      vertex 32.1066 6.23233 0
      vertex 30.4775 5.29178 4
    endloop
  endfacet
  facet normal -0.5 0.866026 0
    outer loop
      vertex 30.4775 5.29178 4
      vertex 32.1066 6.23233 0
      vertex 30.4775 5.29178 0
    endloop
  endfacet
  facet normal -0.939693 0.34202 0
    outer loop
      vertex 32.75 8 4
      vertex 32.75 8 0
      vertex 32.1066 6.23233 4
    endloop
  endfacet
  facet normal -0.939693 0.34202 0
    outer loop
      vertex 32.1066 6.23233 4
      vertex 32.75 8 0
      vertex 32.1066 6.23233 0
    endloop
  endfacet
  facet normal -0.939693 -0.34202 0
    outer loop
      vertex 32.75 8 4
      vertex 32.1066 9.76767 4
      vertex 32.75 8 0
    endloop
  endfacet
  facet normal -0.939693 -0.34202 0
    outer loop
      vertex 32.75 8 0
      vertex 32.1066 9.76767 4
      vertex 32.1066 9.76767 0
    endloop
  endfacet
  facet normal -0.5 -0.866026 0
    outer loop
      vertex 32.1066 9.76767 0
      vertex 32.1066 9.76767 4
      vertex 30.4775 10.7082 4
    endloop
  endfacet
  facet normal -0.5 -0.866026 0
    outer loop
      vertex 30.4775 10.7082 0
      vertex 32.1066 9.76767 0
      vertex 30.4775 10.7082 4
    endloop
  endfacet
  facet normal 0.173648 -0.984808 0
    outer loop
      vertex 30.4775 10.7082 0
      vertex 30.4775 10.7082 4
      vertex 28.625 10.3816 4
    endloop
  endfacet
  facet normal 0.173648 -0.984808 0
    outer loop
      vertex 28.625 10.3816 0
      vertex 30.4775 10.7082 0
      vertex 28.625 10.3816 4
    endloop
  endfacet
  facet normal 0.766044 -0.642788 0
    outer loop
      vertex 28.625 10.3816 0
      vertex 28.625 10.3816 4
      vertex 27.4158 8.94055 4
    endloop
  endfacet
  facet normal 0.766044 -0.642788 0
    outer loop
      vertex 27.4158 8.94055 0
      vertex 28.625 10.3816 0
      vertex 27.4158 8.94055 4
    endloop
  endfacet
  facet normal 1 0 0
    outer loop
      vertex -22 51.9 4.1
      vertex -22 51.9 0
      vertex -22 52 0
    endloop
  endfacet
  facet normal 1 0 0
    outer loop
      vertex -22 52 4
      vertex -22 51.9 4.1
      vertex -22 52 0
    endloop
  endfacet
  facet normal -1 0 0
    outer loop
      vertex -34 36 0
      vertex -34 36 4
      vertex -34 52 0
    endloop
  endfacet
  facet normal -1 0 0
    outer loop
      vertex -34 52 0
      vertex -34 36 4
      vertex -34 52 4
    endloop
  endfacet
  facet normal 1 0 0
    outer loop
      vertex -32.5842 44.9406 0
      vertex -32.5842 44.9406 4
      vertex -32.5842 43.0594 4
    endloop
  endfacet
  facet normal 1 0 0
    outer loop
      vertex -32.5842 43.0594 0
      vertex -32.5842 44.9406 0
      vertex -32.5842 43.0594 4
    endloop
  endfacet
  facet normal 0.766044 -0.642788 0
    outer loop
      vertex -31.375 46.3816 0
      vertex -31.375 46.3816 4
      vertex -32.5842 44.9406 4
    endloop
  endfacet
  facet normal 0.766044 -0.642788 0
    outer loop
      vertex -32.5842 44.9406 0
      vertex -31.375 46.3816 0
      vertex -32.5842 44.9406 4
    endloop
  endfacet
  facet normal 0.173648 -0.984808 0
    outer loop
      vertex -29.5225 46.7082 0
      vertex -29.5225 46.7082 4
      vertex -31.375 46.3816 4
    endloop
  endfacet
  facet normal 0.173648 -0.984808 0
    outer loop
      vertex -31.375 46.3816 0
      vertex -29.5225 46.7082 0
      vertex -31.375 46.3816 4
    endloop
  endfacet
  facet normal -0.5 -0.866026 0
    outer loop
      vertex -27.8934 45.7677 0
      vertex -27.8934 45.7677 4
      vertex -29.5225 46.7082 4
    endloop
  endfacet
  facet normal -0.5 -0.866026 0
    outer loop
      vertex -29.5225 46.7082 0
      vertex -27.8934 45.7677 0
      vertex -29.5225 46.7082 4
    endloop
  endfacet
  facet normal -0.939693 -0.34202 0
    outer loop
      vertex -27.25 44 4
      vertex -27.8934 45.7677 4
      vertex -27.25 44 0
    endloop
  endfacet
  facet normal -0.939693 -0.34202 0
    outer loop
      vertex -27.25 44 0
      vertex -27.8934 45.7677 4
      vertex -27.8934 45.7677 0
    endloop
  endfacet
  facet normal -0.939693 0.34202 0
    outer loop
      vertex -27.25 44 4
      vertex -27.25 44 0
      vertex -27.8934 42.2323 4
    endloop
  endfacet
  facet normal -0.939693 0.34202 0
    outer loop
      vertex -27.8934 42.2323 4
      vertex -27.25 44 0
      vertex -27.8934 42.2323 0
    endloop
  endfacet
  facet normal -0.5 0.866026 0
    outer loop
      vertex -27.8934 42.2323 4
      vertex -27.8934 42.2323 0
      vertex -29.5225 41.2918 4
    endloop
  endfacet
  facet normal -0.5 0.866026 0
    outer loop
      vertex -29.5225 41.2918 4
      vertex -27.8934 42.2323 0
      vertex -29.5225 41.2918 0
    endloop
  endfacet
  facet normal 0.173648 0.984808 0
    outer loop
      vertex -29.5225 41.2918 4
      vertex -29.5225 41.2918 0
      vertex -31.375 41.6184 4
    endloop
  endfacet
  facet normal 0.173648 0.984808 0
    outer loop
      vertex -31.375 41.6184 4
      vertex -29.5225 41.2918 0
      vertex -31.375 41.6184 0
    endloop
  endfacet
  facet normal 0.766044 0.642788 0
    outer loop
      vertex -32.5842 43.0594 4
      vertex -31.375 41.6184 4
      vertex -31.375 41.6184 0
    endloop
  endfacet
  facet normal 0.766044 0.642788 0
    outer loop
      vertex -32.5842 43.0594 0
      vertex -32.5842 43.0594 4
      vertex -31.375 41.6184 0
    endloop
  endfacet
  facet normal -1 0 0
    outer loop
      vertex 22 51.9 0
      vertex 22 51.9 4.1
      vertex 22 52 0
    endloop
  endfacet
  facet normal -1 0 0
    outer loop
      vertex 22 52 0
      vertex 22 51.9 4.1
      vertex 22 52 4
    endloop
  endfacet
  facet normal 1 0 0
    outer loop
      vertex 34 36 4
      vertex 34 36 0
      vertex 34 52 0
    endloop
  endfacet
  facet normal 1 0 0
    outer loop
      vertex 34 52 4
      vertex 34 36 4
      vertex 34 52 0
    endloop
  endfacet
  facet normal 1 0 0
    outer loop
      vertex 27.4158 44.9406 0
      vertex 27.4158 44.9406 4
      vertex 27.4158 43.0594 4
    endloop
  endfacet
  facet normal 1 0 0
    outer loop
      vertex 27.4158 43.0594 0
      vertex 27.4158 44.9406 0
      vertex 27.4158 43.0594 4
    endloop
  endfacet
  facet normal 0.766044 0.642788 0
    outer loop
      vertex 27.4158 43.0594 4
      vertex 28.625 41.6184 4
      vertex 28.625 41.6184 0
    endloop
  endfacet
  facet normal 0.766044 0.642788 0
    outer loop
      vertex 27.4158 43.0594 0
      vertex 27.4158 43.0594 4
      vertex 28.625 41.6184 0
    endloop
  endfacet
  facet normal 0.173648 0.984808 0
    outer loop
      vertex 30.4775 41.2918 4
      vertex 30.4775 41.2918 0
      vertex 28.625 41.6184 4
    endloop
  endfacet
  facet normal 0.173648 0.984808 0
    outer loop
      vertex 28.625 41.6184 4
      vertex 30.4775 41.2918 0
      vertex 28.625 41.6184 0
    endloop
  endfacet
  facet normal -0.5 0.866026 0
    outer loop
      vertex 32.1066 42.2323 4
      vertex 32.1066 42.2323 0
      vertex 30.4775 41.2918 4
    endloop
  endfacet
  facet normal -0.5 0.866026 0
    outer loop
      vertex 30.4775 41.2918 4
      vertex 32.1066 42.2323 0
      vertex 30.4775 41.2918 0
    endloop
  endfacet
  facet normal -0.939693 0.34202 0
    outer loop
      vertex 32.75 44 4
      vertex 32.75 44 0
      vertex 32.1066 42.2323 4
    endloop
  endfacet
  facet normal -0.939693 0.34202 0
    outer loop
      vertex 32.1066 42.2323 4
      vertex 32.75 44 0
      vertex 32.1066 42.2323 0
    endloop
  endfacet
  facet normal -0.939693 -0.34202 0
    outer loop
      vertex 32.75 44 4
      vertex 32.1066 45.7677 4
      vertex 32.75 44 0
    endloop
  endfacet
  facet normal -0.939693 -0.34202 0
    outer loop
      vertex 32.75 44 0
      vertex 32.1066 45.7677 4
      vertex 32.1066 45.7677 0
    endloop
  endfacet
  facet normal -0.5 -0.866026 0
    outer loop
      vertex 32.1066 45.7677 0
      vertex 32.1066 45.7677 4
      vertex 30.4775 46.7082 4
    endloop
  endfacet
  facet normal -0.5 -0.866026 0
    outer loop
      vertex 30.4775 46.7082 0
      vertex 32.1066 45.7677 0
      vertex 30.4775 46.7082 4
    endloop
  endfacet
  facet normal 0.173648 -0.984808 0
    outer loop
      vertex 30.4775 46.7082 0
      vertex 30.4775 46.7082 4
      vertex 28.625 46.3816 4
    endloop
  endfacet
  facet normal 0.173648 -0.984808 0
    outer loop
      vertex 28.625 46.3816 0
      vertex 30.4775 46.7082 0
      vertex 28.625 46.3816 4
    endloop
  endfacet
  facet normal 0.766044 -0.642788 0
    outer loop
      vertex 28.625 46.3816 0
      vertex 28.625 46.3816 4
      vertex 27.4158 44.9406 4
    endloop
  endfacet
  facet normal 0.766044 -0.642788 0
    outer loop
      vertex 27.4158 44.9406 0
      vertex 28.625 46.3816 0
      vertex 27.4158 44.9406 4
    endloop
  endfacet
endsolid OpenSCAD_Model
