solid OpenSCAD_Model
  facet normal 0 0 -1
    outer loop
      vertex 0.052758 -22.9731 0
      vertex 0.052758 9.97307 0
      vertex 0.471121 -24.8737 0
    endloop
  endfacet
  facet normal 0 0 -1
    outer loop
      vertex 0.471121 -24.8737 0
      vertex 0.052758 9.97307 0
      vertex 0.471121 11.8737 0
    endloop
  endfacet
  facet normal 0 0 -1
    outer loop
      vertex 0.471121 -24.8737 0
      vertex 0.471121 11.8737 0
      vertex 1.28828 13.64 0
    endloop
  endfacet
  facet normal 0 0 -1
    outer loop
      vertex 0.471121 -24.8737 0
      vertex 1.28828 13.64 0
      vertex 2.46604 15.1893 0
    endloop
  endfacet
  facet normal 0 0 -1
    outer loop
      vertex 0.471121 -24.8737 0
      vertex 2.46604 15.1893 0
      vertex 3.94932 16.4492 0
    endloop
  endfacet
  facet normal 0 0 -1
    outer loop
      vertex 7.25 9 0
      vertex 3.94932 16.4492 0
      vertex 17.5 27 0
    endloop
  endfacet
  facet normal 0 0 -1
    outer loop
      vertex 23.3502 4.43974 0
      vertex 17.5 27 0
      vertex 49 27 0
    endloop
  endfacet
  facet normal 0 0 -1
    outer loop
      vertex 25.6498 -17.4397 0
      vertex 40.875 -20.4845 0
      vertex 23.3502 -17.4397 0
    endloop
  endfacet
  facet normal 0 0 -1
    outer loop
      vertex 40.875 -23.5155 0
      vertex 49 -22 0
      vertex 48.7896 -23.9347 0
    endloop
  endfacet
  facet normal 0 0 -1
    outer loop
      vertex 0.471121 -24.8737 0
      vertex 48.7896 -23.9347 0
      vertex 48.1682 -25.779 0
    endloop
  endfacet
  facet normal 0 0 -1
    outer loop
      vertex 0.471121 -24.8737 0
      vertex 48.1682 -25.779 0
      vertex 47.1648 -27.4466 0
    endloop
  endfacet
  facet normal 0 0 -1
    outer loop
      vertex 0.471121 -24.8737 0
      vertex 47.1648 -27.4466 0
      vertex 45.8265 -28.8595 0
    endloop
  endfacet
  facet normal 0 0 -1
    outer loop
      vertex 0.471121 -24.8737 0
      vertex 45.8265 -28.8595 0
      vertex 44.2157 -29.9516 0
    endloop
  endfacet
  facet normal 0 0 -1
    outer loop
      vertex 0.471121 -24.8737 0
      vertex 44.2157 -29.9516 0
      vertex 42.4078 -30.6719 0
    endloop
  endfacet
  facet normal 0 0 -1
    outer loop
      vertex 0.471121 -24.8737 0
      vertex 42.4078 -30.6719 0
      vertex 40.4872 -30.9868 0
    endloop
  endfacet
  facet normal 0 0 -1
    outer loop
      vertex 0.471121 -24.8737 0
      vertex 40.4872 -30.9868 0
      vertex 9.48725 -30.9868 0
    endloop
  endfacet
  facet normal 0 0 -1
    outer loop
      vertex 0.471121 -24.8737 0
      vertex 9.48725 -30.9868 0
      vertex 7.54396 -30.8814 0
    endloop
  endfacet
  facet normal 0 0 -1
    outer loop
      vertex 0.471121 -24.8737 0
      vertex 7.54396 -30.8814 0
      vertex 5.66876 -30.3608 0
    endloop
  endfacet
  facet normal 0 0 -1
    outer loop
      vertex 0.471121 -24.8737 0
      vertex 5.66876 -30.3608 0
      vertex 3.94932 -29.4492 0
    endloop
  endfacet
  facet normal 0 0 -1
    outer loop
      vertex 0.471121 -24.8737 0
      vertex 3.94932 -29.4492 0
      vertex 2.46604 -28.1893 0
    endloop
  endfacet
  facet normal 0 0 -1
    outer loop
      vertex 0.471121 -24.8737 0
      vertex 2.46604 -28.1893 0
      vertex 1.28828 -26.64 0
    endloop
  endfacet
  facet normal 0 0 -1
    outer loop
      vertex 9.875 10.5155 0
      vertex 17.5 27 0
      vertex 10.75 9 0
    endloop
  endfacet
  facet normal 0 0 -1
    outer loop
      vertex 34.549 -10.9741 0
      vertex 49 27 0
      vertex 49 -22 0
    endloop
  endfacet
  facet normal 0 0 -1
    outer loop
      vertex 0.471121 -24.8737 0
      vertex 7.25 -22 0
      vertex 8.125 -23.5155 0
    endloop
  endfacet
  facet normal 0 0 -1
    outer loop
      vertex 27.8992 3.96162 0
      vertex 49 27 0
      vertex 30 3.02628 0
    endloop
  endfacet
  facet normal 0 0 -1
    outer loop
      vertex 0.471121 -24.8737 0
      vertex 8.125 -23.5155 0
      vertex 9.875 -23.5155 0
    endloop
  endfacet
  facet normal 0 0 -1
    outer loop
      vertex 39.125 -23.5155 0
      vertex 0.471121 -24.8737 0
      vertex 9.875 -23.5155 0
    endloop
  endfacet
  facet normal 0 0 -1
    outer loop
      vertex 17.1396 -14.6746 0
      vertex 9.875 -20.4845 0
      vertex 15.6008 -12.9656 0
    endloop
  endfacet
  facet normal 0 0 -1
    outer loop
      vertex 0.471121 -24.8737 0
      vertex 8.125 -20.4845 0
      vertex 7.25 -22 0
    endloop
  endfacet
  facet normal 0 0 -1
    outer loop
      vertex 0.471121 -24.8737 0
      vertex 3.94932 16.4492 0
      vertex 7.25 9 0
    endloop
  endfacet
  facet normal 0 0 -1
    outer loop
      vertex 8.125 10.5155 0
      vertex 7.25 9 0
      vertex 17.5 27 0
    endloop
  endfacet
  facet normal 0 0 -1
    outer loop
      vertex 0.471121 -24.8737 0
      vertex 7.25 9 0
      vertex 8.125 7.48446 0
    endloop
  endfacet
  facet normal 0 0 -1
    outer loop
      vertex 0.471121 -24.8737 0
      vertex 8.125 7.48446 0
      vertex 9.875 7.48446 0
    endloop
  endfacet
  facet normal 0 0 -1
    outer loop
      vertex 0.471121 -24.8737 0
      vertex 9.875 7.48446 0
      vertex 10.75 9 0
    endloop
  endfacet
  facet normal 0 0 -1
    outer loop
      vertex 0.471121 -24.8737 0
      vertex 10.75 9 0
      vertex 17.5 27 0
    endloop
  endfacet
  facet normal 0 0 -1
    outer loop
      vertex 8.125 10.5155 0
      vertex 17.5 27 0
      vertex 9.875 10.5155 0
    endloop
  endfacet
  facet normal 0 0 -1
    outer loop
      vertex 14.451 -10.9741 0
      vertex 0.471121 -24.8737 0
      vertex 13.7404 -8.78703 0
    endloop
  endfacet
  facet normal 0 0 -1
    outer loop
      vertex 38.25 -22 0
      vertex 23.3502 -17.4397 0
      vertex 39.125 -20.4845 0
    endloop
  endfacet
  facet normal 0 0 -1
    outer loop
      vertex 0.471121 -24.8737 0
      vertex 13.5 -6.5 0
      vertex 13.7404 -8.78703 0
    endloop
  endfacet
  facet normal 0 0 -1
    outer loop
      vertex 40.875 -20.4845 0
      vertex 49 -22 0
      vertex 41.75 -22 0
    endloop
  endfacet
  facet normal 0 0 -1
    outer loop
      vertex 25.6498 4.43974 0
      vertex 49 27 0
      vertex 27.8992 3.96162 0
    endloop
  endfacet
  facet normal 0 0 -1
    outer loop
      vertex 0.471121 -24.8737 0
      vertex 14.451 -10.9741 0
      vertex 8.125 -20.4845 0
    endloop
  endfacet
  facet normal 0 0 -1
    outer loop
      vertex 39.125 7.48446 0
      vertex 33.3992 -0.034362 0
      vertex 38.25 9 0
    endloop
  endfacet
  facet normal 0 0 -1
    outer loop
      vertex 35.5 -6.5 0
      vertex 41.75 9 0
      vertex 35.2596 -8.78703 0
    endloop
  endfacet
  facet normal 0 0 -1
    outer loop
      vertex 10.75 -22 0
      vertex 17.1396 -14.6746 0
      vertex 19 -16.0263 0
    endloop
  endfacet
  facet normal 0 0 -1
    outer loop
      vertex 10.75 -22 0
      vertex 19 -16.0263 0
      vertex 21.1008 -16.9616 0
    endloop
  endfacet
  facet normal 0 0 -1
    outer loop
      vertex 10.75 -22 0
      vertex 21.1008 -16.9616 0
      vertex 23.3502 -17.4397 0
    endloop
  endfacet
  facet normal 0 0 -1
    outer loop
      vertex 10.75 -22 0
      vertex 23.3502 -17.4397 0
      vertex 38.25 -22 0
    endloop
  endfacet
  facet normal 0 0 -1
    outer loop
      vertex 40.875 -20.4845 0
      vertex 25.6498 -17.4397 0
      vertex 49 -22 0
    endloop
  endfacet
  facet normal 0 0 -1
    outer loop
      vertex 41.75 9 0
      vertex 49 27 0
      vertex 35.2596 -8.78703 0
    endloop
  endfacet
  facet normal 0 0 -1
    outer loop
      vertex 27.8992 -16.9616 0
      vertex 30 -16.0263 0
      vertex 49 -22 0
    endloop
  endfacet
  facet normal 0 0 -1
    outer loop
      vertex 30 -16.0263 0
      vertex 31.8604 -14.6746 0
      vertex 49 -22 0
    endloop
  endfacet
  facet normal 0 0 -1
    outer loop
      vertex 35.2596 -4.21297 0
      vertex 40.875 7.48446 0
      vertex 35.5 -6.5 0
    endloop
  endfacet
  facet normal 0 0 -1
    outer loop
      vertex 31.8604 -14.6746 0
      vertex 33.3992 -12.9656 0
      vertex 49 -22 0
    endloop
  endfacet
  facet normal 0 0 -1
    outer loop
      vertex 35.2596 -8.78703 0
      vertex 49 27 0
      vertex 34.549 -10.9741 0
    endloop
  endfacet
  facet normal 0 0 -1
    outer loop
      vertex 33.3992 -12.9656 0
      vertex 34.549 -10.9741 0
      vertex 49 -22 0
    endloop
  endfacet
  facet normal 0 0 -1
    outer loop
      vertex 40.875 7.48446 0
      vertex 34.549 -2.0259 0
      vertex 39.125 7.48446 0
    endloop
  endfacet
  facet normal 0 0 -1
    outer loop
      vertex 15.6008 -12.9656 0
      vertex 8.125 -20.4845 0
      vertex 14.451 -10.9741 0
    endloop
  endfacet
  facet normal 0 0 -1
    outer loop
      vertex 23.3502 4.43974 0
      vertex 49 27 0
      vertex 25.6498 4.43974 0
    endloop
  endfacet
  facet normal 0 0 -1
    outer loop
      vertex 21.1008 3.96162 0
      vertex 17.5 27 0
      vertex 23.3502 4.43974 0
    endloop
  endfacet
  facet normal 0 0 -1
    outer loop
      vertex 13.7404 -4.21297 0
      vertex 17.5 27 0
      vertex 14.451 -2.0259 0
    endloop
  endfacet
  facet normal 0 0 -1
    outer loop
      vertex 19 3.02628 0
      vertex 17.5 27 0
      vertex 21.1008 3.96162 0
    endloop
  endfacet
  facet normal 0 0 -1
    outer loop
      vertex 17.1396 1.67459 0
      vertex 17.5 27 0
      vertex 19 3.02628 0
    endloop
  endfacet
  facet normal 0 0 -1
    outer loop
      vertex 15.6008 -0.034362 0
      vertex 17.5 27 0
      vertex 17.1396 1.67459 0
    endloop
  endfacet
  facet normal 0 0 -1
    outer loop
      vertex 14.451 -2.0259 0
      vertex 17.5 27 0
      vertex 15.6008 -0.034362 0
    endloop
  endfacet
  facet normal 0 0 -1
    outer loop
      vertex 0.471121 -24.8737 0
      vertex 17.5 27 0
      vertex 13.7404 -4.21297 0
    endloop
  endfacet
  facet normal 0 0 -1
    outer loop
      vertex 0.471121 -24.8737 0
      vertex 13.7404 -4.21297 0
      vertex 13.5 -6.5 0
    endloop
  endfacet
  facet normal 0 0 -1
    outer loop
      vertex 17.1396 -14.6746 0
      vertex 10.75 -22 0
      vertex 9.875 -20.4845 0
    endloop
  endfacet
  facet normal 0 0 -1
    outer loop
      vertex 41.75 -22 0
      vertex 49 -22 0
      vertex 40.875 -23.5155 0
    endloop
  endfacet
  facet normal 0 0 -1
    outer loop
      vertex 0.471121 -24.8737 0
      vertex 39.125 -23.5155 0
      vertex 48.7896 -23.9347 0
    endloop
  endfacet
  facet normal 0 0 -1
    outer loop
      vertex 39.125 -20.4845 0
      vertex 23.3502 -17.4397 0
      vertex 40.875 -20.4845 0
    endloop
  endfacet
  facet normal 0 0 -1
    outer loop
      vertex 39.125 -23.5155 0
      vertex 40.875 -23.5155 0
      vertex 48.7896 -23.9347 0
    endloop
  endfacet
  facet normal 0 0 -1
    outer loop
      vertex 8.125 -20.4845 0
      vertex 15.6008 -12.9656 0
      vertex 9.875 -20.4845 0
    endloop
  endfacet
  facet normal 0 0 -1
    outer loop
      vertex 27.8992 -16.9616 0
      vertex 49 -22 0
      vertex 25.6498 -17.4397 0
    endloop
  endfacet
  facet normal 0 0 -1
    outer loop
      vertex 39.125 -23.5155 0
      vertex 9.875 -23.5155 0
      vertex 38.25 -22 0
    endloop
  endfacet
  facet normal 0 0 -1
    outer loop
      vertex 31.8604 1.67459 0
      vertex 38.25 9 0
      vertex 33.3992 -0.034362 0
    endloop
  endfacet
  facet normal 0 0 -1
    outer loop
      vertex 40.875 7.48446 0
      vertex 35.2596 -4.21297 0
      vertex 34.549 -2.0259 0
    endloop
  endfacet
  facet normal 0 0 -1
    outer loop
      vertex 33.3992 -0.034362 0
      vertex 39.125 7.48446 0
      vertex 34.549 -2.0259 0
    endloop
  endfacet
  facet normal 0 0 -1
    outer loop
      vertex 41.75 9 0
      vertex 35.5 -6.5 0
      vertex 40.875 7.48446 0
    endloop
  endfacet
  facet normal 0 0 -1
    outer loop
      vertex 40.875 10.5155 0
      vertex 49 27 0
      vertex 41.75 9 0
    endloop
  endfacet
  facet normal 0 0 -1
    outer loop
      vertex 30 3.02628 0
      vertex 49 27 0
      vertex 31.8604 1.67459 0
    endloop
  endfacet
  facet normal 0 0 -1
    outer loop
      vertex 31.8604 1.67459 0
      vertex 49 27 0
      vertex 39.125 10.5155 0
    endloop
  endfacet
  facet normal 0 0 -1
    outer loop
      vertex 31.8604 1.67459 0
      vertex 39.125 10.5155 0
      vertex 38.25 9 0
    endloop
  endfacet
  facet normal 0 0 -1
    outer loop
      vertex 39.125 10.5155 0
      vertex 49 27 0
      vertex 40.875 10.5155 0
    endloop
  endfacet
  facet normal 0 0 -1
    outer loop
      vertex 10.75 -22 0
      vertex 38.25 -22 0
      vertex 9.875 -23.5155 0
    endloop
  endfacet
  facet normal -1 0 0
    outer loop
      vertex 0.052758 -22.9731 0
      vertex 0.052758 -22.9731 4
      vertex 0.052758 9.97307 0
    endloop
  endfacet
  facet normal -1 0 0
    outer loop
      vertex 0.052758 9.97307 0
      vertex 0.052758 -22.9731 4
      vertex 0.052758 9.97307 4
    endloop
  endfacet
  facet normal -0.976621 -0.21497 0
    outer loop
      vertex 0.052758 -22.9731 0
      vertex 0.471121 -24.8737 0
      vertex 0.052758 -22.9731 4
    endloop
  endfacet
  facet normal -0.976621 -0.21497 0
    outer loop
      vertex 0.052758 -22.9731 4
      vertex 0.471121 -24.8737 0
      vertex 0.471121 -24.8737 4
    endloop
  endfacet
  facet normal -0.907575 -0.419889 0
    outer loop
      vertex 0.471121 -24.8737 0
      vertex 1.28828 -26.64 0
      vertex 0.471121 -24.8737 4
    endloop
  endfacet
  facet normal -0.907575 -0.419889 0
    outer loop
      vertex 0.471121 -24.8737 4
      vertex 1.28828 -26.64 0
      vertex 1.28828 -26.64 4
    endloop
  endfacet
  facet normal -0.796093 -0.605175 0
    outer loop
      vertex 1.28828 -26.64 0
      vertex 2.46604 -28.1893 0
      vertex 1.28828 -26.64 4
    endloop
  endfacet
  facet normal -0.796093 -0.605175 0
    outer loop
      vertex 1.28828 -26.64 4
      vertex 2.46604 -28.1893 0
      vertex 2.46604 -28.1893 4
    endloop
  endfacet
  facet normal -0.647387 -0.762162 0
    outer loop
      vertex 2.46604 -28.1893 4
      vertex 2.46604 -28.1893 0
      vertex 3.94932 -29.4492 0
    endloop
  endfacet
  facet normal -0.647387 -0.762162 0
    outer loop
      vertex 3.94932 -29.4492 4
      vertex 2.46604 -28.1893 4
      vertex 3.94932 -29.4492 0
    endloop
  endfacet
  facet normal -0.468408 -0.883512 0
    outer loop
      vertex 3.94932 -29.4492 4
      vertex 3.94932 -29.4492 0
      vertex 5.66876 -30.3608 0
    endloop
  endfacet
  facet normal -0.468408 -0.883512 0
    outer loop
      vertex 5.66876 -30.3608 4
      vertex 3.94932 -29.4492 4
      vertex 5.66876 -30.3608 0
    endloop
  endfacet
  facet normal -0.267529 -0.96355 0
    outer loop
      vertex 5.66876 -30.3608 4
      vertex 5.66876 -30.3608 0
      vertex 7.54396 -30.8814 0
    endloop
  endfacet
  facet normal -0.267529 -0.96355 0
    outer loop
      vertex 7.54396 -30.8814 4
      vertex 5.66876 -30.3608 4
      vertex 7.54396 -30.8814 0
    endloop
  endfacet
  facet normal -0.0541389 -0.998533 0
    outer loop
      vertex 7.54396 -30.8814 4
      vertex 7.54396 -30.8814 0
      vertex 9.48725 -30.9868 0
    endloop
  endfacet
  facet normal -0.0541389 -0.998533 0
    outer loop
      vertex 9.48725 -30.9868 4
      vertex 7.54396 -30.8814 4
      vertex 9.48725 -30.9868 0
    endloop
  endfacet
  facet normal 0 -1 0
    outer loop
      vertex 9.48725 -30.9868 4
      vertex 9.48725 -30.9868 0
      vertex 40.4872 -30.9868 0
    endloop
  endfacet
  facet normal 0 -1 0
    outer loop
      vertex 40.4872 -30.9868 4
      vertex 9.48725 -30.9868 4
      vertex 40.4872 -30.9868 0
    endloop
  endfacet
  facet normal 0.161782 -0.986827 0
    outer loop
      vertex 40.4872 -30.9868 4
      vertex 40.4872 -30.9868 0
      vertex 42.4078 -30.6719 0
    endloop
  endfacet
  facet normal 0.161782 -0.986827 0
    outer loop
      vertex 42.4078 -30.6719 4
      vertex 40.4872 -30.9868 4
      vertex 42.4078 -30.6719 0
    endloop
  endfacet
  facet normal 0.370138 -0.928977 0
    outer loop
      vertex 42.4078 -30.6719 4
      vertex 42.4078 -30.6719 0
      vertex 44.2157 -29.9516 0
    endloop
  endfacet
  facet normal 0.370138 -0.928977 0
    outer loop
      vertex 44.2157 -29.9516 4
      vertex 42.4078 -30.6719 4
      vertex 44.2157 -29.9516 0
    endloop
  endfacet
  facet normal 0.561187 -0.827689 0
    outer loop
      vertex 44.2157 -29.9516 4
      vertex 44.2157 -29.9516 0
      vertex 45.8265 -28.8595 0
    endloop
  endfacet
  facet normal 0.561187 -0.827689 0
    outer loop
      vertex 45.8265 -28.8595 4
      vertex 44.2157 -29.9516 4
      vertex 45.8265 -28.8595 0
    endloop
  endfacet
  facet normal 0.725995 -0.6877 0
    outer loop
      vertex 45.8265 -28.8595 4
      vertex 45.8265 -28.8595 0
      vertex 47.1648 -27.4466 0
    endloop
  endfacet
  facet normal 0.725995 -0.6877 0
    outer loop
      vertex 47.1648 -27.4466 4
      vertex 45.8265 -28.8595 4
      vertex 47.1648 -27.4466 0
    endloop
  endfacet
  facet normal 0.856857 -0.515554 0
    outer loop
      vertex 47.1648 -27.4466 4
      vertex 47.1648 -27.4466 0
      vertex 48.1682 -25.779 0
    endloop
  endfacet
  facet normal 0.856857 -0.515554 0
    outer loop
      vertex 48.1682 -25.779 4
      vertex 47.1648 -27.4466 4
      vertex 48.1682 -25.779 0
    endloop
  endfacet
  facet normal 0.947653 -0.319301 0
    outer loop
      vertex 48.1682 -25.779 4
      vertex 48.1682 -25.779 0
      vertex 48.7896 -23.9347 0
    endloop
  endfacet
  facet normal 0.947653 -0.319301 0
    outer loop
      vertex 48.7896 -23.9347 4
      vertex 48.1682 -25.779 4
      vertex 48.7896 -23.9347 0
    endloop
  endfacet
  facet normal 0.994138 -0.108119 0
    outer loop
      vertex 48.7896 -23.9347 4
      vertex 48.7896 -23.9347 0
      vertex 49 -22 0
    endloop
  endfacet
  facet normal 0.994138 -0.108119 0
    outer loop
      vertex 49 -22 4
      vertex 48.7896 -23.9347 4
      vertex 49 -22 0
    endloop
  endfacet
  facet normal 1 0 0
    outer loop
      vertex 49 -22 4
      vertex 49 -22 0
      vertex 49 27 0
    endloop
  endfacet
  facet normal 1 0 0
    outer loop
      vertex 49 19.5 4
      vertex 49 -22 4
      vertex 49 27 0
    endloop
  endfacet
  facet normal 1 0 0
    outer loop
      vertex 49 27 30
      vertex 49 19.5 4
      vertex 49 27 0
    endloop
  endfacet
  facet normal 1 0 0
    outer loop
      vertex 49 19.5 30
      vertex 49 19.5 4
      vertex 49 27 30
    endloop
  endfacet
  facet normal 0 1 0
    outer loop
      vertex 17.5 27 0
      vertex 17.5 27 4
      vertex 49 27 0
    endloop
  endfacet
  facet normal 0 1 0
    outer loop
      vertex 22.75 27 7.5
      vertex 17.5 27 4
      vertex 17.5 27 30
    endloop
  endfacet
  facet normal 0 1 0
    outer loop
      vertex 25.375 27 28.0155
      vertex 17.5 27 30
      vertex 49 27 30
    endloop
  endfacet
  facet normal 0 1 0
    outer loop
      vertex 23.625 27 5.98446
      vertex 17.5 27 4
      vertex 22.75 27 7.5
    endloop
  endfacet
  facet normal 0 1 0
    outer loop
      vertex 23.625 27 9.01554
      vertex 22.75 27 7.5
      vertex 17.5 27 30
    endloop
  endfacet
  facet normal 0 1 0
    outer loop
      vertex 49 27 0
      vertex 17.5 27 4
      vertex 23.625 27 5.98446
    endloop
  endfacet
  facet normal 0 1 0
    outer loop
      vertex 49 27 0
      vertex 23.625 27 5.98446
      vertex 25.375 27 5.98446
    endloop
  endfacet
  facet normal 0 1 0
    outer loop
      vertex 25.375 27 24.9845
      vertex 49 27 0
      vertex 23.625 27 24.9845
    endloop
  endfacet
  facet normal 0 1 0
    outer loop
      vertex 49 27 0
      vertex 26.25 27 7.5
      vertex 17.5 27 30
    endloop
  endfacet
  facet normal 0 1 0
    outer loop
      vertex 26.25 27 7.5
      vertex 25.375 27 9.01554
      vertex 17.5 27 30
    endloop
  endfacet
  facet normal 0 1 0
    outer loop
      vertex 25.375 27 9.01554
      vertex 23.625 27 9.01554
      vertex 17.5 27 30
    endloop
  endfacet
  facet normal 0 1 0
    outer loop
      vertex 23.625 27 24.9845
      vertex 17.5 27 30
      vertex 22.75 27 26.5
    endloop
  endfacet
  facet normal 0 1 0
    outer loop
      vertex 49 27 0
      vertex 17.5 27 30
      vertex 23.625 27 24.9845
    endloop
  endfacet
  facet normal 0 1 0
    outer loop
      vertex 25.375 27 28.0155
      vertex 49 27 30
      vertex 26.25 27 26.5
    endloop
  endfacet
  facet normal 0 1 0
    outer loop
      vertex 49 27 0
      vertex 25.375 27 24.9845
      vertex 49 27 30
    endloop
  endfacet
  facet normal 0 1 0
    outer loop
      vertex 25.375 27 24.9845
      vertex 26.25 27 26.5
      vertex 49 27 30
    endloop
  endfacet
  facet normal 0 1 0
    outer loop
      vertex 23.625 27 28.0155
      vertex 17.5 27 30
      vertex 25.375 27 28.0155
    endloop
  endfacet
  facet normal 0 1 0
    outer loop
      vertex 22.75 27 26.5
      vertex 17.5 27 30
      vertex 23.625 27 28.0155
    endloop
  endfacet
  facet normal 0 1 0
    outer loop
      vertex 26.25 27 7.5
      vertex 49 27 0
      vertex 25.375 27 5.98446
    endloop
  endfacet
  facet normal -0.614353 0.789031 0
    outer loop
      vertex 3.94932 16.4492 0
      vertex 3.94932 16.4492 4
      vertex 17.5 27 0
    endloop
  endfacet
  facet normal -0.614353 0.789031 0
    outer loop
      vertex 17.5 27 0
      vertex 3.94932 16.4492 4
      vertex 17.5 27 4
    endloop
  endfacet
  facet normal -0.647387 0.762162 0
    outer loop
      vertex 2.46604 15.1893 0
      vertex 2.46604 15.1893 4
      vertex 3.94932 16.4492 0
    endloop
  endfacet
  facet normal -0.647387 0.762162 0
    outer loop
      vertex 3.94932 16.4492 0
      vertex 2.46604 15.1893 4
      vertex 3.94932 16.4492 4
    endloop
  endfacet
  facet normal -0.796093 0.605175 0
    outer loop
      vertex 1.28828 13.64 0
      vertex 1.28828 13.64 4
      vertex 2.46604 15.1893 0
    endloop
  endfacet
  facet normal -0.796093 0.605175 0
    outer loop
      vertex 2.46604 15.1893 0
      vertex 1.28828 13.64 4
      vertex 2.46604 15.1893 4
    endloop
  endfacet
  facet normal -0.907575 0.419889 0
    outer loop
      vertex 0.471121 11.8737 0
      vertex 0.471121 11.8737 4
      vertex 1.28828 13.64 0
    endloop
  endfacet
  facet normal -0.907575 0.419889 0
    outer loop
      vertex 1.28828 13.64 0
      vertex 0.471121 11.8737 4
      vertex 1.28828 13.64 4
    endloop
  endfacet
  facet normal -0.976621 0.21497 0
    outer loop
      vertex 0.052758 9.97307 0
      vertex 0.052758 9.97307 4
      vertex 0.471121 11.8737 0
    endloop
  endfacet
  facet normal -0.976621 0.21497 0
    outer loop
      vertex 0.471121 11.8737 0
      vertex 0.052758 9.97307 4
      vertex 0.471121 11.8737 4
    endloop
  endfacet
  facet normal 0.866025 -0.5 0
    outer loop
      vertex 8.125 -20.4845 0
      vertex 8.125 -20.4845 4
      vertex 7.25 -22 4
    endloop
  endfacet
  facet normal 0.866025 -0.5 0
    outer loop
      vertex 7.25 -22 0
      vertex 8.125 -20.4845 0
      vertex 7.25 -22 4
    endloop
  endfacet
  facet normal 0.866025 0.5 0
    outer loop
      vertex 7.25 -22 4
      vertex 8.125 -23.5155 4
      vertex 8.125 -23.5155 0
    endloop
  endfacet
  facet normal 0.866025 0.5 0
    outer loop
      vertex 7.25 -22 0
      vertex 7.25 -22 4
      vertex 8.125 -23.5155 0
    endloop
  endfacet
  facet normal 0 -1 0
    outer loop
      vertex 9.875 -20.4845 0
      vertex 9.875 -20.4845 4
      vertex 8.125 -20.4845 4
    endloop
  endfacet
  facet normal 0 -1 0
    outer loop
      vertex 8.125 -20.4845 0
      vertex 9.875 -20.4845 0
      vertex 8.125 -20.4845 4
    endloop
  endfacet
  facet normal -0.866025 -0.5 0
    outer loop
      vertex 10.75 -22 4
      vertex 9.875 -20.4845 4
      vertex 10.75 -22 0
    endloop
  endfacet
  facet normal -0.866025 -0.5 0
    outer loop
      vertex 10.75 -22 0
      vertex 9.875 -20.4845 4
      vertex 9.875 -20.4845 0
    endloop
  endfacet
  facet normal -0.866025 0.5 0
    outer loop
      vertex 10.75 -22 4
      vertex 10.75 -22 0
      vertex 9.875 -23.5155 4
    endloop
  endfacet
  facet normal -0.866025 0.5 0
    outer loop
      vertex 9.875 -23.5155 4
      vertex 10.75 -22 0
      vertex 9.875 -23.5155 0
    endloop
  endfacet
  facet normal 0 1 0
    outer loop
      vertex 9.875 -23.5155 4
      vertex 9.875 -23.5155 0
      vertex 8.125 -23.5155 4
    endloop
  endfacet
  facet normal 0 1 0
    outer loop
      vertex 8.125 -23.5155 4
      vertex 9.875 -23.5155 0
      vertex 8.125 -23.5155 0
    endloop
  endfacet
  facet normal 0.866025 -0.5 0
    outer loop
      vertex 8.125 10.5155 0
      vertex 8.125 10.5155 4
      vertex 7.25 9 4
    endloop
  endfacet
  facet normal 0.866025 -0.5 0
    outer loop
      vertex 7.25 9 0
      vertex 8.125 10.5155 0
      vertex 7.25 9 4
    endloop
  endfacet
  facet normal 0.866025 0.5 0
    outer loop
      vertex 7.25 9 4
      vertex 8.125 7.48446 4
      vertex 8.125 7.48446 0
    endloop
  endfacet
  facet normal 0.866025 0.5 0
    outer loop
      vertex 7.25 9 0
      vertex 7.25 9 4
      vertex 8.125 7.48446 0
    endloop
  endfacet
  facet normal 0 -1 0
    outer loop
      vertex 9.875 10.5155 0
      vertex 9.875 10.5155 4
      vertex 8.125 10.5155 4
    endloop
  endfacet
  facet normal 0 -1 0
    outer loop
      vertex 8.125 10.5155 0
      vertex 9.875 10.5155 0
      vertex 8.125 10.5155 4
    endloop
  endfacet
  facet normal -0.866025 -0.5 0
    outer loop
      vertex 10.75 9 4
      vertex 9.875 10.5155 4
      vertex 10.75 9 0
    endloop
  endfacet
  facet normal -0.866025 -0.5 0
    outer loop
      vertex 10.75 9 0
      vertex 9.875 10.5155 4
      vertex 9.875 10.5155 0
    endloop
  endfacet
  facet normal -0.866025 0.5 0
    outer loop
      vertex 10.75 9 4
      vertex 10.75 9 0
      vertex 9.875 7.48446 4
    endloop
  endfacet
  facet normal -0.866025 0.5 0
    outer loop
      vertex 9.875 7.48446 4
      vertex 10.75 9 0
      vertex 9.875 7.48446 0
    endloop
  endfacet
  facet normal 0 1 0
    outer loop
      vertex 9.875 7.48446 4
      vertex 9.875 7.48446 0
      vertex 8.125 7.48446 4
    endloop
  endfacet
  facet normal 0 1 0
    outer loop
      vertex 8.125 7.48446 4
      vertex 9.875 7.48446 0
      vertex 8.125 7.48446 0
    endloop
  endfacet
  facet normal 0.994522 -0.104528 0
    outer loop
      vertex 13.7404 -4.21297 0
      vertex 13.7404 -4.21297 4
      vertex 13.5 -6.5 4
    endloop
  endfacet
  facet normal 0.994522 -0.104528 0
    outer loop
      vertex 13.5 -6.5 0
      vertex 13.7404 -4.21297 0
      vertex 13.5 -6.5 4
    endloop
  endfacet
  facet normal 0.994522 0.104528 0
    outer loop
      vertex 13.5 -6.5 4
      vertex 13.7404 -8.78703 4
      vertex 13.7404 -8.78703 0
    endloop
  endfacet
  facet normal 0.994522 0.104528 0
    outer loop
      vertex 13.5 -6.5 0
      vertex 13.5 -6.5 4
      vertex 13.7404 -8.78703 0
    endloop
  endfacet
  facet normal 0.951056 -0.309017 0
    outer loop
      vertex 14.451 -2.0259 0
      vertex 14.451 -2.0259 4
      vertex 13.7404 -4.21297 4
    endloop
  endfacet
  facet normal 0.951056 -0.309017 0
    outer loop
      vertex 13.7404 -4.21297 0
      vertex 14.451 -2.0259 0
      vertex 13.7404 -4.21297 4
    endloop
  endfacet
  facet normal 0.866025 -0.5 0
    outer loop
      vertex 15.6008 -0.034362 0
      vertex 15.6008 -0.034362 4
      vertex 14.451 -2.0259 4
    endloop
  endfacet
  facet normal 0.866025 -0.5 0
    outer loop
      vertex 14.451 -2.0259 0
      vertex 15.6008 -0.034362 0
      vertex 14.451 -2.0259 4
    endloop
  endfacet
  facet normal 0.743145 -0.669131 0
    outer loop
      vertex 17.1396 1.67459 0
      vertex 17.1396 1.67459 4
      vertex 15.6008 -0.034362 4
    endloop
  endfacet
  facet normal 0.743145 -0.669131 0
    outer loop
      vertex 15.6008 -0.034362 0
      vertex 17.1396 1.67459 0
      vertex 15.6008 -0.034362 4
    endloop
  endfacet
  facet normal 0.587785 -0.809017 0
    outer loop
      vertex 19 3.02628 0
      vertex 19 3.02628 4
      vertex 17.1396 1.67459 4
    endloop
  endfacet
  facet normal 0.587785 -0.809017 0
    outer loop
      vertex 17.1396 1.67459 0
      vertex 19 3.02628 0
      vertex 17.1396 1.67459 4
    endloop
  endfacet
  facet normal 0.406737 -0.913545 0
    outer loop
      vertex 21.1008 3.96162 0
      vertex 21.1008 3.96162 4
      vertex 19 3.02628 4
    endloop
  endfacet
  facet normal 0.406737 -0.913545 0
    outer loop
      vertex 19 3.02628 0
      vertex 21.1008 3.96162 0
      vertex 19 3.02628 4
    endloop
  endfacet
  facet normal 0.207912 -0.978148 0
    outer loop
      vertex 23.3502 4.43974 0
      vertex 23.3502 4.43974 4
      vertex 21.1008 3.96162 4
    endloop
  endfacet
  facet normal 0.207912 -0.978148 0
    outer loop
      vertex 21.1008 3.96162 0
      vertex 23.3502 4.43974 0
      vertex 21.1008 3.96162 4
    endloop
  endfacet
  facet normal 0 -1 0
    outer loop
      vertex 25.6498 4.43974 0
      vertex 25.6498 4.43974 4
      vertex 23.3502 4.43974 4
    endloop
  endfacet
  facet normal 0 -1 0
    outer loop
      vertex 23.3502 4.43974 0
      vertex 25.6498 4.43974 0
      vertex 23.3502 4.43974 4
    endloop
  endfacet
  facet normal -0.207912 -0.978148 0
    outer loop
      vertex 27.8992 3.96162 0
      vertex 27.8992 3.96162 4
      vertex 25.6498 4.43974 4
    endloop
  endfacet
  facet normal -0.207912 -0.978148 0
    outer loop
      vertex 25.6498 4.43974 0
      vertex 27.8992 3.96162 0
      vertex 25.6498 4.43974 4
    endloop
  endfacet
  facet normal -0.406737 -0.913545 0
    outer loop
      vertex 30 3.02628 0
      vertex 30 3.02628 4
      vertex 27.8992 3.96162 4
    endloop
  endfacet
  facet normal -0.406737 -0.913545 0
    outer loop
      vertex 27.8992 3.96162 0
      vertex 30 3.02628 0
      vertex 27.8992 3.96162 4
    endloop
  endfacet
  facet normal -0.587785 -0.809017 0
    outer loop
      vertex 31.8604 1.67459 0
      vertex 31.8604 1.67459 4
      vertex 30 3.02628 4
    endloop
  endfacet
  facet normal -0.587785 -0.809017 0
    outer loop
      vertex 30 3.02628 0
      vertex 31.8604 1.67459 0
      vertex 30 3.02628 4
    endloop
  endfacet
  facet normal -0.743145 -0.669131 0
    outer loop
      vertex 33.3992 -0.034362 4
      vertex 31.8604 1.67459 4
      vertex 33.3992 -0.034362 0
    endloop
  endfacet
  facet normal -0.743145 -0.669131 0
    outer loop
      vertex 33.3992 -0.034362 0
      vertex 31.8604 1.67459 4
      vertex 31.8604 1.67459 0
    endloop
  endfacet
  facet normal -0.866025 -0.5 0
    outer loop
      vertex 34.549 -2.0259 4
      vertex 33.3992 -0.034362 4
      vertex 34.549 -2.0259 0
    endloop
  endfacet
  facet normal -0.866025 -0.5 0
    outer loop
      vertex 34.549 -2.0259 0
      vertex 33.3992 -0.034362 4
      vertex 33.3992 -0.034362 0
    endloop
  endfacet
  facet normal -0.951056 -0.309017 0
    outer loop
      vertex 35.2596 -4.21297 4
      vertex 34.549 -2.0259 4
      vertex 35.2596 -4.21297 0
    endloop
  endfacet
  facet normal -0.951056 -0.309017 0
    outer loop
      vertex 35.2596 -4.21297 0
      vertex 34.549 -2.0259 4
      vertex 34.549 -2.0259 0
    endloop
  endfacet
  facet normal -0.994522 -0.104528 0
    outer loop
      vertex 35.5 -6.5 4
      vertex 35.2596 -4.21297 4
      vertex 35.5 -6.5 0
    endloop
  endfacet
  facet normal -0.994522 -0.104528 0
    outer loop
      vertex 35.5 -6.5 0
      vertex 35.2596 -4.21297 4
      vertex 35.2596 -4.21297 0
    endloop
  endfacet
  facet normal -0.994522 0.104528 0
    outer loop
      vertex 35.5 -6.5 4
      vertex 35.5 -6.5 0
      vertex 35.2596 -8.78703 4
    endloop
  endfacet
  facet normal -0.994522 0.104528 0
    outer loop
      vertex 35.2596 -8.78703 4
      vertex 35.5 -6.5 0
      vertex 35.2596 -8.78703 0
    endloop
  endfacet
  facet normal -0.951056 0.309017 0
    outer loop
      vertex 35.2596 -8.78703 4
      vertex 35.2596 -8.78703 0
      vertex 34.549 -10.9741 4
    endloop
  endfacet
  facet normal -0.951056 0.309017 0
    outer loop
      vertex 34.549 -10.9741 4
      vertex 35.2596 -8.78703 0
      vertex 34.549 -10.9741 0
    endloop
  endfacet
  facet normal -0.866025 0.5 0
    outer loop
      vertex 34.549 -10.9741 4
      vertex 34.549 -10.9741 0
      vertex 33.3992 -12.9656 4
    endloop
  endfacet
  facet normal -0.866025 0.5 0
    outer loop
      vertex 33.3992 -12.9656 4
      vertex 34.549 -10.9741 0
      vertex 33.3992 -12.9656 0
    endloop
  endfacet
  facet normal -0.743145 0.669131 0
    outer loop
      vertex 33.3992 -12.9656 4
      vertex 33.3992 -12.9656 0
      vertex 31.8604 -14.6746 4
    endloop
  endfacet
  facet normal -0.743145 0.669131 0
    outer loop
      vertex 31.8604 -14.6746 4
      vertex 33.3992 -12.9656 0
      vertex 31.8604 -14.6746 0
    endloop
  endfacet
  facet normal -0.587785 0.809017 0
    outer loop
      vertex 31.8604 -14.6746 4
      vertex 31.8604 -14.6746 0
      vertex 30 -16.0263 4
    endloop
  endfacet
  facet normal -0.587785 0.809017 0
    outer loop
      vertex 30 -16.0263 4
      vertex 31.8604 -14.6746 0
      vertex 30 -16.0263 0
    endloop
  endfacet
  facet normal -0.406737 0.913545 0
    outer loop
      vertex 30 -16.0263 4
      vertex 30 -16.0263 0
      vertex 27.8992 -16.9616 4
    endloop
  endfacet
  facet normal -0.406737 0.913545 0
    outer loop
      vertex 27.8992 -16.9616 4
      vertex 30 -16.0263 0
      vertex 27.8992 -16.9616 0
    endloop
  endfacet
  facet normal -0.207912 0.978148 0
    outer loop
      vertex 27.8992 -16.9616 4
      vertex 27.8992 -16.9616 0
      vertex 25.6498 -17.4397 4
    endloop
  endfacet
  facet normal -0.207912 0.978148 0
    outer loop
      vertex 25.6498 -17.4397 4
      vertex 27.8992 -16.9616 0
      vertex 25.6498 -17.4397 0
    endloop
  endfacet
  facet normal 0 1 0
    outer loop
      vertex 25.6498 -17.4397 4
      vertex 25.6498 -17.4397 0
      vertex 23.3502 -17.4397 4
    endloop
  endfacet
  facet normal 0 1 0
    outer loop
      vertex 23.3502 -17.4397 4
      vertex 25.6498 -17.4397 0
      vertex 23.3502 -17.4397 0
    endloop
  endfacet
  facet normal 0.207912 0.978148 0
    outer loop
      vertex 23.3502 -17.4397 4
      vertex 23.3502 -17.4397 0
      vertex 21.1008 -16.9616 4
    endloop
  endfacet
  facet normal 0.207912 0.978148 0
    outer loop
      vertex 21.1008 -16.9616 4
      vertex 23.3502 -17.4397 0
      vertex 21.1008 -16.9616 0
    endloop
  endfacet
  facet normal 0.406737 0.913545 0
    outer loop
      vertex 21.1008 -16.9616 4
      vertex 21.1008 -16.9616 0
      vertex 19 -16.0263 4
    endloop
  endfacet
  facet normal 0.406737 0.913545 0
    outer loop
      vertex 19 -16.0263 4
      vertex 21.1008 -16.9616 0
      vertex 19 -16.0263 0
    endloop
  endfacet
  facet normal 0.587785 0.809017 0
    outer loop
      vertex 19 -16.0263 4
      vertex 19 -16.0263 0
      vertex 17.1396 -14.6746 4
    endloop
  endfacet
  facet normal 0.587785 0.809017 0
    outer loop
      vertex 17.1396 -14.6746 4
      vertex 19 -16.0263 0
      vertex 17.1396 -14.6746 0
    endloop
  endfacet
  facet normal 0.743145 0.669131 0
    outer loop
      vertex 15.6008 -12.9656 4
      vertex 17.1396 -14.6746 4
      vertex 17.1396 -14.6746 0
    endloop
  endfacet
  facet normal 0.743145 0.669131 0
    outer loop
      vertex 15.6008 -12.9656 0
      vertex 15.6008 -12.9656 4
      vertex 17.1396 -14.6746 0
    endloop
  endfacet
  facet normal 0.866025 0.5 0
    outer loop
      vertex 14.451 -10.9741 4
      vertex 15.6008 -12.9656 4
      vertex 15.6008 -12.9656 0
    endloop
  endfacet
  facet normal 0.866025 0.5 0
    outer loop
      vertex 14.451 -10.9741 0
      vertex 14.451 -10.9741 4
      vertex 15.6008 -12.9656 0
    endloop
  endfacet
  facet normal 0.951056 0.309017 0
    outer loop
      vertex 13.7404 -8.78703 4
      vertex 14.451 -10.9741 4
      vertex 14.451 -10.9741 0
    endloop
  endfacet
  facet normal 0.951056 0.309017 0
    outer loop
      vertex 13.7404 -8.78703 0
      vertex 13.7404 -8.78703 4
      vertex 14.451 -10.9741 0
    endloop
  endfacet
  facet normal 0.866025 -0.5 0
    outer loop
      vertex 39.125 -20.4845 0
      vertex 39.125 -20.4845 4
      vertex 38.25 -22 4
    endloop
  endfacet
  facet normal 0.866025 -0.5 0
    outer loop
      vertex 38.25 -22 0
      vertex 39.125 -20.4845 0
      vertex 38.25 -22 4
    endloop
  endfacet
  facet normal 0.866025 0.5 0
    outer loop
      vertex 38.25 -22 4
      vertex 39.125 -23.5155 4
      vertex 39.125 -23.5155 0
    endloop
  endfacet
  facet normal 0.866025 0.5 0
    outer loop
      vertex 38.25 -22 0
      vertex 38.25 -22 4
      vertex 39.125 -23.5155 0
    endloop
  endfacet
  facet normal 0 -1 0
    outer loop
      vertex 40.875 -20.4845 0
      vertex 40.875 -20.4845 4
      vertex 39.125 -20.4845 4
    endloop
  endfacet
  facet normal 0 -1 0
    outer loop
      vertex 39.125 -20.4845 0
      vertex 40.875 -20.4845 0
      vertex 39.125 -20.4845 4
    endloop
  endfacet
  facet normal -0.866025 -0.5 0
    outer loop
      vertex 41.75 -22 4
      vertex 40.875 -20.4845 4
      vertex 41.75 -22 0
    endloop
  endfacet
  facet normal -0.866025 -0.5 0
    outer loop
      vertex 41.75 -22 0
      vertex 40.875 -20.4845 4
      vertex 40.875 -20.4845 0
    endloop
  endfacet
  facet normal -0.866025 0.5 0
    outer loop
      vertex 41.75 -22 4
      vertex 41.75 -22 0
      vertex 40.875 -23.5155 4
    endloop
  endfacet
  facet normal -0.866025 0.5 0
    outer loop
      vertex 40.875 -23.5155 4
      vertex 41.75 -22 0
      vertex 40.875 -23.5155 0
    endloop
  endfacet
  facet normal 0 1 0
    outer loop
      vertex 40.875 -23.5155 4
      vertex 40.875 -23.5155 0
      vertex 39.125 -23.5155 4
    endloop
  endfacet
  facet normal 0 1 0
    outer loop
      vertex 39.125 -23.5155 4
      vertex 40.875 -23.5155 0
      vertex 39.125 -23.5155 0
    endloop
  endfacet
  facet normal 0.866025 -0.5 0
    outer loop
      vertex 39.125 10.5155 0
      vertex 39.125 10.5155 4
      vertex 38.25 9 4
    endloop
  endfacet
  facet normal 0.866025 -0.5 0
    outer loop
      vertex 38.25 9 0
      vertex 39.125 10.5155 0
      vertex 38.25 9 4
    endloop
  endfacet
  facet normal 0.866025 0.5 0
    outer loop
      vertex 38.25 9 4
      vertex 39.125 7.48446 4
      vertex 39.125 7.48446 0
    endloop
  endfacet
  facet normal 0.866025 0.5 0
    outer loop
      vertex 38.25 9 0
      vertex 38.25 9 4
      vertex 39.125 7.48446 0
    endloop
  endfacet
  facet normal 0 -1 0
    outer loop
      vertex 40.875 10.5155 0
      vertex 40.875 10.5155 4
      vertex 39.125 10.5155 4
    endloop
  endfacet
  facet normal 0 -1 0
    outer loop
      vertex 39.125 10.5155 0
      vertex 40.875 10.5155 0
      vertex 39.125 10.5155 4
    endloop
  endfacet
  facet normal -0.866025 -0.5 0
    outer loop
      vertex 41.75 9 4
      vertex 40.875 10.5155 4
      vertex 41.75 9 0
    endloop
  endfacet
  facet normal -0.866025 -0.5 0
    outer loop
      vertex 41.75 9 0
      vertex 40.875 10.5155 4
      vertex 40.875 10.5155 0
    endloop
  endfacet
  facet normal -0.866025 0.5 0
    outer loop
      vertex 41.75 9 4
      vertex 41.75 9 0
      vertex 40.875 7.48446 4
    endloop
  endfacet
  facet normal -0.866025 0.5 0
    outer loop
      vertex 40.875 7.48446 4
      vertex 41.75 9 0
      vertex 40.875 7.48446 0
    endloop
  endfacet
  facet normal 0 1 0
    outer loop
      vertex 40.875 7.48446 4
      vertex 40.875 7.48446 0
      vertex 39.125 7.48446 4
    endloop
  endfacet
  facet normal 0 1 0
    outer loop
      vertex 39.125 7.48446 4
      vertex 40.875 7.48446 0
      vertex 39.125 7.48446 0
    endloop
  endfacet
  facet normal 0 0 1
    outer loop
      vertex 0.052758 9.97307 4
      vertex 0.052758 -22.9731 4
      vertex 0.471121 -24.8737 4
    endloop
  endfacet
  facet normal 0 0 1
    outer loop
      vertex 2.46604 -28.1893 4
      vertex 0.052758 9.97307 4
      vertex 1.28828 -26.64 4
    endloop
  endfacet
  facet normal 0 0 1
    outer loop
      vertex 1.28828 -26.64 4
      vertex 0.052758 9.97307 4
      vertex 0.471121 -24.8737 4
    endloop
  endfacet
  facet normal 0 0 1
    outer loop
      vertex 3.94932 -29.4492 4
      vertex 0.052758 9.97307 4
      vertex 2.46604 -28.1893 4
    endloop
  endfacet
  facet normal 0 0 1
    outer loop
      vertex 5.66876 -30.3608 4
      vertex 0.052758 9.97307 4
      vertex 3.94932 -29.4492 4
    endloop
  endfacet
  facet normal 0 0 1
    outer loop
      vertex 7.54396 -30.8814 4
      vertex 0.052758 9.97307 4
      vertex 5.66876 -30.3608 4
    endloop
  endfacet
  facet normal 0 0 1
    outer loop
      vertex 7.25 -22 4
      vertex 0.052758 9.97307 4
      vertex 7.54396 -30.8814 4
    endloop
  endfacet
  facet normal 0 0 1
    outer loop
      vertex 7.25 -22 4
      vertex 8.125 -20.4845 4
      vertex 0.052758 9.97307 4
    endloop
  endfacet
  facet normal 0 0 1
    outer loop
      vertex 39.125 -20.4845 4
      vertex 40.875 -20.4845 4
      vertex 31.8604 -14.6746 4
    endloop
  endfacet
  facet normal 0 0 1
    outer loop
      vertex 17.1396 1.67459 4
      vertex 19 3.02628 4
      vertex 9.875 7.48446 4
    endloop
  endfacet
  facet normal 0 0 1
    outer loop
      vertex 33.3992 -12.9656 4
      vertex 40.875 -20.4845 4
      vertex 48.1682 -25.779 4
    endloop
  endfacet
  facet normal 0 0 1
    outer loop
      vertex 17.5 19.5 4
      vertex 0.052758 9.97307 4
      vertex 49 19.5 4
    endloop
  endfacet
  facet normal 0 0 1
    outer loop
      vertex 17.5 27 4
      vertex 0.052758 9.97307 4
      vertex 17.5 19.5 4
    endloop
  endfacet
  facet normal 0 0 1
    outer loop
      vertex 3.94932 16.4492 4
      vertex 0.052758 9.97307 4
      vertex 17.5 27 4
    endloop
  endfacet
  facet normal 0 0 1
    outer loop
      vertex 2.46604 15.1893 4
      vertex 0.052758 9.97307 4
      vertex 3.94932 16.4492 4
    endloop
  endfacet
  facet normal 0 0 1
    outer loop
      vertex 1.28828 13.64 4
      vertex 0.052758 9.97307 4
      vertex 2.46604 15.1893 4
    endloop
  endfacet
  facet normal 0 0 1
    outer loop
      vertex 0.471121 11.8737 4
      vertex 0.052758 9.97307 4
      vertex 1.28828 13.64 4
    endloop
  endfacet
  facet normal 0 0 1
    outer loop
      vertex 40.4872 -30.9868 4
      vertex 8.125 -23.5155 4
      vertex 9.48725 -30.9868 4
    endloop
  endfacet
  facet normal 0 0 1
    outer loop
      vertex 9.48725 -30.9868 4
      vertex 7.25 -22 4
      vertex 7.54396 -30.8814 4
    endloop
  endfacet
  facet normal 0 0 1
    outer loop
      vertex 9.875 -20.4845 4
      vertex 0.052758 9.97307 4
      vertex 8.125 -20.4845 4
    endloop
  endfacet
  facet normal 0 0 1
    outer loop
      vertex 9.875 10.5155 4
      vertex 10.75 9 4
      vertex 49 19.5 4
    endloop
  endfacet
  facet normal 0 0 1
    outer loop
      vertex 13.7404 -8.78703 4
      vertex 0.052758 9.97307 4
      vertex 9.875 -20.4845 4
    endloop
  endfacet
  facet normal 0 0 1
    outer loop
      vertex 40.4872 -30.9868 4
      vertex 9.875 -23.5155 4
      vertex 8.125 -23.5155 4
    endloop
  endfacet
  facet normal 0 0 1
    outer loop
      vertex 40.4872 -30.9868 4
      vertex 10.75 -22 4
      vertex 9.875 -23.5155 4
    endloop
  endfacet
  facet normal 0 0 1
    outer loop
      vertex 33.3992 -12.9656 4
      vertex 31.8604 -14.6746 4
      vertex 40.875 -20.4845 4
    endloop
  endfacet
  facet normal 0 0 1
    outer loop
      vertex 7.25 9 4
      vertex 0.052758 9.97307 4
      vertex 8.125 7.48446 4
    endloop
  endfacet
  facet normal 0 0 1
    outer loop
      vertex 8.125 10.5155 4
      vertex 0.052758 9.97307 4
      vertex 7.25 9 4
    endloop
  endfacet
  facet normal 0 0 1
    outer loop
      vertex 49 19.5 4
      vertex 0.052758 9.97307 4
      vertex 8.125 10.5155 4
    endloop
  endfacet
  facet normal 0 0 1
    outer loop
      vertex 10.75 9 4
      vertex 9.875 7.48446 4
      vertex 49 19.5 4
    endloop
  endfacet
  facet normal 0 0 1
    outer loop
      vertex 49 19.5 4
      vertex 8.125 10.5155 4
      vertex 9.875 10.5155 4
    endloop
  endfacet
  facet normal 0 0 1
    outer loop
      vertex 27.8992 -16.9616 4
      vertex 25.6498 -17.4397 4
      vertex 40.4872 -30.9868 4
    endloop
  endfacet
  facet normal 0 0 1
    outer loop
      vertex 14.451 -10.9741 4
      vertex 13.7404 -8.78703 4
      vertex 9.875 -20.4845 4
    endloop
  endfacet
  facet normal 0 0 1
    outer loop
      vertex 13.5 -6.5 4
      vertex 0.052758 9.97307 4
      vertex 13.7404 -8.78703 4
    endloop
  endfacet
  facet normal 0 0 1
    outer loop
      vertex 13.7404 -4.21297 4
      vertex 0.052758 9.97307 4
      vertex 13.5 -6.5 4
    endloop
  endfacet
  facet normal 0 0 1
    outer loop
      vertex 30 -16.0263 4
      vertex 42.4078 -30.6719 4
      vertex 44.2157 -29.9516 4
    endloop
  endfacet
  facet normal 0 0 1
    outer loop
      vertex 8.125 7.48446 4
      vertex 0.052758 9.97307 4
      vertex 15.6008 -0.034362 4
    endloop
  endfacet
  facet normal 0 0 1
    outer loop
      vertex 34.549 -2.0259 4
      vertex 35.2596 -4.21297 4
      vertex 49 -22 4
    endloop
  endfacet
  facet normal 0 0 1
    outer loop
      vertex 9.875 7.48446 4
      vertex 8.125 7.48446 4
      vertex 17.1396 1.67459 4
    endloop
  endfacet
  facet normal 0 0 1
    outer loop
      vertex 49 19.5 4
      vertex 9.875 7.48446 4
      vertex 19 3.02628 4
    endloop
  endfacet
  facet normal 0 0 1
    outer loop
      vertex 34.549 -10.9741 4
      vertex 33.3992 -12.9656 4
      vertex 49 -22 4
    endloop
  endfacet
  facet normal 0 0 1
    outer loop
      vertex 49 19.5 4
      vertex 19 3.02628 4
      vertex 21.1008 3.96162 4
    endloop
  endfacet
  facet normal 0 0 1
    outer loop
      vertex 49 19.5 4
      vertex 21.1008 3.96162 4
      vertex 23.3502 4.43974 4
    endloop
  endfacet
  facet normal 0 0 1
    outer loop
      vertex 35.2596 -8.78703 4
      vertex 34.549 -10.9741 4
      vertex 49 -22 4
    endloop
  endfacet
  facet normal 0 0 1
    outer loop
      vertex 49 19.5 4
      vertex 23.3502 4.43974 4
      vertex 25.6498 4.43974 4
    endloop
  endfacet
  facet normal 0 0 1
    outer loop
      vertex 49 19.5 4
      vertex 25.6498 4.43974 4
      vertex 27.8992 3.96162 4
    endloop
  endfacet
  facet normal 0 0 1
    outer loop
      vertex 35.2596 -4.21297 4
      vertex 35.5 -6.5 4
      vertex 49 -22 4
    endloop
  endfacet
  facet normal 0 0 1
    outer loop
      vertex 49 19.5 4
      vertex 27.8992 3.96162 4
      vertex 30 3.02628 4
    endloop
  endfacet
  facet normal 0 0 1
    outer loop
      vertex 35.5 -6.5 4
      vertex 35.2596 -8.78703 4
      vertex 49 -22 4
    endloop
  endfacet
  facet normal 0 0 1
    outer loop
      vertex 38.25 9 4
      vertex 30 3.02628 4
      vertex 31.8604 1.67459 4
    endloop
  endfacet
  facet normal 0 0 1
    outer loop
      vertex 40.875 7.48446 4
      vertex 33.3992 -0.034362 4
      vertex 49 -22 4
    endloop
  endfacet
  facet normal 0 0 1
    outer loop
      vertex 39.125 7.48446 4
      vertex 31.8604 1.67459 4
      vertex 33.3992 -0.034362 4
    endloop
  endfacet
  facet normal 0 0 1
    outer loop
      vertex 33.3992 -0.034362 4
      vertex 34.549 -2.0259 4
      vertex 49 -22 4
    endloop
  endfacet
  facet normal 0 0 1
    outer loop
      vertex 49 -22 4
      vertex 33.3992 -12.9656 4
      vertex 48.7896 -23.9347 4
    endloop
  endfacet
  facet normal 0 0 1
    outer loop
      vertex 15.6008 -0.034362 4
      vertex 17.1396 1.67459 4
      vertex 8.125 7.48446 4
    endloop
  endfacet
  facet normal 0 0 1
    outer loop
      vertex 40.875 -20.4845 4
      vertex 41.75 -22 4
      vertex 48.1682 -25.779 4
    endloop
  endfacet
  facet normal 0 0 1
    outer loop
      vertex 39.125 -23.5155 4
      vertex 30 -16.0263 4
      vertex 44.2157 -29.9516 4
    endloop
  endfacet
  facet normal 0 0 1
    outer loop
      vertex 33.3992 -12.9656 4
      vertex 48.1682 -25.779 4
      vertex 48.7896 -23.9347 4
    endloop
  endfacet
  facet normal 0 0 1
    outer loop
      vertex 42.4078 -30.6719 4
      vertex 27.8992 -16.9616 4
      vertex 40.4872 -30.9868 4
    endloop
  endfacet
  facet normal 0 0 1
    outer loop
      vertex 40.875 -23.5155 4
      vertex 45.8265 -28.8595 4
      vertex 47.1648 -27.4466 4
    endloop
  endfacet
  facet normal 0 0 1
    outer loop
      vertex 40.4872 -30.9868 4
      vertex 23.3502 -17.4397 4
      vertex 9.875 -20.4845 4
    endloop
  endfacet
  facet normal 0 0 1
    outer loop
      vertex 39.125 -23.5155 4
      vertex 38.25 -22 4
      vertex 30 -16.0263 4
    endloop
  endfacet
  facet normal 0 0 1
    outer loop
      vertex 23.3502 -17.4397 4
      vertex 21.1008 -16.9616 4
      vertex 9.875 -20.4845 4
    endloop
  endfacet
  facet normal 0 0 1
    outer loop
      vertex 21.1008 -16.9616 4
      vertex 19 -16.0263 4
      vertex 9.875 -20.4845 4
    endloop
  endfacet
  facet normal 0 0 1
    outer loop
      vertex 19 -16.0263 4
      vertex 17.1396 -14.6746 4
      vertex 9.875 -20.4845 4
    endloop
  endfacet
  facet normal 0 0 1
    outer loop
      vertex 17.1396 -14.6746 4
      vertex 15.6008 -12.9656 4
      vertex 9.875 -20.4845 4
    endloop
  endfacet
  facet normal 0 0 1
    outer loop
      vertex 15.6008 -12.9656 4
      vertex 14.451 -10.9741 4
      vertex 9.875 -20.4845 4
    endloop
  endfacet
  facet normal 0 0 1
    outer loop
      vertex 45.8265 -28.8595 4
      vertex 39.125 -23.5155 4
      vertex 44.2157 -29.9516 4
    endloop
  endfacet
  facet normal 0 0 1
    outer loop
      vertex 38.25 -22 4
      vertex 39.125 -20.4845 4
      vertex 31.8604 -14.6746 4
    endloop
  endfacet
  facet normal 0 0 1
    outer loop
      vertex 30 -16.0263 4
      vertex 27.8992 -16.9616 4
      vertex 42.4078 -30.6719 4
    endloop
  endfacet
  facet normal 0 0 1
    outer loop
      vertex 41.75 -22 4
      vertex 40.875 -23.5155 4
      vertex 47.1648 -27.4466 4
    endloop
  endfacet
  facet normal 0 0 1
    outer loop
      vertex 31.8604 -14.6746 4
      vertex 30 -16.0263 4
      vertex 38.25 -22 4
    endloop
  endfacet
  facet normal 0 0 1
    outer loop
      vertex 40.875 7.48446 4
      vertex 39.125 7.48446 4
      vertex 33.3992 -0.034362 4
    endloop
  endfacet
  facet normal 0 0 1
    outer loop
      vertex 41.75 -22 4
      vertex 47.1648 -27.4466 4
      vertex 48.1682 -25.779 4
    endloop
  endfacet
  facet normal 0 0 1
    outer loop
      vertex 40.875 -23.5155 4
      vertex 39.125 -23.5155 4
      vertex 45.8265 -28.8595 4
    endloop
  endfacet
  facet normal 0 0 1
    outer loop
      vertex 39.125 10.5155 4
      vertex 30 3.02628 4
      vertex 38.25 9 4
    endloop
  endfacet
  facet normal 0 0 1
    outer loop
      vertex 40.875 10.5155 4
      vertex 41.75 9 4
      vertex 49 19.5 4
    endloop
  endfacet
  facet normal 0 0 1
    outer loop
      vertex 49 19.5 4
      vertex 30 3.02628 4
      vertex 39.125 10.5155 4
    endloop
  endfacet
  facet normal 0 0 1
    outer loop
      vertex 39.125 10.5155 4
      vertex 40.875 10.5155 4
      vertex 49 19.5 4
    endloop
  endfacet
  facet normal 0 0 1
    outer loop
      vertex 49 19.5 4
      vertex 41.75 9 4
      vertex 49 -22 4
    endloop
  endfacet
  facet normal 0 0 1
    outer loop
      vertex 41.75 9 4
      vertex 40.875 7.48446 4
      vertex 49 -22 4
    endloop
  endfacet
  facet normal 0 0 1
    outer loop
      vertex 39.125 7.48446 4
      vertex 38.25 9 4
      vertex 31.8604 1.67459 4
    endloop
  endfacet
  facet normal 0 0 1
    outer loop
      vertex 9.875 -20.4845 4
      vertex 10.75 -22 4
      vertex 40.4872 -30.9868 4
    endloop
  endfacet
  facet normal 0 0 1
    outer loop
      vertex 8.125 -23.5155 4
      vertex 7.25 -22 4
      vertex 9.48725 -30.9868 4
    endloop
  endfacet
  facet normal 0 0 1
    outer loop
      vertex 25.6498 -17.4397 4
      vertex 23.3502 -17.4397 4
      vertex 40.4872 -30.9868 4
    endloop
  endfacet
  facet normal 0 0 1
    outer loop
      vertex 13.7404 -4.21297 4
      vertex 14.451 -2.0259 4
      vertex 0.052758 9.97307 4
    endloop
  endfacet
  facet normal 0 0 1
    outer loop
      vertex 14.451 -2.0259 4
      vertex 15.6008 -0.034362 4
      vertex 0.052758 9.97307 4
    endloop
  endfacet
  facet normal 0 -1 0
    outer loop
      vertex 24.9775 19.5 4.79178
      vertex 17.5 19.5 4
      vertex 49 19.5 4
    endloop
  endfacet
  facet normal 0 -1 0
    outer loop
      vertex 24.9775 19.5 4.79178
      vertex 23.125 19.5 5.11843
      vertex 17.5 19.5 4
    endloop
  endfacet
  facet normal 0 -1 0
    outer loop
      vertex 17.5 19.5 30
      vertex 17.5 19.5 4
      vertex 21.9158 19.5 6.55945
    endloop
  endfacet
  facet normal 0 -1 0
    outer loop
      vertex 27.25 19.5 7.5
      vertex 26.6066 19.5 5.73233
      vertex 49 19.5 4
    endloop
  endfacet
  facet normal 0 -1 0
    outer loop
      vertex 17.5 19.5 30
      vertex 21.9158 19.5 6.55945
      vertex 21.9158 19.5 8.44055
    endloop
  endfacet
  facet normal 0 -1 0
    outer loop
      vertex 21.9158 19.5 25.5594
      vertex 21.9158 19.5 27.4406
      vertex 17.5 19.5 30
    endloop
  endfacet
  facet normal 0 -1 0
    outer loop
      vertex 17.5 19.5 30
      vertex 21.9158 19.5 8.44055
      vertex 23.125 19.5 9.88157
    endloop
  endfacet
  facet normal 0 -1 0
    outer loop
      vertex 23.125 19.5 24.1184
      vertex 24.9775 19.5 10.2082
      vertex 49 19.5 4
    endloop
  endfacet
  facet normal 0 -1 0
    outer loop
      vertex 17.5 19.5 30
      vertex 23.125 19.5 9.88157
      vertex 24.9775 19.5 10.2082
    endloop
  endfacet
  facet normal 0 -1 0
    outer loop
      vertex 24.9775 19.5 10.2082
      vertex 26.6066 19.5 9.26767
      vertex 49 19.5 4
    endloop
  endfacet
  facet normal 0 -1 0
    outer loop
      vertex 26.6066 19.5 5.73233
      vertex 24.9775 19.5 4.79178
      vertex 49 19.5 4
    endloop
  endfacet
  facet normal 0 -1 0
    outer loop
      vertex 21.9158 19.5 6.55945
      vertex 17.5 19.5 4
      vertex 23.125 19.5 5.11843
    endloop
  endfacet
  facet normal 0 -1 0
    outer loop
      vertex 17.5 19.5 30
      vertex 24.9775 19.5 10.2082
      vertex 21.9158 19.5 25.5594
    endloop
  endfacet
  facet normal 0 -1 0
    outer loop
      vertex 24.9775 19.5 23.7918
      vertex 23.125 19.5 24.1184
      vertex 49 19.5 4
    endloop
  endfacet
  facet normal 0 -1 0
    outer loop
      vertex 23.125 19.5 28.8816
      vertex 17.5 19.5 30
      vertex 21.9158 19.5 27.4406
    endloop
  endfacet
  facet normal 0 -1 0
    outer loop
      vertex 24.9775 19.5 29.2082
      vertex 17.5 19.5 30
      vertex 23.125 19.5 28.8816
    endloop
  endfacet
  facet normal 0 -1 0
    outer loop
      vertex 26.6066 19.5 28.2677
      vertex 27.25 19.5 26.5
      vertex 49 19.5 30
    endloop
  endfacet
  facet normal 0 -1 0
    outer loop
      vertex 49 19.5 30
      vertex 17.5 19.5 30
      vertex 24.9775 19.5 29.2082
    endloop
  endfacet
  facet normal 0 -1 0
    outer loop
      vertex 26.6066 19.5 24.7323
      vertex 24.9775 19.5 23.7918
      vertex 49 19.5 4
    endloop
  endfacet
  facet normal 0 -1 0
    outer loop
      vertex 49 19.5 30
      vertex 27.25 19.5 26.5
      vertex 49 19.5 4
    endloop
  endfacet
  facet normal 0 -1 0
    outer loop
      vertex 27.25 19.5 26.5
      vertex 26.6066 19.5 24.7323
      vertex 49 19.5 4
    endloop
  endfacet
  facet normal 0 -1 0
    outer loop
      vertex 24.9775 19.5 29.2082
      vertex 26.6066 19.5 28.2677
      vertex 49 19.5 30
    endloop
  endfacet
  facet normal 0 -1 0
    outer loop
      vertex 21.9158 19.5 25.5594
      vertex 24.9775 19.5 10.2082
      vertex 23.125 19.5 24.1184
    endloop
  endfacet
  facet normal 0 -1 0
    outer loop
      vertex 26.6066 19.5 9.26767
      vertex 27.25 19.5 7.5
      vertex 49 19.5 4
    endloop
  endfacet
  facet normal 0 0 1
    outer loop
      vertex 17.5 27 30
      vertex 17.5 19.5 30
      vertex 49 19.5 30
    endloop
  endfacet
  facet normal 0 0 1
    outer loop
      vertex 49 27 30
      vertex 17.5 27 30
      vertex 49 19.5 30
    endloop
  endfacet
  facet normal -1 0 0
    outer loop
      vertex 17.5 19.5 4
      vertex 17.5 19.5 30
      vertex 17.5 27 4
    endloop
  endfacet
  facet normal -1 0 0
    outer loop
      vertex 17.5 27 4
      vertex 17.5 19.5 30
      vertex 17.5 27 30
    endloop
  endfacet
  facet normal 0.866025 -1.11022e-16 -0.5
    outer loop
      vertex 22.75 27 7.5
      vertex 23.625 27 9.01554
      vertex 23.625 23.35 9.01554
    endloop
  endfacet
  facet normal 0.866025 -1.11022e-16 -0.5
    outer loop
      vertex 22.75 23.35 7.5
      vertex 22.75 27 7.5
      vertex 23.625 23.35 9.01554
    endloop
  endfacet
  facet normal 0.866025 1.11022e-16 0.5
    outer loop
      vertex 23.625 23.35 5.98446
      vertex 23.625 27 5.98446
      vertex 22.75 27 7.5
    endloop
  endfacet
  facet normal 0.866025 1.11022e-16 0.5
    outer loop
      vertex 22.75 23.35 7.5
      vertex 23.625 23.35 5.98446
      vertex 22.75 27 7.5
    endloop
  endfacet
  facet normal 0 -2.22045e-16 -1
    outer loop
      vertex 25.375 27 9.01554
      vertex 25.375 23.35 9.01554
      vertex 23.625 27 9.01554
    endloop
  endfacet
  facet normal 0 -2.22045e-16 -1
    outer loop
      vertex 23.625 27 9.01554
      vertex 25.375 23.35 9.01554
      vertex 23.625 23.35 9.01554
    endloop
  endfacet
  facet normal -0.866025 -1.11022e-16 -0.5
    outer loop
      vertex 26.25 27 7.5
      vertex 26.25 23.35 7.5
      vertex 25.375 27 9.01554
    endloop
  endfacet
  facet normal -0.866025 -1.11022e-16 -0.5
    outer loop
      vertex 25.375 27 9.01554
      vertex 26.25 23.35 7.5
      vertex 25.375 23.35 9.01554
    endloop
  endfacet
  facet normal -0.866025 1.11022e-16 0.5
    outer loop
      vertex 26.25 27 7.5
      vertex 25.375 27 5.98446
      vertex 26.25 23.35 7.5
    endloop
  endfacet
  facet normal -0.866025 1.11022e-16 0.5
    outer loop
      vertex 26.25 23.35 7.5
      vertex 25.375 27 5.98446
      vertex 25.375 23.35 5.98446
    endloop
  endfacet
  facet normal 0 2.22045e-16 1
    outer loop
      vertex 25.375 23.35 5.98446
      vertex 25.375 27 5.98446
      vertex 23.625 27 5.98446
    endloop
  endfacet
  facet normal 0 2.22045e-16 1
    outer loop
      vertex 23.625 23.35 5.98446
      vertex 25.375 23.35 5.98446
      vertex 23.625 27 5.98446
    endloop
  endfacet
  facet normal 0.866025 -1.11022e-16 -0.5
    outer loop
      vertex 22.75 27 26.5
      vertex 23.625 27 28.0155
      vertex 23.625 23.35 28.0155
    endloop
  endfacet
  facet normal 0.866025 -1.11022e-16 -0.5
    outer loop
      vertex 22.75 23.35 26.5
      vertex 22.75 27 26.5
      vertex 23.625 23.35 28.0155
    endloop
  endfacet
  facet normal 0.866025 1.11022e-16 0.5
    outer loop
      vertex 23.625 23.35 24.9845
      vertex 23.625 27 24.9845
      vertex 22.75 27 26.5
    endloop
  endfacet
  facet normal 0.866025 1.11022e-16 0.5
    outer loop
      vertex 22.75 23.35 26.5
      vertex 23.625 23.35 24.9845
      vertex 22.75 27 26.5
    endloop
  endfacet
  facet normal 0 -2.22045e-16 -1
    outer loop
      vertex 25.375 27 28.0155
      vertex 25.375 23.35 28.0155
      vertex 23.625 27 28.0155
    endloop
  endfacet
  facet normal 0 -2.22045e-16 -1
    outer loop
      vertex 23.625 27 28.0155
      vertex 25.375 23.35 28.0155
      vertex 23.625 23.35 28.0155
    endloop
  endfacet
  facet normal -0.866025 -1.11022e-16 -0.5
    outer loop
      vertex 26.25 27 26.5
      vertex 26.25 23.35 26.5
      vertex 25.375 27 28.0155
    endloop
  endfacet
  facet normal -0.866025 -1.11022e-16 -0.5
    outer loop
      vertex 25.375 27 28.0155
      vertex 26.25 23.35 26.5
      vertex 25.375 23.35 28.0155
    endloop
  endfacet
  facet normal -0.866025 1.11022e-16 0.5
    outer loop
      vertex 26.25 27 26.5
      vertex 25.375 27 24.9845
      vertex 26.25 23.35 26.5
    endloop
  endfacet
  facet normal -0.866025 1.11022e-16 0.5
    outer loop
      vertex 26.25 23.35 26.5
      vertex 25.375 27 24.9845
      vertex 25.375 23.35 24.9845
    endloop
  endfacet
  facet normal 0 2.22045e-16 1
    outer loop
      vertex 25.375 23.35 24.9845
      vertex 25.375 27 24.9845
      vertex 23.625 27 24.9845
    endloop
  endfacet
  facet normal 0 2.22045e-16 1
    outer loop
      vertex 23.625 23.35 24.9845
      vertex 25.375 23.35 24.9845
      vertex 23.625 27 24.9845
    endloop
  endfacet
  facet normal 1 0 0
    outer loop
      vertex 21.9158 23.35 6.55944
      vertex 21.9158 23.35 8.44055
      vertex 21.9158 19.5 8.44055
    endloop
  endfacet
  facet normal 1 0 0
    outer loop
      vertex 21.9158 19.5 6.55945
      vertex 21.9158 23.35 6.55944
      vertex 21.9158 19.5 8.44055
    endloop
  endfacet
  facet normal 0.766044 1.42728e-16 0.642788
    outer loop
      vertex 23.125 19.5 5.11843
      vertex 23.125 23.35 5.11843
      vertex 21.9158 23.35 6.55944
    endloop
  endfacet
  facet normal 0.766044 1.42728e-16 0.642788
    outer loop
      vertex 21.9158 19.5 6.55945
      vertex 23.125 19.5 5.11843
      vertex 21.9158 23.35 6.55944
    endloop
  endfacet
  facet normal 0.173648 2.18671e-16 0.984808
    outer loop
      vertex 24.9775 19.5 4.79178
      vertex 24.9775 23.35 4.79178
      vertex 23.125 23.35 5.11843
    endloop
  endfacet
  facet normal 0.173648 2.18671e-16 0.984808
    outer loop
      vertex 23.125 19.5 5.11843
      vertex 24.9775 19.5 4.79178
      vertex 23.125 23.35 5.11843
    endloop
  endfacet
  facet normal -0.5 1.92296e-16 0.866026
    outer loop
      vertex 26.6066 19.5 5.73233
      vertex 26.6066 23.35 5.73233
      vertex 24.9775 23.35 4.79178
    endloop
  endfacet
  facet normal -0.5 1.92296e-16 0.866026
    outer loop
      vertex 24.9775 19.5 4.79178
      vertex 26.6066 19.5 5.73233
      vertex 24.9775 23.35 4.79178
    endloop
  endfacet
  facet normal -0.939693 7.59437e-17 0.34202
    outer loop
      vertex 27.25 23.35 7.5
      vertex 26.6066 23.35 5.73233
      vertex 27.25 19.5 7.5
    endloop
  endfacet
  facet normal -0.939693 7.59437e-17 0.34202
    outer loop
      vertex 27.25 19.5 7.5
      vertex 26.6066 23.35 5.73233
      vertex 26.6066 19.5 5.73233
    endloop
  endfacet
  facet normal -0.939693 -7.59437e-17 -0.34202
    outer loop
      vertex 27.25 23.35 7.5
      vertex 27.25 19.5 7.5
      vertex 26.6066 23.35 9.26767
    endloop
  endfacet
  facet normal -0.939693 -7.59437e-17 -0.34202
    outer loop
      vertex 26.6066 23.35 9.26767
      vertex 27.25 19.5 7.5
      vertex 26.6066 19.5 9.26767
    endloop
  endfacet
  facet normal -0.5 -1.92296e-16 -0.866026
    outer loop
      vertex 26.6066 23.35 9.26767
      vertex 26.6066 19.5 9.26767
      vertex 24.9775 23.35 10.2082
    endloop
  endfacet
  facet normal -0.5 -1.92296e-16 -0.866026
    outer loop
      vertex 24.9775 23.35 10.2082
      vertex 26.6066 19.5 9.26767
      vertex 24.9775 19.5 10.2082
    endloop
  endfacet
  facet normal 0.173648 -2.18671e-16 -0.984808
    outer loop
      vertex 24.9775 23.35 10.2082
      vertex 24.9775 19.5 10.2082
      vertex 23.125 23.35 9.88157
    endloop
  endfacet
  facet normal 0.173648 -2.18671e-16 -0.984808
    outer loop
      vertex 23.125 23.35 9.88157
      vertex 24.9775 19.5 10.2082
      vertex 23.125 19.5 9.88157
    endloop
  endfacet
  facet normal 0.766044 -1.42728e-16 -0.642788
    outer loop
      vertex 21.9158 23.35 8.44055
      vertex 23.125 23.35 9.88157
      vertex 23.125 19.5 9.88157
    endloop
  endfacet
  facet normal 0.766044 -1.42728e-16 -0.642788
    outer loop
      vertex 21.9158 19.5 8.44055
      vertex 21.9158 23.35 8.44055
      vertex 23.125 19.5 9.88157
    endloop
  endfacet
  facet normal 1 0 0
    outer loop
      vertex 21.9158 23.35 25.5594
      vertex 21.9158 23.35 27.4406
      vertex 21.9158 19.5 27.4406
    endloop
  endfacet
  facet normal 1 0 0
    outer loop
      vertex 21.9158 19.5 25.5594
      vertex 21.9158 23.35 25.5594
      vertex 21.9158 19.5 27.4406
    endloop
  endfacet
  facet normal 0.766044 1.42728e-16 0.642788
    outer loop
      vertex 23.125 19.5 24.1184
      vertex 23.125 23.35 24.1184
      vertex 21.9158 23.35 25.5594
    endloop
  endfacet
  facet normal 0.766044 1.42728e-16 0.642788
    outer loop
      vertex 21.9158 19.5 25.5594
      vertex 23.125 19.5 24.1184
      vertex 21.9158 23.35 25.5594
    endloop
  endfacet
  facet normal 0.173648 2.18671e-16 0.984808
    outer loop
      vertex 24.9775 19.5 23.7918
      vertex 24.9775 23.35 23.7918
      vertex 23.125 23.35 24.1184
    endloop
  endfacet
  facet normal 0.173648 2.18671e-16 0.984808
    outer loop
      vertex 23.125 19.5 24.1184
      vertex 24.9775 19.5 23.7918
      vertex 23.125 23.35 24.1184
    endloop
  endfacet
  facet normal -0.5 1.92296e-16 0.866026
    outer loop
      vertex 26.6066 19.5 24.7323
      vertex 26.6066 23.35 24.7323
      vertex 24.9775 23.35 23.7918
    endloop
  endfacet
  facet normal -0.5 1.92296e-16 0.866026
    outer loop
      vertex 24.9775 19.5 23.7918
      vertex 26.6066 19.5 24.7323
      vertex 24.9775 23.35 23.7918
    endloop
  endfacet
  facet normal -0.939693 7.59437e-17 0.34202
    outer loop
      vertex 27.25 23.35 26.5
      vertex 26.6066 23.35 24.7323
      vertex 27.25 19.5 26.5
    endloop
  endfacet
  facet normal -0.939693 7.59437e-17 0.34202
    outer loop
      vertex 27.25 19.5 26.5
      vertex 26.6066 23.35 24.7323
      vertex 26.6066 19.5 24.7323
    endloop
  endfacet
  facet normal -0.939693 -7.59437e-17 -0.34202
    outer loop
      vertex 27.25 23.35 26.5
      vertex 27.25 19.5 26.5
      vertex 26.6066 23.35 28.2677
    endloop
  endfacet
  facet normal -0.939693 -7.59437e-17 -0.34202
    outer loop
      vertex 26.6066 23.35 28.2677
      vertex 27.25 19.5 26.5
      vertex 26.6066 19.5 28.2677
    endloop
  endfacet
  facet normal -0.5 -1.92296e-16 -0.866026
    outer loop
      vertex 26.6066 23.35 28.2677
      vertex 26.6066 19.5 28.2677
      vertex 24.9775 23.35 29.2082
    endloop
  endfacet
  facet normal -0.5 -1.92296e-16 -0.866026
    outer loop
      vertex 24.9775 23.35 29.2082
      vertex 26.6066 19.5 28.2677
      vertex 24.9775 19.5 29.2082
    endloop
  endfacet
  facet normal 0.173648 -2.18671e-16 -0.984808
    outer loop
      vertex 24.9775 23.35 29.2082
      vertex 24.9775 19.5 29.2082
      vertex 23.125 23.35 28.8816
    endloop
  endfacet
  facet normal 0.173648 -2.18671e-16 -0.984808
    outer loop
      vertex 23.125 23.35 28.8816
      vertex 24.9775 19.5 29.2082
      vertex 23.125 19.5 28.8816
    endloop
  endfacet
  facet normal 0.766044 -1.42728e-16 -0.642788
    outer loop
      vertex 21.9158 23.35 27.4406
      vertex 23.125 23.35 28.8816
      vertex 23.125 19.5 28.8816
    endloop
  endfacet
  facet normal 0.766044 -1.42728e-16 -0.642788
    outer loop
      vertex 21.9158 19.5 27.4406
      vertex 21.9158 23.35 27.4406
      vertex 23.125 19.5 28.8816
    endloop
  endfacet
  facet normal 0 -1 2.22045e-16
    outer loop
      vertex 23.125 23.35 5.11843
      vertex 24.9775 23.35 4.79178
      vertex 26.6066 23.35 5.73233
    endloop
  endfacet
  facet normal 0 -1 2.22045e-16
    outer loop
      vertex 25.375 23.35 5.98446
      vertex 23.125 23.35 5.11843
      vertex 26.6066 23.35 5.73233
    endloop
  endfacet
  facet normal 0 -1 2.22045e-16
    outer loop
      vertex 26.25 23.35 7.5
      vertex 25.375 23.35 5.98446
      vertex 27.25 23.35 7.5
    endloop
  endfacet
  facet normal 0 -1 2.22045e-16
    outer loop
      vertex 23.625 23.35 9.01554
      vertex 25.375 23.35 9.01554
      vertex 24.9775 23.35 10.2082
    endloop
  endfacet
  facet normal 0 -1 2.22045e-16
    outer loop
      vertex 21.9158 23.35 6.55944
      vertex 23.125 23.35 5.11843
      vertex 21.9158 23.35 8.44055
    endloop
  endfacet
  facet normal 0 -1 2.22045e-16
    outer loop
      vertex 21.9158 23.35 8.44055
      vertex 22.75 23.35 7.5
      vertex 23.125 23.35 9.88157
    endloop
  endfacet
  facet normal 0 -1 2.22045e-16
    outer loop
      vertex 21.9158 23.35 8.44055
      vertex 23.125 23.35 5.11843
      vertex 22.75 23.35 7.5
    endloop
  endfacet
  facet normal 0 -1 2.22045e-16
    outer loop
      vertex 23.125 23.35 9.88157
      vertex 23.625 23.35 9.01554
      vertex 24.9775 23.35 10.2082
    endloop
  endfacet
  facet normal 0 -1 2.22045e-16
    outer loop
      vertex 24.9775 23.35 10.2082
      vertex 25.375 23.35 9.01554
      vertex 26.6066 23.35 9.26767
    endloop
  endfacet
  facet normal 0 -1 2.22045e-16
    outer loop
      vertex 26.6066 23.35 9.26767
      vertex 26.25 23.35 7.5
      vertex 27.25 23.35 7.5
    endloop
  endfacet
  facet normal 0 -1 2.22045e-16
    outer loop
      vertex 27.25 23.35 7.5
      vertex 25.375 23.35 5.98446
      vertex 26.6066 23.35 5.73233
    endloop
  endfacet
  facet normal 0 -1 2.22045e-16
    outer loop
      vertex 22.75 23.35 7.5
      vertex 23.625 23.35 9.01554
      vertex 23.125 23.35 9.88157
    endloop
  endfacet
  facet normal 0 -1 2.22045e-16
    outer loop
      vertex 25.375 23.35 5.98446
      vertex 23.625 23.35 5.98446
      vertex 23.125 23.35 5.11843
    endloop
  endfacet
  facet normal 0 -1 2.22045e-16
    outer loop
      vertex 25.375 23.35 9.01554
      vertex 26.25 23.35 7.5
      vertex 26.6066 23.35 9.26767
    endloop
  endfacet
  facet normal 0 -1 2.22045e-16
    outer loop
      vertex 23.625 23.35 5.98446
      vertex 22.75 23.35 7.5
      vertex 23.125 23.35 5.11843
    endloop
  endfacet
  facet normal 0 -1 2.22045e-16
    outer loop
      vertex 23.125 23.35 24.1184
      vertex 24.9775 23.35 23.7918
      vertex 26.6066 23.35 24.7323
    endloop
  endfacet
  facet normal 0 -1 2.22045e-16
    outer loop
      vertex 25.375 23.35 24.9845
      vertex 23.125 23.35 24.1184
      vertex 26.6066 23.35 24.7323
    endloop
  endfacet
  facet normal 0 -1 2.22045e-16
    outer loop
      vertex 26.25 23.35 26.5
      vertex 25.375 23.35 24.9845
      vertex 27.25 23.35 26.5
    endloop
  endfacet
  facet normal 0 -1 2.22045e-16
    outer loop
      vertex 23.625 23.35 28.0155
      vertex 25.375 23.35 28.0155
      vertex 24.9775 23.35 29.2082
    endloop
  endfacet
  facet normal 0 -1 2.22045e-16
    outer loop
      vertex 21.9158 23.35 25.5594
      vertex 23.125 23.35 24.1184
      vertex 21.9158 23.35 27.4406
    endloop
  endfacet
  facet normal 0 -1 2.22045e-16
    outer loop
      vertex 21.9158 23.35 27.4406
      vertex 22.75 23.35 26.5
      vertex 23.125 23.35 28.8816
    endloop
  endfacet
  facet normal 0 -1 2.22045e-16
    outer loop
      vertex 21.9158 23.35 27.4406
      vertex 23.125 23.35 24.1184
      vertex 22.75 23.35 26.5
    endloop
  endfacet
  facet normal 0 -1 2.22045e-16
    outer loop
      vertex 23.125 23.35 28.8816
      vertex 23.625 23.35 28.0155
      vertex 24.9775 23.35 29.2082
    endloop
  endfacet
  facet normal 0 -1 2.22045e-16
    outer loop
      vertex 24.9775 23.35 29.2082
      vertex 25.375 23.35 28.0155
      vertex 26.6066 23.35 28.2677
    endloop
  endfacet
  facet normal 0 -1 2.22045e-16
    outer loop
      vertex 26.6066 23.35 28.2677
      vertex 26.25 23.35 26.5
      vertex 27.25 23.35 26.5
    endloop
  endfacet
  facet normal 0 -1 2.22045e-16
    outer loop
      vertex 27.25 23.35 26.5
      vertex 25.375 23.35 24.9845
      vertex 26.6066 23.35 24.7323
    endloop
  endfacet
  facet normal 0 -1 2.22045e-16
    outer loop
      vertex 22.75 23.35 26.5
      vertex 23.625 23.35 28.0155
      vertex 23.125 23.35 28.8816
    endloop
  endfacet
  facet normal 0 -1 2.22045e-16
    outer loop
      vertex 25.375 23.35 24.9845
      vertex 23.625 23.35 24.9845
      vertex 23.125 23.35 24.1184
    endloop
  endfacet
  facet normal 0 -1 2.22045e-16
    outer loop
      vertex 25.375 23.35 28.0155
      vertex 26.25 23.35 26.5
      vertex 26.6066 23.35 28.2677
    endloop
  endfacet
  facet normal 0 -1 2.22045e-16
    outer loop
      vertex 23.625 23.35 24.9845
      vertex 22.75 23.35 26.5
      vertex 23.125 23.35 24.1184
    endloop
  endfacet
endsolid OpenSCAD_Model
