solid OpenSCAD_Model
  facet normal -1 0 0
    outer loop
      vertex -34 0 0
      vertex -34 0 4
      vertex -34 16 0
    endloop
  endfacet
  facet normal -1 0 0
    outer loop
      vertex -34 16 0
      vertex -34 0 4
      vertex -34 16 4
    endloop
  endfacet
  facet normal 0 -1 0
    outer loop
      vertex -34 0 4
      vertex -34 0 0
      vertex -3.88377 0 0
    endloop
  endfacet
  facet normal 0 -1 0
    outer loop
      vertex -2.99404 0 2.65249
      vertex -34 0 4
      vertex -3.88377 0 0.957263
    endloop
  endfacet
  facet normal 0 -1 0
    outer loop
      vertex -3.88377 0 0.957263
      vertex -34 0 4
      vertex -3.88377 0 0
    endloop
  endfacet
  facet normal 0 -1 0
    outer loop
      vertex -1.41842 0 3.74007
      vertex -34 0 4
      vertex -2.99404 0 2.65249
    endloop
  endfacet
  facet normal 0 -1 0
    outer loop
      vertex 0.482147 0 3.97084
      vertex -34 0 4
      vertex -1.41842 0 3.74007
    endloop
  endfacet
  facet normal 0 -1 0
    outer loop
      vertex 26 0 4
      vertex -26 0 4
      vertex 0.482147 0 3.97084
    endloop
  endfacet
  facet normal 0 -1 0
    outer loop
      vertex 34 0 0
      vertex 0.482147 0 3.97084
      vertex 2.27226 0 3.29194
    endloop
  endfacet
  facet normal 0 -1 0
    outer loop
      vertex 34 0 0
      vertex 2.27226 0 3.29194
      vertex 3.54182 0 1.85889
    endloop
  endfacet
  facet normal 0 -1 0
    outer loop
      vertex 34 0 0
      vertex 3.54182 0 1.85889
      vertex 4 0 1.11022e-15
    endloop
  endfacet
  facet normal 0 -1 0
    outer loop
      vertex 34 0 0
      vertex 4 0 1.11022e-15
      vertex 4 0 0
    endloop
  endfacet
  facet normal 0 -1 0
    outer loop
      vertex 34 0 4
      vertex 0.482147 0 3.97084
      vertex 34 0 0
    endloop
  endfacet
  facet normal 0 -1 0
    outer loop
      vertex -26 0 4
      vertex -34 0 4
      vertex 0.482147 0 3.97084
    endloop
  endfacet
  facet normal 0 -1 0
    outer loop
      vertex 34 0 4
      vertex 26 0 4
      vertex 0.482147 0 3.97084
    endloop
  endfacet
  facet normal 0 -1 0
    outer loop
      vertex -10.0058 0 20.3225
      vertex -15.8 0 10.8856
      vertex -8.80369 0 18.2405
    endloop
  endfacet
  facet normal 0 -1 0
    outer loop
      vertex -15.8 0 39.1144
      vertex -11 0 25
      vertex -14.2 0 39.1144
    endloop
  endfacet
  facet normal 0 -1 0
    outer loop
      vertex 26 0 52
      vertex 12 0 25
      vertex 26 0 4
    endloop
  endfacet
  facet normal 0 -1 0
    outer loop
      vertex 12 0 25
      vertex 11.7487 0 22.609
      vertex 26 0 4
    endloop
  endfacet
  facet normal 0 -1 0
    outer loop
      vertex 11.7487 0 22.609
      vertex 11.0058 0 20.3225
      vertex 26 0 4
    endloop
  endfacet
  facet normal 0 -1 0
    outer loop
      vertex 11.0058 0 20.3225
      vertex 9.80369 0 18.2405
      vertex 26 0 4
    endloop
  endfacet
  facet normal 0 -1 0
    outer loop
      vertex -3.05369 0 14.0629
      vertex -5.25 0 15.0407
      vertex -15.8 0 10.8856
    endloop
  endfacet
  facet normal 0 -1 0
    outer loop
      vertex 16.8 0 10.8856
      vertex 17.6 0 9.5
      vertex 26 0 4
    endloop
  endfacet
  facet normal 0 -1 0
    outer loop
      vertex 15.2 0 41.8856
      vertex 16.8 0 41.8856
      vertex 26 0 52
    endloop
  endfacet
  facet normal 0 -1 0
    outer loop
      vertex -14.2 0 10.8856
      vertex 1.70208 0 13.563
      vertex -0.702077 0 13.563
    endloop
  endfacet
  facet normal 0 -1 0
    outer loop
      vertex -13.4 0 40.5
      vertex -11 0 52
      vertex -14.2 0 41.8856
    endloop
  endfacet
  facet normal 0 -1 0
    outer loop
      vertex 15.2 0 8.11436
      vertex 14.4 0 9.5
      vertex 4.05369 0 14.0629
    endloop
  endfacet
  facet normal 0 -1 0
    outer loop
      vertex -26 0 52
      vertex -10.0058 0 20.3225
      vertex -10.7487 0 22.609
    endloop
  endfacet
  facet normal 0 -1 0
    outer loop
      vertex -8.80369 0 18.2405
      vertex -15.8 0 10.8856
      vertex -7.195 0 16.4538
    endloop
  endfacet
  facet normal 0 -1 0
    outer loop
      vertex -26 0 52
      vertex -15.8 0 10.8856
      vertex -10.0058 0 20.3225
    endloop
  endfacet
  facet normal 0 -1 0
    outer loop
      vertex -26 0 52
      vertex -11 0 25
      vertex -15.8 0 39.1144
    endloop
  endfacet
  facet normal 0 -1 0
    outer loop
      vertex 15.2 0 8.11436
      vertex -26 0 4
      vertex 26 0 4
    endloop
  endfacet
  facet normal 0 -1 0
    outer loop
      vertex -14.2 0 8.11436
      vertex -15.8 0 8.11436
      vertex -26 0 4
    endloop
  endfacet
  facet normal 0 -1 0
    outer loop
      vertex -14.2 0 10.8856
      vertex -0.702077 0 13.563
      vertex -3.05369 0 14.0629
    endloop
  endfacet
  facet normal 0 -1 0
    outer loop
      vertex -3.05369 0 14.0629
      vertex -15.8 0 10.8856
      vertex -14.2 0 10.8856
    endloop
  endfacet
  facet normal 0 -1 0
    outer loop
      vertex -11 0 25
      vertex -13.4 0 40.5
      vertex -14.2 0 39.1144
    endloop
  endfacet
  facet normal 0 -1 0
    outer loop
      vertex 1.70208 0 13.563
      vertex -13.4 0 9.5
      vertex 4.05369 0 14.0629
    endloop
  endfacet
  facet normal 0 -1 0
    outer loop
      vertex -14.2 0 10.8856
      vertex -13.4 0 9.5
      vertex 1.70208 0 13.563
    endloop
  endfacet
  facet normal 0 -1 0
    outer loop
      vertex 4.05369 0 14.0629
      vertex -14.2 0 8.11436
      vertex -26 0 4
    endloop
  endfacet
  facet normal 0 -1 0
    outer loop
      vertex -26 0 52
      vertex -16.6 0 40.5
      vertex -11 0 52
    endloop
  endfacet
  facet normal 0 -1 0
    outer loop
      vertex -16.6 0 40.5
      vertex -15.8 0 41.8856
      vertex -11 0 52
    endloop
  endfacet
  facet normal 0 -1 0
    outer loop
      vertex -26 0 52
      vertex -15.8 0 39.1144
      vertex -16.6 0 40.5
    endloop
  endfacet
  facet normal 0 -1 0
    outer loop
      vertex 16.8 0 8.11436
      vertex 15.2 0 8.11436
      vertex 26 0 4
    endloop
  endfacet
  facet normal 0 -1 0
    outer loop
      vertex 4.05369 0 14.0629
      vertex -26 0 4
      vertex 15.2 0 8.11436
    endloop
  endfacet
  facet normal 0 -1 0
    outer loop
      vertex 6.25 0 15.0407
      vertex 4.05369 0 14.0629
      vertex 14.4 0 9.5
    endloop
  endfacet
  facet normal 0 -1 0
    outer loop
      vertex 8.195 0 16.4538
      vertex 6.25 0 15.0407
      vertex 15.2 0 10.8856
    endloop
  endfacet
  facet normal 0 -1 0
    outer loop
      vertex 9.80369 0 18.2405
      vertex 16.8 0 10.8856
      vertex 26 0 4
    endloop
  endfacet
  facet normal 0 -1 0
    outer loop
      vertex 9.80369 0 18.2405
      vertex 8.195 0 16.4538
      vertex 16.8 0 10.8856
    endloop
  endfacet
  facet normal 0 -1 0
    outer loop
      vertex 17.6 0 9.5
      vertex 16.8 0 8.11436
      vertex 26 0 4
    endloop
  endfacet
  facet normal 0 -1 0
    outer loop
      vertex 14.4 0 9.5
      vertex 15.2 0 10.8856
      vertex 6.25 0 15.0407
    endloop
  endfacet
  facet normal 0 -1 0
    outer loop
      vertex 15.2 0 10.8856
      vertex 16.8 0 10.8856
      vertex 8.195 0 16.4538
    endloop
  endfacet
  facet normal 0 -1 0
    outer loop
      vertex 16.8 0 39.1144
      vertex 15.2 0 39.1144
      vertex 12 0 25
    endloop
  endfacet
  facet normal 0 -1 0
    outer loop
      vertex -11 0 25
      vertex -11 0 52
      vertex -13.4 0 40.5
    endloop
  endfacet
  facet normal 0 -1 0
    outer loop
      vertex -26 0 52
      vertex -10.7487 0 22.609
      vertex -11 0 25
    endloop
  endfacet
  facet normal 0 -1 0
    outer loop
      vertex -7.195 0 16.4538
      vertex -15.8 0 10.8856
      vertex -5.25 0 15.0407
    endloop
  endfacet
  facet normal 0 -1 0
    outer loop
      vertex 26 0 52
      vertex 17.6 0 40.5
      vertex 12 0 25
    endloop
  endfacet
  facet normal 0 -1 0
    outer loop
      vertex 17.6 0 40.5
      vertex 16.8 0 39.1144
      vertex 12 0 25
    endloop
  endfacet
  facet normal 0 -1 0
    outer loop
      vertex 12 0 52
      vertex 15.2 0 41.8856
      vertex 26 0 52
    endloop
  endfacet
  facet normal 0 -1 0
    outer loop
      vertex 16.8 0 41.8856
      vertex 17.6 0 40.5
      vertex 26 0 52
    endloop
  endfacet
  facet normal 0 -1 0
    outer loop
      vertex 12 0 52
      vertex 14.4 0 40.5
      vertex 15.2 0 41.8856
    endloop
  endfacet
  facet normal 0 -1 0
    outer loop
      vertex 14.4 0 40.5
      vertex 12 0 25
      vertex 15.2 0 39.1144
    endloop
  endfacet
  facet normal 0 -1 0
    outer loop
      vertex 12 0 52
      vertex 12 0 25
      vertex 14.4 0 40.5
    endloop
  endfacet
  facet normal 0 -1 0
    outer loop
      vertex -26 0 52
      vertex -16.6 0 9.5
      vertex -15.8 0 10.8856
    endloop
  endfacet
  facet normal 0 -1 0
    outer loop
      vertex -13.4 0 9.5
      vertex -14.2 0 8.11436
      vertex 4.05369 0 14.0629
    endloop
  endfacet
  facet normal 0 -1 0
    outer loop
      vertex -15.8 0 41.8856
      vertex -14.2 0 41.8856
      vertex -11 0 52
    endloop
  endfacet
  facet normal 0 -1 0
    outer loop
      vertex -16.6 0 9.5
      vertex -26 0 4
      vertex -15.8 0 8.11436
    endloop
  endfacet
  facet normal 0 -1 0
    outer loop
      vertex -26 0 52
      vertex -26 0 4
      vertex -16.6 0 9.5
    endloop
  endfacet
  facet normal 0 0 -1
    outer loop
      vertex -3.88377 3.9 0
      vertex -3.88377 0 0
      vertex -22 3.9 0
    endloop
  endfacet
  facet normal 0 0 -1
    outer loop
      vertex -28.753 9.56366 0
      vertex -34 16 0
      vertex -22 3.9 0
    endloop
  endfacet
  facet normal 0 0 -1
    outer loop
      vertex -34 0 0
      vertex -22 3.9 0
      vertex -3.88377 0 0
    endloop
  endfacet
  facet normal 0 0 -1
    outer loop
      vertex -28.753 6.43634 0
      vertex -22 3.9 0
      vertex -30.445 6.05014 0
    endloop
  endfacet
  facet normal 0 0 -1
    outer loop
      vertex -34 0 0
      vertex -34 16 0
      vertex -31.8019 8.86777 0
    endloop
  endfacet
  facet normal 0 0 -1
    outer loop
      vertex -34 0 0
      vertex -31.8019 8.86777 0
      vertex -31.8019 7.13223 0
    endloop
  endfacet
  facet normal 0 0 -1
    outer loop
      vertex -34 0 0
      vertex -31.8019 7.13223 0
      vertex -30.445 6.05014 0
    endloop
  endfacet
  facet normal 0 0 -1
    outer loop
      vertex -34 0 0
      vertex -30.445 6.05014 0
      vertex -22 3.9 0
    endloop
  endfacet
  facet normal 0 0 -1
    outer loop
      vertex -28 8 0
      vertex -22 3.9 0
      vertex -28.753 6.43634 0
    endloop
  endfacet
  facet normal 0 0 -1
    outer loop
      vertex -30.445 9.94986 0
      vertex -34 16 0
      vertex -28.753 9.56366 0
    endloop
  endfacet
  facet normal 0 0 -1
    outer loop
      vertex -28 8 0
      vertex -28.753 9.56366 0
      vertex -22 3.9 0
    endloop
  endfacet
  facet normal 0 0 -1
    outer loop
      vertex -31.8019 8.86777 0
      vertex -34 16 0
      vertex -30.445 9.94986 0
    endloop
  endfacet
  facet normal 0 0 -1
    outer loop
      vertex -22 3.9 0
      vertex -34 16 0
      vertex -26 16 0
    endloop
  endfacet
  facet normal 0 0 -1
    outer loop
      vertex -22 3.9 0
      vertex -26 16 0
      vertex -26 21.0877 0
    endloop
  endfacet
  facet normal 0 0 -1
    outer loop
      vertex -22 3.9 0
      vertex -26 21.0877 0
      vertex -22 21.0877 0
    endloop
  endfacet
  facet normal 0 1 0
    outer loop
      vertex -34 16 0
      vertex -34 16 4
      vertex -26 16 0
    endloop
  endfacet
  facet normal 0 1 0
    outer loop
      vertex -26 16 0
      vertex -34 16 4
      vertex -26 16 4
    endloop
  endfacet
  facet normal 0 0 1
    outer loop
      vertex -31.8019 7.13223 4
      vertex -34 0 4
      vertex -26 0 4
    endloop
  endfacet
  facet normal 0 0 1
    outer loop
      vertex -30.445 6.05014 4
      vertex -31.8019 7.13223 4
      vertex -26 0 4
    endloop
  endfacet
  facet normal 0 0 1
    outer loop
      vertex -34 16 4
      vertex -34 0 4
      vertex -31.8019 7.13223 4
    endloop
  endfacet
  facet normal 0 0 1
    outer loop
      vertex -28 8 4
      vertex -28.753 6.43634 4
      vertex -26 0 4
    endloop
  endfacet
  facet normal 0 0 1
    outer loop
      vertex -34 16 4
      vertex -31.8019 7.13223 4
      vertex -31.8019 8.86777 4
    endloop
  endfacet
  facet normal 0 0 1
    outer loop
      vertex -26 16 4
      vertex -34 16 4
      vertex -30.445 9.94986 4
    endloop
  endfacet
  facet normal 0 0 1
    outer loop
      vertex -26 16 4
      vertex -30.445 9.94986 4
      vertex -28.753 9.56366 4
    endloop
  endfacet
  facet normal 0 0 1
    outer loop
      vertex -26 16 4
      vertex -28 8 4
      vertex -26 0 4
    endloop
  endfacet
  facet normal 0 0 1
    outer loop
      vertex -26 16 4
      vertex -28.753 9.56366 4
      vertex -28 8 4
    endloop
  endfacet
  facet normal 0 0 1
    outer loop
      vertex -31.8019 8.86777 4
      vertex -30.445 9.94986 4
      vertex -34 16 4
    endloop
  endfacet
  facet normal 0 0 1
    outer loop
      vertex -28.753 6.43634 4
      vertex -30.445 6.05014 4
      vertex -26 0 4
    endloop
  endfacet
  facet normal -1 0 0
    outer loop
      vertex -26 0 4
      vertex -26 0 52
      vertex -26 16 4
    endloop
  endfacet
  facet normal -1 0 0
    outer loop
      vertex -26 16 4
      vertex -26 0 52
      vertex -26 4 52
    endloop
  endfacet
  facet normal -1 0 0
    outer loop
      vertex -26 16 4
      vertex -26 4 52
      vertex -26 52 4
    endloop
  endfacet
  facet normal -1 0 0
    outer loop
      vertex -26 16 4
      vertex -26 52 4
      vertex -26 36 4
    endloop
  endfacet
  facet normal -1 0 0
    outer loop
      vertex -26 28.7401 1.41842
      vertex -26 36 0
      vertex -26 28.9123 0
    endloop
  endfacet
  facet normal -1 0 0
    outer loop
      vertex -26 36 4
      vertex -26 36 0
      vertex -26 27.6525 2.99404
    endloop
  endfacet
  facet normal -1 0 0
    outer loop
      vertex -26 36 4
      vertex -26 27.6525 2.99404
      vertex -26 25.9573 3.88377
    endloop
  endfacet
  facet normal -1 0 0
    outer loop
      vertex -26 36 4
      vertex -26 25.9573 3.88377
      vertex -26 16 4
    endloop
  endfacet
  facet normal -1 0 0
    outer loop
      vertex -26 25.9573 3.88377
      vertex -26 24.0427 3.88377
      vertex -26 16 4
    endloop
  endfacet
  facet normal -1 0 0
    outer loop
      vertex -26 22.3475 2.99404
      vertex -26 16 4
      vertex -26 24.0427 3.88377
    endloop
  endfacet
  facet normal -1 0 0
    outer loop
      vertex -26 21.2599 1.41842
      vertex -26 16 4
      vertex -26 22.3475 2.99404
    endloop
  endfacet
  facet normal -1 0 0
    outer loop
      vertex -26 27.6525 2.99404
      vertex -26 36 0
      vertex -26 28.7401 1.41842
    endloop
  endfacet
  facet normal -1 0 0
    outer loop
      vertex -26 16 4
      vertex -26 21.2599 1.41842
      vertex -26 21.0877 0
    endloop
  endfacet
  facet normal -1 0 0
    outer loop
      vertex -26 16 4
      vertex -26 21.0877 0
      vertex -26 16 0
    endloop
  endfacet
  facet normal 0 0 1
    outer loop
      vertex -26 4 52
      vertex -26 0 52
      vertex -11 0 52
    endloop
  endfacet
  facet normal 0 0 1
    outer loop
      vertex -22 3.9 52
      vertex -26 4 52
      vertex -11 0 52
    endloop
  endfacet
  facet normal 0 0 1
    outer loop
      vertex -11 3.9 52
      vertex -22 3.9 52
      vertex -11 0 52
    endloop
  endfacet
  facet normal 0 0 1
    outer loop
      vertex -22 3.9 52
      vertex -22 4 52
      vertex -26 4 52
    endloop
  endfacet
  facet normal 1 0 0
    outer loop
      vertex -11 3.9 25
      vertex -11 3.9 52
      vertex -11 0 52
    endloop
  endfacet
  facet normal 1 0 0
    outer loop
      vertex -11 0 25
      vertex -11 3.9 25
      vertex -11 0 52
    endloop
  endfacet
  facet normal 0.994522 2.321e-17 0.104529
    outer loop
      vertex -10.7487 0 22.609
      vertex -10.7487 3.9 22.609
      vertex -11 3.9 25
    endloop
  endfacet
  facet normal 0.994522 2.321e-17 0.104529
    outer loop
      vertex -11 0 25
      vertex -10.7487 0 22.609
      vertex -11 3.9 25
    endloop
  endfacet
  facet normal 0.951057 6.86155e-17 0.309017
    outer loop
      vertex -10.0058 0 20.3225
      vertex -10.0058 3.9 20.3225
      vertex -10.7487 3.9 22.609
    endloop
  endfacet
  facet normal 0.951057 6.86155e-17 0.309017
    outer loop
      vertex -10.7487 0 22.609
      vertex -10.0058 0 20.3225
      vertex -10.7487 3.9 22.609
    endloop
  endfacet
  facet normal 0.866025 1.11022e-16 0.5
    outer loop
      vertex -8.80369 0 18.2405
      vertex -8.80369 3.9 18.2405
      vertex -10.0058 3.9 20.3225
    endloop
  endfacet
  facet normal 0.866025 1.11022e-16 0.5
    outer loop
      vertex -10.0058 0 20.3225
      vertex -8.80369 0 18.2405
      vertex -10.0058 3.9 20.3225
    endloop
  endfacet
  facet normal 0.743145 1.48577e-16 0.669131
    outer loop
      vertex -7.195 0 16.4538
      vertex -7.195 3.9 16.4538
      vertex -8.80369 3.9 18.2405
    endloop
  endfacet
  facet normal 0.743145 1.48577e-16 0.669131
    outer loop
      vertex -8.80369 0 18.2405
      vertex -7.195 0 16.4538
      vertex -8.80369 3.9 18.2405
    endloop
  endfacet
  facet normal 0.587785 1.79638e-16 0.809017
    outer loop
      vertex -5.25 0 15.0407
      vertex -5.25 3.9 15.0407
      vertex -7.195 3.9 16.4538
    endloop
  endfacet
  facet normal 0.587785 1.79638e-16 0.809017
    outer loop
      vertex -7.195 0 16.4538
      vertex -5.25 0 15.0407
      vertex -7.195 3.9 16.4538
    endloop
  endfacet
  facet normal 0.406737 2.02848e-16 0.913545
    outer loop
      vertex -3.05369 0 14.0629
      vertex -3.05369 3.9 14.0629
      vertex -5.25 3.9 15.0407
    endloop
  endfacet
  facet normal 0.406737 2.02848e-16 0.913545
    outer loop
      vertex -5.25 0 15.0407
      vertex -3.05369 0 14.0629
      vertex -5.25 3.9 15.0407
    endloop
  endfacet
  facet normal 0.207912 2.17192e-16 0.978148
    outer loop
      vertex -0.702077 0 13.563
      vertex -0.702077 3.9 13.563
      vertex -3.05369 3.9 14.0629
    endloop
  endfacet
  facet normal 0.207912 2.17192e-16 0.978148
    outer loop
      vertex -3.05369 0 14.0629
      vertex -0.702077 0 13.563
      vertex -3.05369 3.9 14.0629
    endloop
  endfacet
  facet normal 0 2.22045e-16 1
    outer loop
      vertex 1.70208 0 13.563
      vertex 1.70208 3.9 13.563
      vertex -0.702077 3.9 13.563
    endloop
  endfacet
  facet normal 0 2.22045e-16 1
    outer loop
      vertex -0.702077 0 13.563
      vertex 1.70208 0 13.563
      vertex -0.702077 3.9 13.563
    endloop
  endfacet
  facet normal -0.207912 2.17192e-16 0.978148
    outer loop
      vertex 4.05369 0 14.0629
      vertex 4.05369 3.9 14.0629
      vertex 1.70208 3.9 13.563
    endloop
  endfacet
  facet normal -0.207912 2.17192e-16 0.978148
    outer loop
      vertex 1.70208 0 13.563
      vertex 4.05369 0 14.0629
      vertex 1.70208 3.9 13.563
    endloop
  endfacet
  facet normal -0.406737 2.02848e-16 0.913545
    outer loop
      vertex 6.25 0 15.0407
      vertex 6.25 3.9 15.0407
      vertex 4.05369 3.9 14.0629
    endloop
  endfacet
  facet normal -0.406737 2.02848e-16 0.913545
    outer loop
      vertex 4.05369 0 14.0629
      vertex 6.25 0 15.0407
      vertex 4.05369 3.9 14.0629
    endloop
  endfacet
  facet normal -0.587785 1.79638e-16 0.809017
    outer loop
      vertex 8.195 0 16.4538
      vertex 8.195 3.9 16.4538
      vertex 6.25 3.9 15.0407
    endloop
  endfacet
  facet normal -0.587785 1.79638e-16 0.809017
    outer loop
      vertex 6.25 0 15.0407
      vertex 8.195 0 16.4538
      vertex 6.25 3.9 15.0407
    endloop
  endfacet
  facet normal -0.743145 1.48577e-16 0.669131
    outer loop
      vertex 9.80369 3.9 18.2405
      vertex 8.195 3.9 16.4538
      vertex 9.80369 0 18.2405
    endloop
  endfacet
  facet normal -0.743145 1.48577e-16 0.669131
    outer loop
      vertex 9.80369 0 18.2405
      vertex 8.195 3.9 16.4538
      vertex 8.195 0 16.4538
    endloop
  endfacet
  facet normal -0.866025 1.11022e-16 0.5
    outer loop
      vertex 11.0058 3.9 20.3225
      vertex 9.80369 3.9 18.2405
      vertex 11.0058 0 20.3225
    endloop
  endfacet
  facet normal -0.866025 1.11022e-16 0.5
    outer loop
      vertex 11.0058 0 20.3225
      vertex 9.80369 3.9 18.2405
      vertex 9.80369 0 18.2405
    endloop
  endfacet
  facet normal -0.951057 6.86155e-17 0.309017
    outer loop
      vertex 11.7487 3.9 22.609
      vertex 11.0058 3.9 20.3225
      vertex 11.7487 0 22.609
    endloop
  endfacet
  facet normal -0.951057 6.86155e-17 0.309017
    outer loop
      vertex 11.7487 0 22.609
      vertex 11.0058 3.9 20.3225
      vertex 11.0058 0 20.3225
    endloop
  endfacet
  facet normal -0.994522 2.321e-17 0.104529
    outer loop
      vertex 12 3.9 25
      vertex 11.7487 3.9 22.609
      vertex 12 0 25
    endloop
  endfacet
  facet normal -0.994522 2.321e-17 0.104529
    outer loop
      vertex 12 0 25
      vertex 11.7487 3.9 22.609
      vertex 11.7487 0 22.609
    endloop
  endfacet
  facet normal -1 0 0
    outer loop
      vertex 12 3.9 52
      vertex 12 3.9 25
      vertex 12 0 52
    endloop
  endfacet
  facet normal -1 0 0
    outer loop
      vertex 12 0 52
      vertex 12 3.9 25
      vertex 12 0 25
    endloop
  endfacet
  facet normal 0 0 1
    outer loop
      vertex 12 3.9 52
      vertex 12 0 52
      vertex 26 0 52
    endloop
  endfacet
  facet normal 0 0 1
    outer loop
      vertex 22 3.9 52
      vertex 12 3.9 52
      vertex 26 0 52
    endloop
  endfacet
  facet normal 0 0 1
    outer loop
      vertex 26 4 52
      vertex 22 3.9 52
      vertex 26 0 52
    endloop
  endfacet
  facet normal 0 0 1
    outer loop
      vertex 22 4 52
      vertex 22 3.9 52
      vertex 26 4 52
    endloop
  endfacet
  facet normal 1 0 0
    outer loop
      vertex 26 21.2599 1.41842
      vertex 26 22.3475 2.99404
      vertex 26 0 52
    endloop
  endfacet
  facet normal 1 0 0
    outer loop
      vertex 26 0 52
      vertex 26 0 4
      vertex 26 16 4
    endloop
  endfacet
  facet normal 1 0 0
    outer loop
      vertex 26 21.0877 0
      vertex 26 0 52
      vertex 26 16 4
    endloop
  endfacet
  facet normal 1 0 0
    outer loop
      vertex 26 16 0
      vertex 26 21.0877 0
      vertex 26 16 4
    endloop
  endfacet
  facet normal 1 0 0
    outer loop
      vertex 26 21.0877 0
      vertex 26 21.2599 1.41842
      vertex 26 0 52
    endloop
  endfacet
  facet normal 1 0 0
    outer loop
      vertex 26 22.3475 2.99404
      vertex 26 24.0427 3.88377
      vertex 26 0 52
    endloop
  endfacet
  facet normal 1 0 0
    outer loop
      vertex 26 24.0427 3.88377
      vertex 26 25.9573 3.88377
      vertex 26 0 52
    endloop
  endfacet
  facet normal 1 0 0
    outer loop
      vertex 26 25.9573 3.88377
      vertex 26 27.6525 2.99404
      vertex 26 0 52
    endloop
  endfacet
  facet normal 1 0 0
    outer loop
      vertex 26 27.6525 2.99404
      vertex 26 28.7401 1.41842
      vertex 26 0 52
    endloop
  endfacet
  facet normal 1 0 0
    outer loop
      vertex 26 28.7401 1.41842
      vertex 26 36 0
      vertex 26 0 52
    endloop
  endfacet
  facet normal 1 0 0
    outer loop
      vertex 26 36 4
      vertex 26 52 4
      vertex 26 0 52
    endloop
  endfacet
  facet normal 1 0 0
    outer loop
      vertex 26 28.9123 0
      vertex 26 36 0
      vertex 26 28.7401 1.41842
    endloop
  endfacet
  facet normal 1 0 0
    outer loop
      vertex 26 36 0
      vertex 26 36 4
      vertex 26 0 52
    endloop
  endfacet
  facet normal 1 0 0
    outer loop
      vertex 26 52 4
      vertex 26 4 52
      vertex 26 0 52
    endloop
  endfacet
  facet normal 0 0 1
    outer loop
      vertex 28.1981 7.13223 4
      vertex 26 0 4
      vertex 34 0 4
    endloop
  endfacet
  facet normal 0 0 1
    outer loop
      vertex 29.555 6.05014 4
      vertex 28.1981 7.13223 4
      vertex 34 0 4
    endloop
  endfacet
  facet normal 0 0 1
    outer loop
      vertex 26 16 4
      vertex 26 0 4
      vertex 28.1981 7.13223 4
    endloop
  endfacet
  facet normal 0 0 1
    outer loop
      vertex 32 8 4
      vertex 31.247 6.43634 4
      vertex 34 0 4
    endloop
  endfacet
  facet normal 0 0 1
    outer loop
      vertex 26 16 4
      vertex 28.1981 7.13223 4
      vertex 28.1981 8.86777 4
    endloop
  endfacet
  facet normal 0 0 1
    outer loop
      vertex 34 16 4
      vertex 26 16 4
      vertex 29.555 9.94986 4
    endloop
  endfacet
  facet normal 0 0 1
    outer loop
      vertex 34 16 4
      vertex 29.555 9.94986 4
      vertex 31.247 9.56366 4
    endloop
  endfacet
  facet normal 0 0 1
    outer loop
      vertex 34 16 4
      vertex 32 8 4
      vertex 34 0 4
    endloop
  endfacet
  facet normal 0 0 1
    outer loop
      vertex 34 16 4
      vertex 31.247 9.56366 4
      vertex 32 8 4
    endloop
  endfacet
  facet normal 0 0 1
    outer loop
      vertex 28.1981 8.86777 4
      vertex 29.555 9.94986 4
      vertex 26 16 4
    endloop
  endfacet
  facet normal 0 0 1
    outer loop
      vertex 31.247 6.43634 4
      vertex 29.555 6.05014 4
      vertex 34 0 4
    endloop
  endfacet
  facet normal 1 0 0
    outer loop
      vertex 34 0 4
      vertex 34 0 0
      vertex 34 16 0
    endloop
  endfacet
  facet normal 1 0 0
    outer loop
      vertex 34 16 4
      vertex 34 0 4
      vertex 34 16 0
    endloop
  endfacet
  facet normal 0 0 -1
    outer loop
      vertex 4 0 0
      vertex 4 3.9 0
      vertex 34 0 0
    endloop
  endfacet
  facet normal 0 0 -1
    outer loop
      vertex 34 0 0
      vertex 4 3.9 0
      vertex 22 3.9 0
    endloop
  endfacet
  facet normal 0 0 -1
    outer loop
      vertex 28.1981 8.86777 0
      vertex 22 3.9 0
      vertex 22 21.0877 0
    endloop
  endfacet
  facet normal 0 0 -1
    outer loop
      vertex 26 16 0
      vertex 22 21.0877 0
      vertex 26 21.0877 0
    endloop
  endfacet
  facet normal 0 0 -1
    outer loop
      vertex 28.1981 8.86777 0
      vertex 22 21.0877 0
      vertex 26 16 0
    endloop
  endfacet
  facet normal 0 0 -1
    outer loop
      vertex 28.1981 7.13223 0
      vertex 22 3.9 0
      vertex 28.1981 8.86777 0
    endloop
  endfacet
  facet normal 0 0 -1
    outer loop
      vertex 31.247 6.43634 0
      vertex 34 0 0
      vertex 29.555 6.05014 0
    endloop
  endfacet
  facet normal 0 0 -1
    outer loop
      vertex 34 0 0
      vertex 22 3.9 0
      vertex 28.1981 7.13223 0
    endloop
  endfacet
  facet normal 0 0 -1
    outer loop
      vertex 34 0 0
      vertex 28.1981 7.13223 0
      vertex 29.555 6.05014 0
    endloop
  endfacet
  facet normal 0 0 -1
    outer loop
      vertex 28.1981 8.86777 0
      vertex 26 16 0
      vertex 29.555 9.94986 0
    endloop
  endfacet
  facet normal 0 0 -1
    outer loop
      vertex 34 0 0
      vertex 32 8 0
      vertex 34 16 0
    endloop
  endfacet
  facet normal 0 0 -1
    outer loop
      vertex 32 8 0
      vertex 34 0 0
      vertex 31.247 6.43634 0
    endloop
  endfacet
  facet normal 0 0 -1
    outer loop
      vertex 34 16 0
      vertex 32 8 0
      vertex 31.247 9.56366 0
    endloop
  endfacet
  facet normal 0 0 -1
    outer loop
      vertex 34 16 0
      vertex 31.247 9.56366 0
      vertex 29.555 9.94986 0
    endloop
  endfacet
  facet normal 0 0 -1
    outer loop
      vertex 34 16 0
      vertex 29.555 9.94986 0
      vertex 26 16 0
    endloop
  endfacet
  facet normal -0.970942 5.31388e-17 0.239316
    outer loop
      vertex 4 3.9 2.44249e-16
      vertex 4 3.9 0
      vertex 4 0 1.11022e-15
    endloop
  endfacet
  facet normal -0.970942 5.31388e-17 0.239316
    outer loop
      vertex 4 0 1.11022e-15
      vertex 4 3.9 0
      vertex 4 0 0
    endloop
  endfacet
  facet normal -0.970942 -5.31388e-17 -0.239316
    outer loop
      vertex 4 3.9 2.44249e-16
      vertex 4 0 1.11022e-15
      vertex 3.54182 3.9 1.85889
    endloop
  endfacet
  facet normal -0.970942 -5.31388e-17 -0.239316
    outer loop
      vertex 3.54182 3.9 1.85889
      vertex 4 0 1.11022e-15
      vertex 3.54182 0 1.85889
    endloop
  endfacet
  facet normal -0.748511 -1.47243e-16 -0.663123
    outer loop
      vertex 3.54182 3.9 1.85889
      vertex 3.54182 0 1.85889
      vertex 2.27226 3.9 3.29194
    endloop
  endfacet
  facet normal -0.748511 -1.47243e-16 -0.663123
    outer loop
      vertex 2.27226 3.9 3.29194
      vertex 3.54182 0 1.85889
      vertex 2.27226 0 3.29194
    endloop
  endfacet
  facet normal -0.354605 -2.07615e-16 -0.935016
    outer loop
      vertex 2.27226 3.9 3.29194
      vertex 2.27226 0 3.29194
      vertex 0.482147 3.9 3.97084
    endloop
  endfacet
  facet normal -0.354605 -2.07615e-16 -0.935016
    outer loop
      vertex 0.482147 3.9 3.97084
      vertex 2.27226 0 3.29194
      vertex 0.482147 0 3.97084
    endloop
  endfacet
  facet normal 0.120536 -2.20426e-16 -0.992709
    outer loop
      vertex 0.482147 3.9 3.97084
      vertex 0.482147 0 3.97084
      vertex -1.41842 3.9 3.74007
    endloop
  endfacet
  facet normal 0.120536 -2.20426e-16 -0.992709
    outer loop
      vertex -1.41842 3.9 3.74007
      vertex 0.482147 0 3.97084
      vertex -1.41842 0 3.74007
    endloop
  endfacet
  facet normal 0.568065 -1.82739e-16 -0.822984
    outer loop
      vertex -1.41842 3.9 3.74007
      vertex -1.41842 0 3.74007
      vertex -2.99404 3.9 2.65249
    endloop
  endfacet
  facet normal 0.568065 -1.82739e-16 -0.822984
    outer loop
      vertex -2.99404 3.9 2.65249
      vertex -1.41842 0 3.74007
      vertex -2.99404 0 2.65249
    endloop
  endfacet
  facet normal 0.885456 -1.03189e-16 -0.464723
    outer loop
      vertex -3.88377 3.9 0.957263
      vertex -2.99404 3.9 2.65249
      vertex -2.99404 0 2.65249
    endloop
  endfacet
  facet normal 0.885456 -1.03189e-16 -0.464723
    outer loop
      vertex -3.88377 0 0.957263
      vertex -3.88377 3.9 0.957263
      vertex -2.99404 0 2.65249
    endloop
  endfacet
  facet normal 1 0 0
    outer loop
      vertex -3.88377 3.9 0
      vertex -3.88377 3.9 0.957263
      vertex -3.88377 0 0.957263
    endloop
  endfacet
  facet normal 1 0 0
    outer loop
      vertex -3.88377 0 0
      vertex -3.88377 3.9 0
      vertex -3.88377 0 0.957263
    endloop
  endfacet
  facet normal 0.866025 1.11022e-16 0.5
    outer loop
      vertex -15.8 0 8.11436
      vertex -15.8 3.9 8.11436
      vertex -16.6 3.9 9.5
    endloop
  endfacet
  facet normal 0.866025 1.11022e-16 0.5
    outer loop
      vertex -16.6 0 9.5
      vertex -15.8 0 8.11436
      vertex -16.6 3.9 9.5
    endloop
  endfacet
  facet normal 0 2.22045e-16 1
    outer loop
      vertex -14.2 0 8.11436
      vertex -14.2 3.9 8.11436
      vertex -15.8 3.9 8.11436
    endloop
  endfacet
  facet normal 0 2.22045e-16 1
    outer loop
      vertex -15.8 0 8.11436
      vertex -14.2 0 8.11436
      vertex -15.8 3.9 8.11436
    endloop
  endfacet
  facet normal -0.866025 1.11022e-16 0.5
    outer loop
      vertex -13.4 3.9 9.5
      vertex -14.2 3.9 8.11436
      vertex -13.4 0 9.5
    endloop
  endfacet
  facet normal -0.866025 1.11022e-16 0.5
    outer loop
      vertex -13.4 0 9.5
      vertex -14.2 3.9 8.11436
      vertex -14.2 0 8.11436
    endloop
  endfacet
  facet normal -0.866025 -1.11022e-16 -0.5
    outer loop
      vertex -13.4 3.9 9.5
      vertex -13.4 0 9.5
      vertex -14.2 3.9 10.8856
    endloop
  endfacet
  facet normal -0.866025 -1.11022e-16 -0.5
    outer loop
      vertex -14.2 3.9 10.8856
      vertex -13.4 0 9.5
      vertex -14.2 0 10.8856
    endloop
  endfacet
  facet normal 0 -2.22045e-16 -1
    outer loop
      vertex -14.2 3.9 10.8856
      vertex -14.2 0 10.8856
      vertex -15.8 3.9 10.8856
    endloop
  endfacet
  facet normal 0 -2.22045e-16 -1
    outer loop
      vertex -15.8 3.9 10.8856
      vertex -14.2 0 10.8856
      vertex -15.8 0 10.8856
    endloop
  endfacet
  facet normal 0.866025 -1.11022e-16 -0.5
    outer loop
      vertex -16.6 3.9 9.5
      vertex -15.8 3.9 10.8856
      vertex -15.8 0 10.8856
    endloop
  endfacet
  facet normal 0.866025 -1.11022e-16 -0.5
    outer loop
      vertex -16.6 0 9.5
      vertex -16.6 3.9 9.5
      vertex -15.8 0 10.8856
    endloop
  endfacet
  facet normal 0 2.22045e-16 1
    outer loop
      vertex -14.2 0 39.1144
      vertex -14.2 3.9 39.1144
      vertex -15.8 3.9 39.1144
    endloop
  endfacet
  facet normal 0 2.22045e-16 1
    outer loop
      vertex -15.8 0 39.1144
      vertex -14.2 0 39.1144
      vertex -15.8 3.9 39.1144
    endloop
  endfacet
  facet normal 0.866025 1.11022e-16 0.5
    outer loop
      vertex -15.8 0 39.1144
      vertex -15.8 3.9 39.1144
      vertex -16.6 3.9 40.5
    endloop
  endfacet
  facet normal 0.866025 1.11022e-16 0.5
    outer loop
      vertex -16.6 0 40.5
      vertex -15.8 0 39.1144
      vertex -16.6 3.9 40.5
    endloop
  endfacet
  facet normal -0.866025 1.11022e-16 0.5
    outer loop
      vertex -13.4 3.9 40.5
      vertex -14.2 3.9 39.1144
      vertex -13.4 0 40.5
    endloop
  endfacet
  facet normal -0.866025 1.11022e-16 0.5
    outer loop
      vertex -13.4 0 40.5
      vertex -14.2 3.9 39.1144
      vertex -14.2 0 39.1144
    endloop
  endfacet
  facet normal -0.866025 -1.11022e-16 -0.5
    outer loop
      vertex -13.4 3.9 40.5
      vertex -13.4 0 40.5
      vertex -14.2 3.9 41.8856
    endloop
  endfacet
  facet normal -0.866025 -1.11022e-16 -0.5
    outer loop
      vertex -14.2 3.9 41.8856
      vertex -13.4 0 40.5
      vertex -14.2 0 41.8856
    endloop
  endfacet
  facet normal 0 -2.22045e-16 -1
    outer loop
      vertex -14.2 3.9 41.8856
      vertex -14.2 0 41.8856
      vertex -15.8 3.9 41.8856
    endloop
  endfacet
  facet normal 0 -2.22045e-16 -1
    outer loop
      vertex -15.8 3.9 41.8856
      vertex -14.2 0 41.8856
      vertex -15.8 0 41.8856
    endloop
  endfacet
  facet normal 0.866025 -1.11022e-16 -0.5
    outer loop
      vertex -16.6 3.9 40.5
      vertex -15.8 3.9 41.8856
      vertex -15.8 0 41.8856
    endloop
  endfacet
  facet normal 0.866025 -1.11022e-16 -0.5
    outer loop
      vertex -16.6 0 40.5
      vertex -16.6 3.9 40.5
      vertex -15.8 0 41.8856
    endloop
  endfacet
  facet normal 0.866025 1.11022e-16 0.5
    outer loop
      vertex 15.2 0 8.11436
      vertex 15.2 3.9 8.11436
      vertex 14.4 3.9 9.5
    endloop
  endfacet
  facet normal 0.866025 1.11022e-16 0.5
    outer loop
      vertex 14.4 0 9.5
      vertex 15.2 0 8.11436
      vertex 14.4 3.9 9.5
    endloop
  endfacet
  facet normal 0 2.22045e-16 1
    outer loop
      vertex 16.8 0 8.11436
      vertex 16.8 3.9 8.11436
      vertex 15.2 3.9 8.11436
    endloop
  endfacet
  facet normal 0 2.22045e-16 1
    outer loop
      vertex 15.2 0 8.11436
      vertex 16.8 0 8.11436
      vertex 15.2 3.9 8.11436
    endloop
  endfacet
  facet normal -0.866025 1.11022e-16 0.5
    outer loop
      vertex 17.6 3.9 9.5
      vertex 16.8 3.9 8.11436
      vertex 17.6 0 9.5
    endloop
  endfacet
  facet normal -0.866025 1.11022e-16 0.5
    outer loop
      vertex 17.6 0 9.5
      vertex 16.8 3.9 8.11436
      vertex 16.8 0 8.11436
    endloop
  endfacet
  facet normal -0.866025 -1.11022e-16 -0.5
    outer loop
      vertex 17.6 3.9 9.5
      vertex 17.6 0 9.5
      vertex 16.8 3.9 10.8856
    endloop
  endfacet
  facet normal -0.866025 -1.11022e-16 -0.5
    outer loop
      vertex 16.8 3.9 10.8856
      vertex 17.6 0 9.5
      vertex 16.8 0 10.8856
    endloop
  endfacet
  facet normal 0 -2.22045e-16 -1
    outer loop
      vertex 16.8 3.9 10.8856
      vertex 16.8 0 10.8856
      vertex 15.2 3.9 10.8856
    endloop
  endfacet
  facet normal 0 -2.22045e-16 -1
    outer loop
      vertex 15.2 3.9 10.8856
      vertex 16.8 0 10.8856
      vertex 15.2 0 10.8856
    endloop
  endfacet
  facet normal 0.866025 -1.11022e-16 -0.5
    outer loop
      vertex 14.4 3.9 9.5
      vertex 15.2 3.9 10.8856
      vertex 15.2 0 10.8856
    endloop
  endfacet
  facet normal 0.866025 -1.11022e-16 -0.5
    outer loop
      vertex 14.4 0 9.5
      vertex 14.4 3.9 9.5
      vertex 15.2 0 10.8856
    endloop
  endfacet
  facet normal 0 2.22045e-16 1
    outer loop
      vertex 16.8 0 39.1144
      vertex 16.8 3.9 39.1144
      vertex 15.2 3.9 39.1144
    endloop
  endfacet
  facet normal 0 2.22045e-16 1
    outer loop
      vertex 15.2 0 39.1144
      vertex 16.8 0 39.1144
      vertex 15.2 3.9 39.1144
    endloop
  endfacet
  facet normal 0.866025 1.11022e-16 0.5
    outer loop
      vertex 15.2 0 39.1144
      vertex 15.2 3.9 39.1144
      vertex 14.4 3.9 40.5
    endloop
  endfacet
  facet normal 0.866025 1.11022e-16 0.5
    outer loop
      vertex 14.4 0 40.5
      vertex 15.2 0 39.1144
      vertex 14.4 3.9 40.5
    endloop
  endfacet
  facet normal -0.866025 1.11022e-16 0.5
    outer loop
      vertex 17.6 3.9 40.5
      vertex 16.8 3.9 39.1144
      vertex 17.6 0 40.5
    endloop
  endfacet
  facet normal -0.866025 1.11022e-16 0.5
    outer loop
      vertex 17.6 0 40.5
      vertex 16.8 3.9 39.1144
      vertex 16.8 0 39.1144
    endloop
  endfacet
  facet normal -0.866025 -1.11022e-16 -0.5
    outer loop
      vertex 17.6 3.9 40.5
      vertex 17.6 0 40.5
      vertex 16.8 3.9 41.8856
    endloop
  endfacet
  facet normal -0.866025 -1.11022e-16 -0.5
    outer loop
      vertex 16.8 3.9 41.8856
      vertex 17.6 0 40.5
      vertex 16.8 0 41.8856
    endloop
  endfacet
  facet normal 0 -2.22045e-16 -1
    outer loop
      vertex 16.8 3.9 41.8856
      vertex 16.8 0 41.8856
      vertex 15.2 3.9 41.8856
    endloop
  endfacet
  facet normal 0 -2.22045e-16 -1
    outer loop
      vertex 15.2 3.9 41.8856
      vertex 16.8 0 41.8856
      vertex 15.2 0 41.8856
    endloop
  endfacet
  facet normal 0.866025 -1.11022e-16 -0.5
    outer loop
      vertex 14.4 3.9 40.5
      vertex 15.2 3.9 41.8856
      vertex 15.2 0 41.8856
    endloop
  endfacet
  facet normal 0.866025 -1.11022e-16 -0.5
    outer loop
      vertex 14.4 0 40.5
      vertex 14.4 3.9 40.5
      vertex 15.2 0 41.8856
    endloop
  endfacet
  facet normal 0 1 0
    outer loop
      vertex -16.6 3.9 40.5
      vertex -11 3.9 25
      vertex -22 3.9 52
    endloop
  endfacet
  facet normal 0 1 0
    outer loop
      vertex -22 3.9 52
      vertex -11 3.9 25
      vertex -10.7487 3.9 22.609
    endloop
  endfacet
  facet normal 0 1 0
    outer loop
      vertex -10.7487 3.9 22.609
      vertex -10.0058 3.9 20.3225
      vertex -22 3.9 52
    endloop
  endfacet
  facet normal 0 1 0
    outer loop
      vertex -10.0058 3.9 20.3225
      vertex -3.88377 3.9 0.957263
      vertex -22 3.9 52
    endloop
  endfacet
  facet normal 0 1 0
    outer loop
      vertex -3.05369 3.9 14.0629
      vertex 22 3.9 0
      vertex -5.25 3.9 15.0407
    endloop
  endfacet
  facet normal 0 1 0
    outer loop
      vertex -0.702077 3.9 13.563
      vertex 22 3.9 0
      vertex -3.05369 3.9 14.0629
    endloop
  endfacet
  facet normal 0 1 0
    outer loop
      vertex 1.70208 3.9 13.563
      vertex 22 3.9 0
      vertex -0.702077 3.9 13.563
    endloop
  endfacet
  facet normal 0 1 0
    outer loop
      vertex 4.05369 3.9 14.0629
      vertex 22 3.9 0
      vertex 1.70208 3.9 13.563
    endloop
  endfacet
  facet normal 0 1 0
    outer loop
      vertex 6.25 3.9 15.0407
      vertex 22 3.9 0
      vertex 4.05369 3.9 14.0629
    endloop
  endfacet
  facet normal 0 1 0
    outer loop
      vertex 8.195 3.9 16.4538
      vertex 22 3.9 0
      vertex 6.25 3.9 15.0407
    endloop
  endfacet
  facet normal 0 1 0
    outer loop
      vertex 15.2 3.9 8.11436
      vertex 22 3.9 0
      vertex 8.195 3.9 16.4538
    endloop
  endfacet
  facet normal 0 1 0
    outer loop
      vertex 11.7487 3.9 22.609
      vertex 22 3.9 52
      vertex 11.0058 3.9 20.3225
    endloop
  endfacet
  facet normal 0 1 0
    outer loop
      vertex 15.2 3.9 41.8856
      vertex 12 3.9 52
      vertex 22 3.9 52
    endloop
  endfacet
  facet normal 0 1 0
    outer loop
      vertex 12 3.9 25
      vertex 22 3.9 52
      vertex 11.7487 3.9 22.609
    endloop
  endfacet
  facet normal 0 1 0
    outer loop
      vertex 17.6 3.9 9.5
      vertex 22 3.9 52
      vertex 22 3.9 0
    endloop
  endfacet
  facet normal 0 1 0
    outer loop
      vertex 17.6 3.9 9.5
      vertex 22 3.9 0
      vertex 16.8 3.9 8.11436
    endloop
  endfacet
  facet normal 0 1 0
    outer loop
      vertex 4 3.9 2.44249e-16
      vertex 22 3.9 0
      vertex 4 3.9 0
    endloop
  endfacet
  facet normal 0 1 0
    outer loop
      vertex 3.54182 3.9 1.85889
      vertex 22 3.9 0
      vertex 4 3.9 2.44249e-16
    endloop
  endfacet
  facet normal 0 1 0
    outer loop
      vertex -5.25 3.9 15.0407
      vertex 22 3.9 0
      vertex 3.54182 3.9 1.85889
    endloop
  endfacet
  facet normal 0 1 0
    outer loop
      vertex -5.25 3.9 15.0407
      vertex 3.54182 3.9 1.85889
      vertex 2.27226 3.9 3.29194
    endloop
  endfacet
  facet normal 0 1 0
    outer loop
      vertex -15.8 3.9 10.8856
      vertex -22 3.9 52
      vertex -14.2 3.9 10.8856
    endloop
  endfacet
  facet normal 0 1 0
    outer loop
      vertex -8.80369 3.9 18.2405
      vertex 0.482147 3.9 3.97084
      vertex -1.41842 3.9 3.74007
    endloop
  endfacet
  facet normal 0 1 0
    outer loop
      vertex -8.80369 3.9 18.2405
      vertex -1.41842 3.9 3.74007
      vertex -10.0058 3.9 20.3225
    endloop
  endfacet
  facet normal 0 1 0
    outer loop
      vertex -1.41842 3.9 3.74007
      vertex -2.99404 3.9 2.65249
      vertex -10.0058 3.9 20.3225
    endloop
  endfacet
  facet normal 0 1 0
    outer loop
      vertex -2.99404 3.9 2.65249
      vertex -3.88377 3.9 0.957263
      vertex -10.0058 3.9 20.3225
    endloop
  endfacet
  facet normal 0 1 0
    outer loop
      vertex -3.88377 3.9 0.957263
      vertex -3.88377 3.9 0
      vertex -22 3.9 52
    endloop
  endfacet
  facet normal 0 1 0
    outer loop
      vertex -15.8 3.9 8.11436
      vertex -3.88377 3.9 0
      vertex -22 3.9 0
    endloop
  endfacet
  facet normal 0 1 0
    outer loop
      vertex -14.2 3.9 8.11436
      vertex -3.88377 3.9 0
      vertex -15.8 3.9 8.11436
    endloop
  endfacet
  facet normal 0 1 0
    outer loop
      vertex -16.6 3.9 9.5
      vertex -15.8 3.9 8.11436
      vertex -22 3.9 0
    endloop
  endfacet
  facet normal 0 1 0
    outer loop
      vertex -13.4 3.9 9.5
      vertex -3.88377 3.9 0
      vertex -14.2 3.9 8.11436
    endloop
  endfacet
  facet normal 0 1 0
    outer loop
      vertex -22 3.9 52
      vertex -3.88377 3.9 0
      vertex -13.4 3.9 9.5
    endloop
  endfacet
  facet normal 0 1 0
    outer loop
      vertex -22 3.9 52
      vertex -13.4 3.9 9.5
      vertex -14.2 3.9 10.8856
    endloop
  endfacet
  facet normal 0 1 0
    outer loop
      vertex -16.6 3.9 9.5
      vertex -22 3.9 52
      vertex -15.8 3.9 10.8856
    endloop
  endfacet
  facet normal 0 1 0
    outer loop
      vertex -14.2 3.9 41.8856
      vertex -11 3.9 52
      vertex -13.4 3.9 40.5
    endloop
  endfacet
  facet normal 0 1 0
    outer loop
      vertex -22 3.9 52
      vertex -16.6 3.9 9.5
      vertex -22 3.9 0
    endloop
  endfacet
  facet normal 0 1 0
    outer loop
      vertex -14.2 3.9 39.1144
      vertex -11 3.9 25
      vertex -15.8 3.9 39.1144
    endloop
  endfacet
  facet normal 0 1 0
    outer loop
      vertex -13.4 3.9 40.5
      vertex -11 3.9 25
      vertex -14.2 3.9 39.1144
    endloop
  endfacet
  facet normal 0 1 0
    outer loop
      vertex -11 3.9 52
      vertex -11 3.9 25
      vertex -13.4 3.9 40.5
    endloop
  endfacet
  facet normal 0 1 0
    outer loop
      vertex -15.8 3.9 41.8856
      vertex -11 3.9 52
      vertex -14.2 3.9 41.8856
    endloop
  endfacet
  facet normal 0 1 0
    outer loop
      vertex -16.6 3.9 40.5
      vertex -22 3.9 52
      vertex -15.8 3.9 41.8856
    endloop
  endfacet
  facet normal 0 1 0
    outer loop
      vertex -11 3.9 52
      vertex -15.8 3.9 41.8856
      vertex -22 3.9 52
    endloop
  endfacet
  facet normal 0 1 0
    outer loop
      vertex -15.8 3.9 39.1144
      vertex -11 3.9 25
      vertex -16.6 3.9 40.5
    endloop
  endfacet
  facet normal 0 1 0
    outer loop
      vertex 16.8 3.9 8.11436
      vertex 22 3.9 0
      vertex 15.2 3.9 8.11436
    endloop
  endfacet
  facet normal 0 1 0
    outer loop
      vertex 14.4 3.9 9.5
      vertex 15.2 3.9 8.11436
      vertex 8.195 3.9 16.4538
    endloop
  endfacet
  facet normal 0 1 0
    outer loop
      vertex 16.8 3.9 10.8856
      vertex 22 3.9 52
      vertex 17.6 3.9 9.5
    endloop
  endfacet
  facet normal 0 1 0
    outer loop
      vertex 15.2 3.9 10.8856
      vertex 11.0058 3.9 20.3225
      vertex 16.8 3.9 10.8856
    endloop
  endfacet
  facet normal 0 1 0
    outer loop
      vertex 11.0058 3.9 20.3225
      vertex 22 3.9 52
      vertex 16.8 3.9 10.8856
    endloop
  endfacet
  facet normal 0 1 0
    outer loop
      vertex 14.4 3.9 9.5
      vertex 9.80369 3.9 18.2405
      vertex 15.2 3.9 10.8856
    endloop
  endfacet
  facet normal 0 1 0
    outer loop
      vertex 11.0058 3.9 20.3225
      vertex 15.2 3.9 10.8856
      vertex 9.80369 3.9 18.2405
    endloop
  endfacet
  facet normal 0 1 0
    outer loop
      vertex 16.8 3.9 41.8856
      vertex 22 3.9 52
      vertex 17.6 3.9 40.5
    endloop
  endfacet
  facet normal 0 1 0
    outer loop
      vertex 9.80369 3.9 18.2405
      vertex 14.4 3.9 9.5
      vertex 8.195 3.9 16.4538
    endloop
  endfacet
  facet normal 0 1 0
    outer loop
      vertex 12 3.9 25
      vertex 15.2 3.9 39.1144
      vertex 16.8 3.9 39.1144
    endloop
  endfacet
  facet normal 0 1 0
    outer loop
      vertex 12 3.9 25
      vertex 16.8 3.9 39.1144
      vertex 17.6 3.9 40.5
    endloop
  endfacet
  facet normal 0 1 0
    outer loop
      vertex 12 3.9 25
      vertex 17.6 3.9 40.5
      vertex 22 3.9 52
    endloop
  endfacet
  facet normal 0 1 0
    outer loop
      vertex 15.2 3.9 41.8856
      vertex 22 3.9 52
      vertex 16.8 3.9 41.8856
    endloop
  endfacet
  facet normal 0 1 0
    outer loop
      vertex 14.4 3.9 40.5
      vertex 12 3.9 52
      vertex 15.2 3.9 41.8856
    endloop
  endfacet
  facet normal 0 1 0
    outer loop
      vertex 12 3.9 25
      vertex 12 3.9 52
      vertex 14.4 3.9 40.5
    endloop
  endfacet
  facet normal 0 1 0
    outer loop
      vertex 12 3.9 25
      vertex 14.4 3.9 40.5
      vertex 15.2 3.9 39.1144
    endloop
  endfacet
  facet normal 0 1 0
    outer loop
      vertex 0.482147 3.9 3.97084
      vertex -8.80369 3.9 18.2405
      vertex -7.195 3.9 16.4538
    endloop
  endfacet
  facet normal 0 1 0
    outer loop
      vertex 0.482147 3.9 3.97084
      vertex -7.195 3.9 16.4538
      vertex -5.25 3.9 15.0407
    endloop
  endfacet
  facet normal 0 1 0
    outer loop
      vertex 0.482147 3.9 3.97084
      vertex -5.25 3.9 15.0407
      vertex 2.27226 3.9 3.29194
    endloop
  endfacet
  facet normal 1 0 0
    outer loop
      vertex -22 3.9 52
      vertex -22 3.9 0
      vertex -22 21.0877 0
    endloop
  endfacet
  facet normal 1 0 0
    outer loop
      vertex -22 22.3475 2.99404
      vertex -22 3.9 52
      vertex -22 21.2599 1.41842
    endloop
  endfacet
  facet normal 1 0 0
    outer loop
      vertex -22 21.2599 1.41842
      vertex -22 3.9 52
      vertex -22 21.0877 0
    endloop
  endfacet
  facet normal 1 0 0
    outer loop
      vertex -22 24.0427 3.88377
      vertex -22 3.9 52
      vertex -22 22.3475 2.99404
    endloop
  endfacet
  facet normal 1 0 0
    outer loop
      vertex -22 25.9573 3.88377
      vertex -22 3.9 52
      vertex -22 24.0427 3.88377
    endloop
  endfacet
  facet normal 1 0 0
    outer loop
      vertex -22 27.6525 2.99404
      vertex -22 3.9 52
      vertex -22 25.9573 3.88377
    endloop
  endfacet
  facet normal 1 0 0
    outer loop
      vertex -22 28.7401 1.41842
      vertex -22 3.9 52
      vertex -22 27.6525 2.99404
    endloop
  endfacet
  facet normal 1 0 0
    outer loop
      vertex -22 51.9 0
      vertex -22 3.9 52
      vertex -22 28.7401 1.41842
    endloop
  endfacet
  facet normal 1 0 0
    outer loop
      vertex -22 51.9 0
      vertex -22 28.7401 1.41842
      vertex -22 28.9123 0
    endloop
  endfacet
  facet normal 1 0 0
    outer loop
      vertex -22 51.9 4.1
      vertex -22 3.9 52
      vertex -22 51.9 0
    endloop
  endfacet
  facet normal 1 0 0
    outer loop
      vertex -22 4 52
      vertex -22 3.9 52
      vertex -22 51.9 4.1
    endloop
  endfacet
  facet normal 2.67644e-17 0.992709 -0.120536
    outer loop
      vertex -22 21.2599 1.41842
      vertex -22 21.0877 0
      vertex -26 21.2599 1.41842
    endloop
  endfacet
  facet normal 2.67644e-17 0.992709 -0.120536
    outer loop
      vertex -26 21.2599 1.41842
      vertex -22 21.0877 0
      vertex -26 21.0877 0
    endloop
  endfacet
  facet normal 1 0 0
    outer loop
      vertex -31.8019 8.86777 0
      vertex -31.8019 8.86777 4
      vertex -31.8019 7.13223 4
    endloop
  endfacet
  facet normal 1 0 0
    outer loop
      vertex -31.8019 7.13223 0
      vertex -31.8019 8.86777 0
      vertex -31.8019 7.13223 4
    endloop
  endfacet
  facet normal 0.62349 -0.781831 0
    outer loop
      vertex -30.445 9.94986 0
      vertex -30.445 9.94986 4
      vertex -31.8019 8.86777 4
    endloop
  endfacet
  facet normal 0.62349 -0.781831 0
    outer loop
      vertex -31.8019 8.86777 0
      vertex -30.445 9.94986 0
      vertex -31.8019 8.86777 4
    endloop
  endfacet
  facet normal -0.222521 -0.974928 0
    outer loop
      vertex -28.753 9.56366 0
      vertex -28.753 9.56366 4
      vertex -30.445 9.94986 4
    endloop
  endfacet
  facet normal -0.222521 -0.974928 0
    outer loop
      vertex -30.445 9.94986 0
      vertex -28.753 9.56366 0
      vertex -30.445 9.94986 4
    endloop
  endfacet
  facet normal -0.900969 -0.433884 0
    outer loop
      vertex -28 8 4
      vertex -28.753 9.56366 4
      vertex -28 8 0
    endloop
  endfacet
  facet normal -0.900969 -0.433884 0
    outer loop
      vertex -28 8 0
      vertex -28.753 9.56366 4
      vertex -28.753 9.56366 0
    endloop
  endfacet
  facet normal -0.900969 0.433884 0
    outer loop
      vertex -28 8 4
      vertex -28 8 0
      vertex -28.753 6.43634 4
    endloop
  endfacet
  facet normal -0.900969 0.433884 0
    outer loop
      vertex -28.753 6.43634 4
      vertex -28 8 0
      vertex -28.753 6.43634 0
    endloop
  endfacet
  facet normal -0.222521 0.974928 0
    outer loop
      vertex -28.753 6.43634 4
      vertex -28.753 6.43634 0
      vertex -30.445 6.05014 4
    endloop
  endfacet
  facet normal -0.222521 0.974928 0
    outer loop
      vertex -30.445 6.05014 4
      vertex -28.753 6.43634 0
      vertex -30.445 6.05014 0
    endloop
  endfacet
  facet normal 0.62349 0.781831 0
    outer loop
      vertex -30.445 6.05014 4
      vertex -30.445 6.05014 0
      vertex -31.8019 7.13223 4
    endloop
  endfacet
  facet normal 0.62349 0.781831 0
    outer loop
      vertex -31.8019 7.13223 4
      vertex -30.445 6.05014 0
      vertex -31.8019 7.13223 0
    endloop
  endfacet
  facet normal 1.26136e-16 0.822984 -0.568065
    outer loop
      vertex -22 22.3475 2.99404
      vertex -22 21.2599 1.41842
      vertex -26 22.3475 2.99404
    endloop
  endfacet
  facet normal 1.26136e-16 0.822984 -0.568065
    outer loop
      vertex -26 22.3475 2.99404
      vertex -22 21.2599 1.41842
      vertex -26 21.2599 1.41842
    endloop
  endfacet
  facet normal 1.96611e-16 0.464723 -0.885456
    outer loop
      vertex -22 24.0427 3.88377
      vertex -22 22.3475 2.99404
      vertex -26 24.0427 3.88377
    endloop
  endfacet
  facet normal 1.96611e-16 0.464723 -0.885456
    outer loop
      vertex -26 24.0427 3.88377
      vertex -22 22.3475 2.99404
      vertex -26 22.3475 2.99404
    endloop
  endfacet
  facet normal 2.22045e-16 0 -1
    outer loop
      vertex -22 25.9573 3.88377
      vertex -22 24.0427 3.88377
      vertex -26 25.9573 3.88377
    endloop
  endfacet
  facet normal 2.22045e-16 0 -1
    outer loop
      vertex -26 25.9573 3.88377
      vertex -22 24.0427 3.88377
      vertex -26 24.0427 3.88377
    endloop
  endfacet
  facet normal 1.96611e-16 -0.464723 -0.885456
    outer loop
      vertex -22 27.6525 2.99404
      vertex -22 25.9573 3.88377
      vertex -26 27.6525 2.99404
    endloop
  endfacet
  facet normal 1.96611e-16 -0.464723 -0.885456
    outer loop
      vertex -26 27.6525 2.99404
      vertex -22 25.9573 3.88377
      vertex -26 25.9573 3.88377
    endloop
  endfacet
  facet normal 1.26136e-16 -0.822984 -0.568065
    outer loop
      vertex -26 28.7401 1.41842
      vertex -22 28.7401 1.41842
      vertex -22 27.6525 2.99404
    endloop
  endfacet
  facet normal 1.26136e-16 -0.822984 -0.568065
    outer loop
      vertex -26 27.6525 2.99404
      vertex -26 28.7401 1.41842
      vertex -22 27.6525 2.99404
    endloop
  endfacet
  facet normal 2.67644e-17 -0.992709 -0.120536
    outer loop
      vertex -26 28.9123 0
      vertex -22 28.9123 0
      vertex -22 28.7401 1.41842
    endloop
  endfacet
  facet normal 2.67644e-17 -0.992709 -0.120536
    outer loop
      vertex -26 28.7401 1.41842
      vertex -26 28.9123 0
      vertex -22 28.7401 1.41842
    endloop
  endfacet
  facet normal 0 0 -1
    outer loop
      vertex -28.753 42.4363 0
      vertex -26 36 0
      vertex -30.445 42.0501 0
    endloop
  endfacet
  facet normal 0 0 -1
    outer loop
      vertex -28.753 45.5637 0
      vertex -34 52 0
      vertex -22 52 0
    endloop
  endfacet
  facet normal 0 0 -1
    outer loop
      vertex -26 36 0
      vertex -22 52 0
      vertex -22 51.9 0
    endloop
  endfacet
  facet normal 0 0 -1
    outer loop
      vertex -26 36 0
      vertex -22 51.9 0
      vertex -22 28.9123 0
    endloop
  endfacet
  facet normal 0 0 -1
    outer loop
      vertex -31.8019 44.8678 0
      vertex -34 52 0
      vertex -30.445 45.9499 0
    endloop
  endfacet
  facet normal 0 0 -1
    outer loop
      vertex -30.445 45.9499 0
      vertex -34 52 0
      vertex -28.753 45.5637 0
    endloop
  endfacet
  facet normal 0 0 -1
    outer loop
      vertex -34 36 0
      vertex -34 52 0
      vertex -31.8019 44.8678 0
    endloop
  endfacet
  facet normal 0 0 -1
    outer loop
      vertex -34 36 0
      vertex -31.8019 44.8678 0
      vertex -31.8019 43.1322 0
    endloop
  endfacet
  facet normal 0 0 -1
    outer loop
      vertex -34 36 0
      vertex -31.8019 43.1322 0
      vertex -26 36 0
    endloop
  endfacet
  facet normal 0 0 -1
    outer loop
      vertex -31.8019 43.1322 0
      vertex -30.445 42.0501 0
      vertex -26 36 0
    endloop
  endfacet
  facet normal 0 0 -1
    outer loop
      vertex -26 36 0
      vertex -28.753 42.4363 0
      vertex -22 52 0
    endloop
  endfacet
  facet normal 0 0 -1
    outer loop
      vertex -28.753 42.4363 0
      vertex -28 44 0
      vertex -22 52 0
    endloop
  endfacet
  facet normal 0 0 -1
    outer loop
      vertex -28 44 0
      vertex -28.753 45.5637 0
      vertex -22 52 0
    endloop
  endfacet
  facet normal 0 0 -1
    outer loop
      vertex -26 36 0
      vertex -22 28.9123 0
      vertex -26 28.9123 0
    endloop
  endfacet
  facet normal 0 -1 0
    outer loop
      vertex -34 36 4
      vertex -34 36 0
      vertex -26 36 0
    endloop
  endfacet
  facet normal 0 -1 0
    outer loop
      vertex -26 36 4
      vertex -34 36 4
      vertex -26 36 0
    endloop
  endfacet
  facet normal 0 0 1
    outer loop
      vertex -31.8019 43.1322 4
      vertex -34 36 4
      vertex -26 36 4
    endloop
  endfacet
  facet normal 0 0 1
    outer loop
      vertex -30.445 42.0501 4
      vertex -31.8019 43.1322 4
      vertex -26 36 4
    endloop
  endfacet
  facet normal 0 0 1
    outer loop
      vertex -34 52 4
      vertex -34 36 4
      vertex -31.8019 43.1322 4
    endloop
  endfacet
  facet normal 0 0 1
    outer loop
      vertex -28 44 4
      vertex -28.753 42.4363 4
      vertex -26 36 4
    endloop
  endfacet
  facet normal 0 0 1
    outer loop
      vertex -34 52 4
      vertex -31.8019 43.1322 4
      vertex -31.8019 44.8678 4
    endloop
  endfacet
  facet normal 0 0 1
    outer loop
      vertex -26 52 4
      vertex -34 52 4
      vertex -30.445 45.9499 4
    endloop
  endfacet
  facet normal 0 0 1
    outer loop
      vertex -26 52 4
      vertex -30.445 45.9499 4
      vertex -28.753 45.5637 4
    endloop
  endfacet
  facet normal 0 0 1
    outer loop
      vertex -26 52 4
      vertex -28 44 4
      vertex -26 36 4
    endloop
  endfacet
  facet normal 0 0 1
    outer loop
      vertex -26 52 4
      vertex -28.753 45.5637 4
      vertex -28 44 4
    endloop
  endfacet
  facet normal 0 0 1
    outer loop
      vertex -31.8019 44.8678 4
      vertex -30.445 45.9499 4
      vertex -34 52 4
    endloop
  endfacet
  facet normal 0 0 1
    outer loop
      vertex -28.753 42.4363 4
      vertex -30.445 42.0501 4
      vertex -26 36 4
    endloop
  endfacet
  facet normal 0 1 0
    outer loop
      vertex -34 52 0
      vertex -34 52 4
      vertex -22 52 0
    endloop
  endfacet
  facet normal 0 1 0
    outer loop
      vertex -22 52 0
      vertex -34 52 4
      vertex -26 52 4
    endloop
  endfacet
  facet normal 0 1 0
    outer loop
      vertex -22 52 0
      vertex -26 52 4
      vertex -22 52 4
    endloop
  endfacet
  facet normal 0 0.707107 0.707107
    outer loop
      vertex -22 51.9 4.1
      vertex -22 52 4
      vertex -26 52 4
    endloop
  endfacet
  facet normal 0 0.707107 0.707107
    outer loop
      vertex -22 4 52
      vertex -22 51.9 4.1
      vertex -26 52 4
    endloop
  endfacet
  facet normal 0 0.707107 0.707107
    outer loop
      vertex -26 4 52
      vertex -22 4 52
      vertex -26 52 4
    endloop
  endfacet
  facet normal -1 0 0
    outer loop
      vertex 22 3.9 0
      vertex 22 3.9 52
      vertex 22 21.0877 0
    endloop
  endfacet
  facet normal -1 0 0
    outer loop
      vertex 22 21.0877 0
      vertex 22 3.9 52
      vertex 22 4 52
    endloop
  endfacet
  facet normal -1 0 0
    outer loop
      vertex 22 28.7401 1.41842
      vertex 22 4 52
      vertex 22 51.9 4.1
    endloop
  endfacet
  facet normal -1 0 0
    outer loop
      vertex 22 28.9123 0
      vertex 22 51.9 4.1
      vertex 22 51.9 0
    endloop
  endfacet
  facet normal -1 0 0
    outer loop
      vertex 22 27.6525 2.99404
      vertex 22 4 52
      vertex 22 28.7401 1.41842
    endloop
  endfacet
  facet normal -1 0 0
    outer loop
      vertex 22 25.9573 3.88377
      vertex 22 4 52
      vertex 22 27.6525 2.99404
    endloop
  endfacet
  facet normal -1 0 0
    outer loop
      vertex 22 24.0427 3.88377
      vertex 22 4 52
      vertex 22 25.9573 3.88377
    endloop
  endfacet
  facet normal -1 0 0
    outer loop
      vertex 22 22.3475 2.99404
      vertex 22 4 52
      vertex 22 24.0427 3.88377
    endloop
  endfacet
  facet normal -1 0 0
    outer loop
      vertex 22 21.2599 1.41842
      vertex 22 4 52
      vertex 22 22.3475 2.99404
    endloop
  endfacet
  facet normal -1 0 0
    outer loop
      vertex 22 21.0877 0
      vertex 22 4 52
      vertex 22 21.2599 1.41842
    endloop
  endfacet
  facet normal -1 0 0
    outer loop
      vertex 22 28.7401 1.41842
      vertex 22 51.9 4.1
      vertex 22 28.9123 0
    endloop
  endfacet
  facet normal 0 0.707107 0.707107
    outer loop
      vertex 26 4 52
      vertex 26 52 4
      vertex 22 52 4
    endloop
  endfacet
  facet normal 0 0.707107 0.707107
    outer loop
      vertex 22 4 52
      vertex 26 4 52
      vertex 22 51.9 4.1
    endloop
  endfacet
  facet normal 0 0.707107 0.707107
    outer loop
      vertex 22 51.9 4.1
      vertex 26 4 52
      vertex 22 52 4
    endloop
  endfacet
  facet normal 0 1 0
    outer loop
      vertex 22 52 0
      vertex 22 52 4
      vertex 34 52 0
    endloop
  endfacet
  facet normal 0 1 0
    outer loop
      vertex 34 52 0
      vertex 22 52 4
      vertex 26 52 4
    endloop
  endfacet
  facet normal 0 1 0
    outer loop
      vertex 34 52 4
      vertex 34 52 0
      vertex 26 52 4
    endloop
  endfacet
  facet normal 0 0 1
    outer loop
      vertex 28.1981 43.1322 4
      vertex 26 36 4
      vertex 34 36 4
    endloop
  endfacet
  facet normal 0 0 1
    outer loop
      vertex 29.555 42.0501 4
      vertex 28.1981 43.1322 4
      vertex 34 36 4
    endloop
  endfacet
  facet normal 0 0 1
    outer loop
      vertex 26 52 4
      vertex 26 36 4
      vertex 28.1981 43.1322 4
    endloop
  endfacet
  facet normal 0 0 1
    outer loop
      vertex 32 44 4
      vertex 31.247 42.4363 4
      vertex 34 36 4
    endloop
  endfacet
  facet normal 0 0 1
    outer loop
      vertex 26 52 4
      vertex 28.1981 43.1322 4
      vertex 28.1981 44.8678 4
    endloop
  endfacet
  facet normal 0 0 1
    outer loop
      vertex 34 52 4
      vertex 26 52 4
      vertex 29.555 45.9499 4
    endloop
  endfacet
  facet normal 0 0 1
    outer loop
      vertex 34 52 4
      vertex 29.555 45.9499 4
      vertex 31.247 45.5637 4
    endloop
  endfacet
  facet normal 0 0 1
    outer loop
      vertex 34 52 4
      vertex 32 44 4
      vertex 34 36 4
    endloop
  endfacet
  facet normal 0 0 1
    outer loop
      vertex 34 52 4
      vertex 31.247 45.5637 4
      vertex 32 44 4
    endloop
  endfacet
  facet normal 0 0 1
    outer loop
      vertex 28.1981 44.8678 4
      vertex 29.555 45.9499 4
      vertex 26 52 4
    endloop
  endfacet
  facet normal 0 0 1
    outer loop
      vertex 31.247 42.4363 4
      vertex 29.555 42.0501 4
      vertex 34 36 4
    endloop
  endfacet
  facet normal 0 -1 0
    outer loop
      vertex 26 36 4
      vertex 26 36 0
      vertex 34 36 0
    endloop
  endfacet
  facet normal 0 -1 0
    outer loop
      vertex 34 36 4
      vertex 26 36 4
      vertex 34 36 0
    endloop
  endfacet
  facet normal 0 0 -1
    outer loop
      vertex 22 28.9123 0
      vertex 22 51.9 0
      vertex 26 28.9123 0
    endloop
  endfacet
  facet normal 0 0 -1
    outer loop
      vertex 26 28.9123 0
      vertex 22 51.9 0
      vertex 22 52 0
    endloop
  endfacet
  facet normal 0 0 -1
    outer loop
      vertex 28.1981 44.8678 0
      vertex 22 52 0
      vertex 34 52 0
    endloop
  endfacet
  facet normal 0 0 -1
    outer loop
      vertex 32 44 0
      vertex 34 52 0
      vertex 34 36 0
    endloop
  endfacet
  facet normal 0 0 -1
    outer loop
      vertex 26 28.9123 0
      vertex 22 52 0
      vertex 26 36 0
    endloop
  endfacet
  facet normal 0 0 -1
    outer loop
      vertex 31.247 45.5637 0
      vertex 34 52 0
      vertex 32 44 0
    endloop
  endfacet
  facet normal 0 0 -1
    outer loop
      vertex 26 36 0
      vertex 22 52 0
      vertex 28.1981 44.8678 0
    endloop
  endfacet
  facet normal 0 0 -1
    outer loop
      vertex 29.555 45.9499 0
      vertex 28.1981 44.8678 0
      vertex 34 52 0
    endloop
  endfacet
  facet normal 0 0 -1
    outer loop
      vertex 26 36 0
      vertex 28.1981 44.8678 0
      vertex 28.1981 43.1322 0
    endloop
  endfacet
  facet normal 0 0 -1
    outer loop
      vertex 29.555 42.0501 0
      vertex 26 36 0
      vertex 28.1981 43.1322 0
    endloop
  endfacet
  facet normal 0 0 -1
    outer loop
      vertex 31.247 42.4363 0
      vertex 32 44 0
      vertex 34 36 0
    endloop
  endfacet
  facet normal 0 0 -1
    outer loop
      vertex 29.555 45.9499 0
      vertex 34 52 0
      vertex 31.247 45.5637 0
    endloop
  endfacet
  facet normal 0 0 -1
    outer loop
      vertex 26 36 0
      vertex 29.555 42.0501 0
      vertex 31.247 42.4363 0
    endloop
  endfacet
  facet normal 0 0 -1
    outer loop
      vertex 26 36 0
      vertex 31.247 42.4363 0
      vertex 34 36 0
    endloop
  endfacet
  facet normal 2.67644e-17 -0.992709 -0.120536
    outer loop
      vertex 22 28.9123 0
      vertex 26 28.9123 0
      vertex 26 28.7401 1.41842
    endloop
  endfacet
  facet normal 2.67644e-17 -0.992709 -0.120536
    outer loop
      vertex 22 28.7401 1.41842
      vertex 22 28.9123 0
      vertex 26 28.7401 1.41842
    endloop
  endfacet
  facet normal 1.26136e-16 -0.822984 -0.568065
    outer loop
      vertex 22 28.7401 1.41842
      vertex 26 28.7401 1.41842
      vertex 26 27.6525 2.99404
    endloop
  endfacet
  facet normal 1.26136e-16 -0.822984 -0.568065
    outer loop
      vertex 22 27.6525 2.99404
      vertex 22 28.7401 1.41842
      vertex 26 27.6525 2.99404
    endloop
  endfacet
  facet normal 1.96611e-16 -0.464723 -0.885456
    outer loop
      vertex 26 27.6525 2.99404
      vertex 26 25.9573 3.88377
      vertex 22 27.6525 2.99404
    endloop
  endfacet
  facet normal 1.96611e-16 -0.464723 -0.885456
    outer loop
      vertex 22 27.6525 2.99404
      vertex 26 25.9573 3.88377
      vertex 22 25.9573 3.88377
    endloop
  endfacet
  facet normal 2.22045e-16 0 -1
    outer loop
      vertex 26 25.9573 3.88377
      vertex 26 24.0427 3.88377
      vertex 22 25.9573 3.88377
    endloop
  endfacet
  facet normal 2.22045e-16 0 -1
    outer loop
      vertex 22 25.9573 3.88377
      vertex 26 24.0427 3.88377
      vertex 22 24.0427 3.88377
    endloop
  endfacet
  facet normal 1.96611e-16 0.464723 -0.885456
    outer loop
      vertex 26 24.0427 3.88377
      vertex 26 22.3475 2.99404
      vertex 22 24.0427 3.88377
    endloop
  endfacet
  facet normal 1.96611e-16 0.464723 -0.885456
    outer loop
      vertex 22 24.0427 3.88377
      vertex 26 22.3475 2.99404
      vertex 22 22.3475 2.99404
    endloop
  endfacet
  facet normal 1.26136e-16 0.822984 -0.568065
    outer loop
      vertex 26 22.3475 2.99404
      vertex 26 21.2599 1.41842
      vertex 22 22.3475 2.99404
    endloop
  endfacet
  facet normal 1.26136e-16 0.822984 -0.568065
    outer loop
      vertex 22 22.3475 2.99404
      vertex 26 21.2599 1.41842
      vertex 22 21.2599 1.41842
    endloop
  endfacet
  facet normal 2.67644e-17 0.992709 -0.120536
    outer loop
      vertex 26 21.2599 1.41842
      vertex 26 21.0877 0
      vertex 22 21.2599 1.41842
    endloop
  endfacet
  facet normal 2.67644e-17 0.992709 -0.120536
    outer loop
      vertex 22 21.2599 1.41842
      vertex 26 21.0877 0
      vertex 22 21.0877 0
    endloop
  endfacet
  facet normal 0 1 0
    outer loop
      vertex 26 16 0
      vertex 26 16 4
      vertex 34 16 0
    endloop
  endfacet
  facet normal 0 1 0
    outer loop
      vertex 34 16 0
      vertex 26 16 4
      vertex 34 16 4
    endloop
  endfacet
  facet normal 1 0 0
    outer loop
      vertex 28.1981 8.86777 0
      vertex 28.1981 8.86777 4
      vertex 28.1981 7.13223 4
    endloop
  endfacet
  facet normal 1 0 0
    outer loop
      vertex 28.1981 7.13223 0
      vertex 28.1981 8.86777 0
      vertex 28.1981 7.13223 4
    endloop
  endfacet
  facet normal 0.62349 0.781831 0
    outer loop
      vertex 29.555 6.05014 4
      vertex 29.555 6.05014 0
      vertex 28.1981 7.13223 4
    endloop
  endfacet
  facet normal 0.62349 0.781831 0
    outer loop
      vertex 28.1981 7.13223 4
      vertex 29.555 6.05014 0
      vertex 28.1981 7.13223 0
    endloop
  endfacet
  facet normal -0.222521 0.974928 0
    outer loop
      vertex 31.247 6.43634 4
      vertex 31.247 6.43634 0
      vertex 29.555 6.05014 4
    endloop
  endfacet
  facet normal -0.222521 0.974928 0
    outer loop
      vertex 29.555 6.05014 4
      vertex 31.247 6.43634 0
      vertex 29.555 6.05014 0
    endloop
  endfacet
  facet normal -0.900969 0.433884 0
    outer loop
      vertex 32 8 4
      vertex 32 8 0
      vertex 31.247 6.43634 4
    endloop
  endfacet
  facet normal -0.900969 0.433884 0
    outer loop
      vertex 31.247 6.43634 4
      vertex 32 8 0
      vertex 31.247 6.43634 0
    endloop
  endfacet
  facet normal -0.900969 -0.433884 0
    outer loop
      vertex 32 8 4
      vertex 31.247 9.56366 4
      vertex 32 8 0
    endloop
  endfacet
  facet normal -0.900969 -0.433884 0
    outer loop
      vertex 32 8 0
      vertex 31.247 9.56366 4
      vertex 31.247 9.56366 0
    endloop
  endfacet
  facet normal -0.222521 -0.974928 0
    outer loop
      vertex 31.247 9.56366 0
      vertex 31.247 9.56366 4
      vertex 29.555 9.94986 4
    endloop
  endfacet
  facet normal -0.222521 -0.974928 0
    outer loop
      vertex 29.555 9.94986 0
      vertex 31.247 9.56366 0
      vertex 29.555 9.94986 4
    endloop
  endfacet
  facet normal 0.62349 -0.781831 0
    outer loop
      vertex 29.555 9.94986 0
      vertex 29.555 9.94986 4
      vertex 28.1981 8.86777 4
    endloop
  endfacet
  facet normal 0.62349 -0.781831 0
    outer loop
      vertex 28.1981 8.86777 0
      vertex 29.555 9.94986 0
      vertex 28.1981 8.86777 4
    endloop
  endfacet
  facet normal 1 0 0
    outer loop
      vertex -22 51.9 4.1
      vertex -22 51.9 0
      vertex -22 52 0
    endloop
  endfacet
  facet normal 1 0 0
    outer loop
      vertex -22 52 4
      vertex -22 51.9 4.1
      vertex -22 52 0
    endloop
  endfacet
  facet normal -1 0 0
    outer loop
      vertex -34 36 0
      vertex -34 36 4
      vertex -34 52 0
    endloop
  endfacet
  facet normal -1 0 0
    outer loop
      vertex -34 52 0
      vertex -34 36 4
      vertex -34 52 4
    endloop
  endfacet
  facet normal 1 0 0
    outer loop
      vertex -31.8019 44.8678 0
      vertex -31.8019 44.8678 4
      vertex -31.8019 43.1322 4
    endloop
  endfacet
  facet normal 1 0 0
    outer loop
      vertex -31.8019 43.1322 0
      vertex -31.8019 44.8678 0
      vertex -31.8019 43.1322 4
    endloop
  endfacet
  facet normal 0.62349 -0.781831 0
    outer loop
      vertex -30.445 45.9499 0
      vertex -30.445 45.9499 4
      vertex -31.8019 44.8678 4
    endloop
  endfacet
  facet normal 0.62349 -0.781831 0
    outer loop
      vertex -31.8019 44.8678 0
      vertex -30.445 45.9499 0
      vertex -31.8019 44.8678 4
    endloop
  endfacet
  facet normal -0.222521 -0.974928 0
    outer loop
      vertex -28.753 45.5637 0
      vertex -28.753 45.5637 4
      vertex -30.445 45.9499 4
    endloop
  endfacet
  facet normal -0.222521 -0.974928 0
    outer loop
      vertex -30.445 45.9499 0
      vertex -28.753 45.5637 0
      vertex -30.445 45.9499 4
    endloop
  endfacet
  facet normal -0.900969 -0.433884 0
    outer loop
      vertex -28 44 4
      vertex -28.753 45.5637 4
      vertex -28 44 0
    endloop
  endfacet
  facet normal -0.900969 -0.433884 0
    outer loop
      vertex -28 44 0
      vertex -28.753 45.5637 4
      vertex -28.753 45.5637 0
    endloop
  endfacet
  facet normal -0.900969 0.433884 0
    outer loop
      vertex -28 44 4
      vertex -28 44 0
      vertex -28.753 42.4363 4
    endloop
  endfacet
  facet normal -0.900969 0.433884 0
    outer loop
      vertex -28.753 42.4363 4
      vertex -28 44 0
      vertex -28.753 42.4363 0
    endloop
  endfacet
  facet normal -0.222521 0.974928 0
    outer loop
      vertex -28.753 42.4363 4
      vertex -28.753 42.4363 0
      vertex -30.445 42.0501 4
    endloop
  endfacet
  facet normal -0.222521 0.974928 0
    outer loop
      vertex -30.445 42.0501 4
      vertex -28.753 42.4363 0
      vertex -30.445 42.0501 0
    endloop
  endfacet
  facet normal 0.62349 0.781831 0
    outer loop
      vertex -30.445 42.0501 4
      vertex -30.445 42.0501 0
      vertex -31.8019 43.1322 4
    endloop
  endfacet
  facet normal 0.62349 0.781831 0
    outer loop
      vertex -31.8019 43.1322 4
      vertex -30.445 42.0501 0
      vertex -31.8019 43.1322 0
    endloop
  endfacet
  facet normal -1 0 0
    outer loop
      vertex 22 51.9 0
      vertex 22 51.9 4.1
      vertex 22 52 0
    endloop
  endfacet
  facet normal -1 0 0
    outer loop
      vertex 22 52 0
      vertex 22 51.9 4.1
      vertex 22 52 4
    endloop
  endfacet
  facet normal 1 0 0
    outer loop
      vertex 34 36 4
      vertex 34 36 0
      vertex 34 52 0
    endloop
  endfacet
  facet normal 1 0 0
    outer loop
      vertex 34 52 4
      vertex 34 36 4
      vertex 34 52 0
    endloop
  endfacet
  facet normal 1 0 0
    outer loop
      vertex 28.1981 44.8678 0
      vertex 28.1981 44.8678 4
      vertex 28.1981 43.1322 4
    endloop
  endfacet
  facet normal 1 0 0
    outer loop
      vertex 28.1981 43.1322 0
      vertex 28.1981 44.8678 0
      vertex 28.1981 43.1322 4
    endloop
  endfacet
  facet normal 0.62349 0.781831 0
    outer loop
      vertex 29.555 42.0501 4
      vertex 29.555 42.0501 0
      vertex 28.1981 43.1322 4
    endloop
  endfacet
  facet normal 0.62349 0.781831 0
    outer loop
      vertex 28.1981 43.1322 4
      vertex 29.555 42.0501 0
      vertex 28.1981 43.1322 0
    endloop
  endfacet
  facet normal -0.222521 0.974928 0
    outer loop
      vertex 31.247 42.4363 4
      vertex 31.247 42.4363 0
      vertex 29.555 42.0501 4
    endloop
  endfacet
  facet normal -0.222521 0.974928 0
    outer loop
      vertex 29.555 42.0501 4
      vertex 31.247 42.4363 0
      vertex 29.555 42.0501 0
    endloop
  endfacet
  facet normal -0.900969 0.433884 0
    outer loop
      vertex 32 44 4
      vertex 32 44 0
      vertex 31.247 42.4363 4
    endloop
  endfacet
  facet normal -0.900969 0.433884 0
    outer loop
      vertex 31.247 42.4363 4
      vertex 32 44 0
      vertex 31.247 42.4363 0
    endloop
  endfacet
  facet normal -0.900969 -0.433884 0
    outer loop
      vertex 32 44 4
      vertex 31.247 45.5637 4
      vertex 32 44 0
    endloop
  endfacet
  facet normal -0.900969 -0.433884 0
    outer loop
      vertex 32 44 0
      vertex 31.247 45.5637 4
      vertex 31.247 45.5637 0
    endloop
  endfacet
  facet normal -0.222521 -0.974928 0
    outer loop
      vertex 31.247 45.5637 0
      vertex 31.247 45.5637 4
      vertex 29.555 45.9499 4
    endloop
  endfacet
  facet normal -0.222521 -0.974928 0
    outer loop
      vertex 29.555 45.9499 0
      vertex 31.247 45.5637 0
      vertex 29.555 45.9499 4
    endloop
  endfacet
  facet normal 0.62349 -0.781831 0
    outer loop
      vertex 29.555 45.9499 0
      vertex 29.555 45.9499 4
      vertex 28.1981 44.8678 4
    endloop
  endfacet
  facet normal 0.62349 -0.781831 0
    outer loop
      vertex 28.1981 44.8678 0
      vertex 29.555 45.9499 0
      vertex 28.1981 44.8678 4
    endloop
  endfacet
endsolid OpenSCAD_Model
